<svg width="564" height="420" viewBox="0 0 564 420" fill="none" xmlns="http://www.w3.org/2000/svg">
<path opacity="0.5" d="M267.091 156.241L334 117.618C336.628 116.097 336.282 113.469 333.272 111.74L314.948 101.16C311.939 99.4313 307.375 99.2238 304.747 100.745L237.84 139.367C235.212 140.889 235.558 143.516 238.565 145.245L256.892 155.826C259.899 157.555 264.462 157.762 267.091 156.241Z" fill="#00A4EC"/>
<path opacity="0.5" d="M151.948 221.833L218.855 183.245C221.483 181.724 221.136 179.096 218.13 177.367L199.837 166.752C196.831 165.023 192.265 164.816 189.637 166.337L122.695 204.959C120.067 206.481 120.413 209.108 123.422 210.837L141.747 221.418C144.756 223.146 149.32 223.354 151.948 221.833Z" fill="#00A4EC"/>
<path opacity="0.5" d="M34.1081 290.258L101.05 251.636C103.678 250.117 103.332 247.489 100.324 245.76L81.9981 235.177C78.9898 233.448 74.4255 233.242 71.7976 234.764L4.8555 273.351C2.22761 274.873 2.57338 277.499 5.58167 279.228L23.9076 289.81C26.9159 291.574 31.4802 291.746 34.1081 290.258Z" fill="#00A4EC"/>
<path d="M106.65 321.101H106.719C106.339 324.87 108.414 328.569 113.047 331.232L237.044 402.805C246.483 408.268 263.011 407.578 273.902 401.285L493.089 274.734L493.159 274.699L493.226 274.664H493.261C493.573 274.905 494.091 274.906 494.818 274.734C499.175 273.698 509.895 266.436 511.449 265.606C512.313 265.12 512.453 264.396 511.9 263.913L525.213 256.2L525.349 256.098C525.661 256.374 526.179 256.441 526.802 256.339C526.837 256.339 526.906 256.339 526.941 256.304C529.846 255.821 534.998 252.189 535.932 251.394C536.104 251.258 536.275 251.153 536.345 251.013C536.552 250.737 536.552 250.46 536.345 250.219C536.243 250.114 536.139 250.012 535.967 249.942C536.104 249.837 536.243 249.77 536.38 249.666C543.435 245.137 562.211 237.599 561.347 228.505L560.826 214.294L553.046 218.097L430.988 147.63C421.549 142.167 405.02 142.859 394.129 149.151L118.822 308.1L106.65 305.541V321.101Z" fill="url(#paint0_linear_1761_22097)" stroke="#A5D4D2" stroke-width="2" stroke-miterlimit="10"/>
<path d="M237.942 388.802L114.709 317.644C105.304 312.215 106.479 302.742 117.337 296.481L394.096 136.704C404.952 130.446 421.341 129.754 430.748 135.183L553.982 206.341C563.388 211.77 562.213 221.244 551.354 227.502L274.597 387.28C263.738 393.541 247.349 394.196 237.942 388.802Z" fill="url(#paint1_linear_1761_22097)"/>
<path d="M493.332 263.98L492.709 263.634L511.383 252.848L512.006 253.194C512.835 253.677 512.73 254.507 511.761 255.025L496.513 263.844C495.579 264.397 494.161 264.466 493.332 263.98Z" fill="#11A97D"/>
<path d="M525.836 245.654L525.178 245.308L535.827 239.152L536.485 239.499C537.108 239.845 537.038 240.468 536.31 240.881L528.254 245.515C527.529 245.966 526.455 246.001 525.836 245.654Z" fill="#11A97D"/>
<path d="M527.148 245.897V256.305C530.018 255.924 535.344 252.155 536.311 251.395C536.485 251.255 536.657 251.153 536.727 251.014C536.934 250.737 536.899 250.254 536.899 250.254V240.053C536.934 240.329 536.727 240.641 536.311 240.882L528.254 245.516C527.943 245.725 527.565 245.827 527.148 245.897Z" fill="url(#paint2_linear_1761_22097)"/>
<path d="M525.35 245.379L525.556 256.165L525.696 256.063C526.007 256.34 526.526 256.41 527.148 256.305C527.183 256.305 527.253 256.305 527.285 256.27L527.183 245.827C526.7 245.862 526.179 245.792 525.836 245.621L525.35 245.379Z" fill="url(#paint3_linear_1761_22097)"/>
<path d="M495.165 274.665C498.035 274.283 511.036 266.125 512.003 265.363C512.177 265.226 512.349 265.121 512.419 264.984C512.625 264.708 512.591 264.222 512.591 264.222V254.023C512.625 254.3 512.419 254.611 512.003 254.853L496.408 263.913C496.1 264.085 495.442 264.222 495.061 264.257L495.165 274.665Z" fill="url(#paint4_linear_1761_22097)"/>
<path d="M493.227 263.912L493.401 274.698L493.471 274.629L493.538 274.594H493.573C493.884 274.838 494.402 274.838 495.13 274.663L495.025 264.29C494.402 264.36 493.748 264.256 493.296 263.979L493.227 263.912Z" fill="url(#paint5_linear_1761_22097)"/>
<path opacity="0.1" d="M487.939 187.324L460.691 171.592C460.243 171.315 460.313 170.865 460.831 170.589C461.349 170.277 462.144 170.243 462.595 170.52L489.84 186.252C490.291 186.529 490.221 186.978 489.703 187.255C489.15 187.566 488.388 187.6 487.939 187.324Z" fill="#A5D4D2"/>
<path d="M489.426 186.598L462.178 170.866C461.73 170.624 460.967 170.624 460.449 170.935C460.519 170.831 460.621 170.728 460.796 170.624C461.314 170.313 462.108 170.278 462.559 170.555L489.805 186.287C490.256 186.564 490.186 187.013 489.668 187.29C489.668 187.29 489.633 187.29 489.633 187.324C489.805 187.048 489.738 186.771 489.426 186.598Z" fill="url(#paint6_linear_1761_22097)"/>
<path opacity="0.1" d="M448.623 163.57C447.584 164.158 445.89 164.158 444.854 163.57C443.814 162.983 443.814 161.98 444.854 161.392C445.89 160.804 447.584 160.804 448.623 161.392C449.659 162.014 449.659 162.983 448.623 163.57Z" fill="#A5D4D2"/>
<path d="M448.14 163.778C449.176 163.19 449.176 162.188 448.14 161.6C447.275 161.081 445.925 161.012 444.889 161.358C445.925 160.805 447.587 160.805 448.588 161.392C449.624 161.98 449.624 162.983 448.588 163.571C448.416 163.674 448.242 163.744 448.035 163.813C448.105 163.813 448.14 163.813 448.14 163.778Z" fill="url(#paint7_linear_1761_22097)"/>
<path opacity="0.1" d="M454.639 167.027C453.774 167.511 452.427 167.511 451.562 167.027C450.698 166.543 450.698 165.747 451.562 165.263C452.427 164.779 453.774 164.779 454.639 165.263C455.468 165.747 455.468 166.543 454.639 167.027Z" fill="#A5D4D2"/>
<path d="M454.156 165.438C453.428 165.023 452.357 164.954 451.527 165.23C451.527 165.23 451.527 165.23 451.562 165.23C452.427 164.746 453.774 164.746 454.639 165.23C455.503 165.714 455.503 166.51 454.639 166.994C454.499 167.063 454.362 167.132 454.19 167.201C455.02 166.717 455.02 165.956 454.156 165.438Z" fill="url(#paint8_linear_1761_22097)"/>
<path d="M183.932 367.399C184.14 368.473 185.004 369.544 185.834 369.785C186.664 370.027 187.183 369.337 186.975 368.263C186.768 367.192 185.903 366.121 185.074 365.879C184.244 365.603 183.725 366.293 183.932 367.399Z" fill="#128980"/>
<path d="M185.072 365.843C185.314 365.913 185.556 366.05 185.798 366.256C185.729 366.221 185.66 366.189 185.591 366.189C184.761 365.945 184.243 366.638 184.45 367.709C184.588 368.471 185.072 369.231 185.66 369.714C184.899 369.368 184.139 368.401 183.966 367.397C183.724 366.291 184.243 365.602 185.072 365.843Z" fill="#50D4C9"/>
<path d="M179.643 364.91C179.851 365.981 180.715 367.052 181.545 367.297C182.375 367.538 182.894 366.846 182.686 365.775C182.479 364.703 181.614 363.63 180.784 363.388C179.955 363.146 179.436 363.839 179.643 364.91Z" fill="#128980"/>
<path d="M180.785 363.388C181.027 363.458 181.269 363.595 181.512 363.804C181.442 363.769 181.373 363.734 181.304 363.734C180.474 363.493 179.956 364.182 180.163 365.256C180.301 366.016 180.785 366.776 181.373 367.262C180.612 366.915 179.852 365.946 179.679 364.945C179.437 363.839 179.956 363.146 180.785 363.388Z" fill="#50D4C9"/>
<path d="M175.356 362.453C175.564 363.527 176.428 364.598 177.258 364.84C178.088 365.082 178.607 364.392 178.399 363.318C178.192 362.247 177.327 361.176 176.497 360.934C175.633 360.658 175.149 361.347 175.356 362.453Z" fill="#128980"/>
<path d="M176.497 360.9C176.739 360.97 176.981 361.106 177.223 361.313C177.154 361.281 177.085 361.246 177.015 361.246C176.186 361.005 175.667 361.694 175.875 362.765C176.013 363.528 176.497 364.288 177.085 364.771C176.324 364.427 175.563 363.458 175.39 362.457C175.148 361.348 175.632 360.658 176.497 360.9Z" fill="#50D4C9"/>
<path d="M171.069 359.965C171.277 361.036 172.141 362.11 172.971 362.351C173.801 362.593 174.32 361.9 174.112 360.829C173.905 359.758 173.04 358.687 172.21 358.443C171.346 358.201 170.862 358.894 171.069 359.965Z" fill="#128980"/>
<path d="M172.176 358.443C172.418 358.512 172.66 358.652 172.902 358.859C172.833 358.824 172.764 358.789 172.694 358.789C171.865 358.547 171.346 359.24 171.553 360.311C171.692 361.071 172.176 361.833 172.764 362.316C172.003 361.97 171.242 361.001 171.069 360C170.862 358.894 171.346 358.201 172.176 358.443Z" fill="#50D4C9"/>
<path d="M193.716 346.585L172.762 334.483C171.276 333.619 171.448 332.096 173.177 331.092L177.949 328.327C179.678 327.323 182.306 327.221 183.792 328.086L204.746 340.188C206.234 341.052 206.062 342.571 204.333 343.576L199.56 346.34C197.831 347.31 195.203 347.449 193.716 346.585Z" fill="url(#paint9_linear_1761_22097)"/>
<path d="M204.541 340.082L184.036 328.222C182.411 327.291 179.817 327.291 178.192 328.222L176.602 329.156C178.192 328.222 180.82 328.222 182.445 329.156L202.983 341.017C204.61 341.951 204.61 343.47 203.018 344.369L204.61 343.435C206.165 342.504 206.165 341.017 204.541 340.082Z" fill="url(#paint10_linear_1761_22097)"/>
<path d="M195.17 345.477L174.631 333.619C173.006 332.685 173.006 331.163 174.596 330.264L172.937 331.233C171.346 332.167 171.346 333.651 172.971 334.586L193.51 346.446C195.135 347.38 197.73 347.38 199.354 346.446L201.013 345.477C199.389 346.411 196.796 346.411 195.17 345.477Z" fill="url(#paint11_linear_1761_22097)"/>
<path d="M414.841 131.516C420.822 131.516 426.494 132.727 430.747 135.182L553.98 206.34C563.387 211.769 562.211 221.243 551.352 227.501L274.595 387.279C268.646 390.702 261.073 392.466 253.846 392.466C247.865 392.466 242.195 391.255 237.943 388.801L114.707 317.642C105.302 312.214 106.478 302.741 117.335 296.48L394.095 136.703C400.041 133.245 407.649 131.516 414.841 131.516ZM414.841 130.514C407.198 130.514 399.453 132.45 393.611 135.838L116.851 295.616C110.835 299.108 107.377 303.777 107.377 308.445C107.377 312.386 109.797 315.948 114.223 318.507L237.457 389.666C241.709 392.119 247.519 393.47 253.881 393.47C261.524 393.47 269.269 391.531 275.113 388.143L551.873 228.366C557.889 224.873 561.347 220.205 561.347 215.538C561.347 211.596 558.925 208.034 554.498 205.476L431.265 134.317C427.012 131.862 421.203 130.514 414.841 130.514Z" fill="#A5D4D2"/>
<path d="M137.806 342.54L151.291 350.32C153.435 351.563 155.198 350.25 155.198 347.346C155.198 346.342 154.576 345.169 153.815 344.717L135.282 333.998C134.521 333.55 133.898 334.033 133.898 335.037C133.898 337.942 135.662 341.26 137.806 342.54Z" fill="url(#paint12_linear_1761_22097)"/>
<path opacity="0.2" d="M404.017 213.463C430.918 228.988 422.204 259.313 384.551 281.165C346.895 303.052 294.614 308.169 267.712 292.644C237.181 275.009 254.091 249.423 291.709 227.536C329.365 205.684 377.15 197.939 404.017 213.463Z" fill="#A5D4D2"/>
<path opacity="0.3" d="M270.688 365.567L151.983 297.036C146.174 293.68 146.9 287.804 153.608 283.93L376.045 155.513C382.754 151.64 392.92 151.225 398.73 154.579L517.434 223.11C523.244 226.464 522.516 232.342 515.807 236.216L293.372 364.633C286.664 368.504 276.497 368.92 270.688 365.567Z" fill="#A5D4D2"/>
<g opacity="0.5">
<path d="M461.9 210.18L442.984 199.254L445.336 198.182L464.251 209.108L461.9 210.18Z" fill="#A5D4D2"/>
<path d="M473.795 217.025L466.912 213.083L469.299 212.012L476.144 215.988L473.795 217.025Z" fill="#A5D4D2"/>
<path d="M492.224 227.675L478.635 219.826L480.986 218.789L494.576 226.603L492.224 227.675Z" fill="#A5D4D2"/>
<path d="M450.11 209.523L437.004 201.951L439.391 200.879L452.494 208.451L450.11 209.523Z" fill="#A5D4D2"/>
<path d="M474.968 223.873L454.016 211.771L456.367 210.699L477.32 222.801L474.968 223.873Z" fill="#A5D4D2"/>
<path d="M486.241 230.374L479.465 226.466L481.817 225.395L488.592 229.302L486.241 230.374Z" fill="#A5D4D2"/>
<path d="M460.757 221.797L442.051 211.009L444.402 209.938L463.108 220.725L460.757 221.797Z" fill="#A5D4D2"/>
<path d="M480.295 233.071L466.395 225.048L468.746 223.977L482.647 231.998L480.295 233.071Z" fill="#A5D4D2"/>
</g>
<g opacity="0.5">
<path d="M404.639 177.09L383.684 164.988L385.933 163.812L406.886 175.914L404.639 177.09Z" fill="#A5D4D2"/>
<path d="M428.325 190.748L411.174 180.859L413.421 179.684L430.572 189.573L428.325 190.748Z" fill="#A5D4D2"/>
<path d="M392.362 176.191L377.979 167.893L380.225 166.752L394.612 175.05L392.362 176.191Z" fill="#A5D4D2"/>
<path d="M409.722 186.218L397.344 179.095L399.594 177.92L411.972 185.077L409.722 186.218Z" fill="#A5D4D2"/>
<path d="M422.62 193.687L414.043 188.742L416.29 187.566L424.867 192.511L422.62 193.687Z" fill="#A5D4D2"/>
<path d="M372.033 171.004L374.245 169.828L391.708 179.613L389.493 180.789L372.033 171.004Z" fill="#A5D4D2"/>
<path d="M405.643 190.402L393.92 183.66L396.167 182.484L407.89 189.261L405.643 190.402Z" fill="#A5D4D2"/>
<path d="M416.637 196.764L410.414 193.168L412.661 191.992L418.887 195.588L416.637 196.764Z" fill="#A5D4D2"/>
</g>
<path d="M273.903 340.601C266.571 336.383 266.606 329.468 273.973 325.216C281.336 320.96 293.333 320.928 300.665 325.181C307.996 329.398 307.961 336.313 300.595 340.566C293.231 344.821 281.231 344.821 273.903 340.601ZM275.768 339.529C282.096 343.159 292.367 343.159 298.729 339.495C305.092 335.83 305.127 329.884 298.799 326.252C292.469 322.622 282.201 322.622 275.838 326.287C269.511 329.916 269.476 335.865 275.768 339.529Z" fill="#A5D4D2"/>
<g opacity="0.6">
<path d="M279.366 343.159L280.92 341.154C279.156 340.706 277.567 340.083 276.22 339.288C270.134 335.761 270.169 330.056 276.287 326.494L273.626 324.939C266.018 329.328 265.983 336.453 273.557 340.81C275.216 341.812 277.151 342.606 279.366 343.159Z" fill="url(#paint13_linear_1761_22097)"/>
</g>
<g opacity="0.6">
<path d="M305.61 336.59C308.134 332.509 306.37 327.946 301.113 324.904C296.791 322.413 290.604 321.237 284.553 321.758L285.106 323.935C290.051 323.522 294.926 324.418 298.418 326.459C302.636 328.915 304.088 332.614 302.048 335.865L305.61 336.59Z" fill="#A5D4D2"/>
</g>
<path d="M187.734 291.02C180.404 286.8 180.438 279.885 187.803 275.632C195.168 271.38 207.168 271.345 214.496 275.598C221.828 279.815 221.793 286.73 214.427 290.985C207.028 295.203 195.064 295.238 187.734 291.02ZM189.601 289.911C195.93 293.544 206.199 293.544 212.561 289.879C218.923 286.212 218.958 280.266 212.631 276.634C206.303 273.004 196.032 273.004 189.67 276.669C183.308 280.336 183.273 286.282 189.601 289.911Z" fill="#A5D4D2"/>
<g opacity="0.6">
<path d="M193.164 293.58L194.72 291.575C192.957 291.124 191.366 290.501 190.018 289.706C183.932 286.179 183.966 280.474 190.087 276.915L187.424 275.357C179.817 279.749 179.783 286.871 187.355 291.228C189.015 292.23 190.986 292.992 193.164 293.58Z" fill="url(#paint14_linear_1761_22097)"/>
</g>
<g opacity="0.6">
<path d="M219.407 287.007C221.933 282.929 220.17 278.363 214.913 275.321C210.591 272.833 204.401 271.657 198.35 272.175L198.903 274.352C203.848 273.939 208.723 274.838 212.215 276.878C216.435 279.332 217.888 283.031 215.848 286.282L219.407 287.007Z" fill="#A5D4D2"/>
</g>
<g opacity="0.6">
<path d="M265.018 258.62C265.224 258.725 265.466 258.827 265.742 258.897C265.952 258.932 271.205 260.038 279.09 260.867C286.387 261.63 297.347 262.32 308.274 261.109C316.813 260.178 325.562 257.896 333.551 254.47C341.055 251.257 347.071 247.418 350.493 243.614C352.117 241.815 353.156 240.433 353.639 239.397C353.881 238.879 354.641 237.356 352.912 236.527C350.112 235.144 344.995 237.182 333.688 241.92C326.185 245.066 317.677 248.629 312.735 249.353C299.769 251.187 279.748 246.137 279.573 246.07C278.572 245.826 277.431 246.07 277.015 246.658C276.567 247.211 277.015 247.901 278.019 248.143C278.883 248.352 299.423 253.574 313.702 251.533C319.374 250.736 327.809 247.176 336.005 243.754C339.532 242.266 342.885 240.849 345.653 239.845C347.97 238.98 349.282 238.634 350.01 238.462C349.801 239.05 349.111 240.226 347.001 242.578C341.156 249.077 325.32 256.996 307.514 258.932C297.173 260.038 286.768 259.415 279.818 258.69C272.244 257.896 267.093 256.822 267.023 256.822C266.019 256.615 264.878 256.927 264.532 257.48C264.29 257.861 264.5 258.344 265.018 258.62Z" fill="#A5D4D2"/>
<path d="M270.722 253.365C270.929 253.505 271.206 253.575 271.517 253.642C271.724 253.677 276.738 254.576 283.895 255.371C293.544 256.445 302.118 256.753 309.345 256.34C316.746 255.889 324.628 253.781 332.824 250.117C338.84 247.384 342.679 244.826 342.85 244.721C343.543 244.238 343.473 243.545 342.644 243.132C341.814 242.716 340.604 242.786 339.879 243.234C339.704 243.339 324.869 253.124 308.931 254.093C292.574 255.059 272.899 251.534 272.693 251.5C271.657 251.325 270.551 251.636 270.239 252.224C270.03 252.675 270.239 253.089 270.722 253.365Z" fill="#A5D4D2"/>
<path d="M262.562 263.531C262.768 263.671 263.045 263.738 263.356 263.807C263.737 263.877 271.794 265.365 284.242 266.366C291.573 266.954 298.454 267.16 304.746 266.989C312.701 266.782 319.683 265.918 325.562 264.5C334.276 262.39 342.749 258.586 349.489 253.816C355.645 249.424 359.793 244.619 360.867 240.573C361.731 237.322 360.555 234.799 357.444 233.276C348.625 228.885 332.373 235.628 320.48 240.538C316.883 242.025 313.772 243.303 311.662 243.961C304.781 246.071 288.98 243.891 283.482 242.89C282.443 242.68 281.337 243.027 281.026 243.614C280.714 244.202 281.267 244.86 282.306 245.032C282.513 245.067 287.665 246.001 293.992 246.624C302.776 247.453 309.31 247.247 313.495 245.966C315.847 245.241 319.063 243.926 322.762 242.369C328.19 240.122 334.934 237.322 341.052 235.663C347.519 233.864 352.187 233.658 354.883 235.005C357.444 236.286 357.409 238.568 356.993 240.227C355.057 247.555 341.328 258.205 324.005 262.425C311.627 265.432 295.826 265.018 284.76 264.154C272.693 263.185 264.672 261.697 264.567 261.697C263.531 261.491 262.425 261.837 262.113 262.425C261.837 262.806 262.043 263.254 262.562 263.531Z" fill="#A5D4D2"/>
<path d="M263.668 273.176C263.808 273.246 263.98 273.316 264.151 273.386C265.121 273.662 266.296 273.456 266.78 272.9C268.337 271.139 276.704 271.381 284.83 271.587C294.098 271.829 304.607 272.14 312.422 270.1C313.391 269.858 313.839 269.166 313.391 268.613C312.943 268.06 311.802 267.783 310.798 268.06C303.813 269.858 293.821 269.582 284.967 269.34C280.162 269.201 275.633 269.099 271.966 269.305C269.061 269.477 265.016 269.928 263.287 271.864C262.909 272.312 263.08 272.833 263.668 273.176Z" fill="#A5D4D2"/>
<path d="M281.89 287.805C282.478 288.151 283.377 288.253 284.175 288.012C284.416 287.942 309.796 280.543 330.126 277.156C340.257 275.462 351.841 270.93 361.868 264.707C366.848 261.631 371.17 258.31 374.697 254.887C378.431 251.223 381.129 247.626 382.652 244.098C386.109 236.182 383.481 229.439 375.044 224.564C368.023 220.518 359.242 219.101 348.142 220.276C338.77 221.244 329.331 223.872 320.239 226.362C312.249 228.575 304.679 230.649 298.8 231.064C297.729 231.133 296.966 231.721 297.106 232.308C297.243 232.93 298.212 233.382 299.283 233.277C305.785 232.829 313.635 230.649 321.933 228.367C330.818 225.912 339.981 223.388 348.869 222.454C358.721 221.417 366.193 222.593 372.311 226.12C381.682 231.514 381.06 238.568 378.883 243.513C373.14 256.581 349.387 271.553 329.02 274.976C308.309 278.433 282.653 285.902 282.376 285.972C281.407 286.248 281.026 286.941 281.512 287.494C281.648 287.63 281.753 287.735 281.89 287.805Z" fill="#A5D4D2"/>
<path d="M297.832 292.922C298.525 293.338 299.631 293.37 300.425 293.026C302.326 292.162 307.271 290.916 313.563 289.324C323.383 286.836 336.801 283.448 349.802 278.779C356.924 276.221 363.219 273.488 368.508 270.723C374.733 267.472 379.78 263.979 383.514 260.385C390.464 253.746 394.58 246.071 395.168 238.775C395.444 235.282 394.891 232.067 393.544 229.162C392.158 226.154 389.946 223.699 387.007 221.832C382.027 218.651 376.322 216.369 370.065 215.089C364.739 213.983 358.999 213.568 352.948 213.845C340.709 214.398 330.956 217.683 328.261 218.651C327.362 218.997 327.085 219.688 327.673 220.207C328.261 220.725 329.469 220.898 330.368 220.552C332.86 219.654 341.917 216.611 353.294 216.092C365.361 215.539 375.734 217.96 384.137 223.353C389.187 226.569 391.78 232.17 391.294 238.67C390.741 245.62 386.835 252.917 380.196 259.244C364.843 273.904 331.754 282.307 311.974 287.287C305.195 289.016 300.32 290.223 298.039 291.263C297.174 291.641 297.037 292.369 297.692 292.852C297.727 292.852 297.762 292.887 297.832 292.922Z" fill="#A5D4D2"/>
<path d="M312.906 293.061C313.218 293.233 313.666 293.37 314.152 293.405C316.399 293.51 322.45 292.922 330.506 291.434C337.25 290.189 347.588 287.907 358.514 284.071C369.993 280.025 379.606 275.185 387.04 269.687C396.135 262.909 401.945 255.164 404.226 246.589C407.477 234.557 404.122 225.152 394.267 218.617C390.984 216.438 386.973 214.571 382.371 213.119C378.707 211.943 374.627 211.01 370.269 210.353C362.871 209.212 357.233 209.246 356.992 209.246C355.921 209.246 355.056 209.765 355.091 210.387C355.126 211.01 355.991 211.494 357.097 211.494C357.131 211.494 362.525 211.459 369.44 212.531C375.733 213.499 384.656 215.608 391.362 220.069C400.387 226.085 403.432 234.869 400.387 246.208C395.341 264.949 373.727 276.082 356.509 282.1C345.894 285.835 335.864 288.047 329.33 289.222C321.722 290.605 316.053 291.158 314.429 291.088C313.355 291.053 312.423 291.504 312.353 292.127C312.318 292.54 312.525 292.852 312.906 293.061Z" fill="#A5D4D2"/>
</g>
<path d="M2.22656 189.4C2.22656 189.365 2.22656 189.365 2.22656 189.33C2.22656 189.296 2.22656 189.227 2.22656 189.192C2.22656 189.123 2.22656 189.088 2.22656 189.019C2.22656 188.985 2.22656 188.95 2.22656 188.881C2.22656 188.846 2.22656 188.777 2.22656 188.742C2.22656 188.708 2.22656 188.673 2.22656 188.639C2.22656 188.57 2.22657 188.501 2.26091 188.431C2.26091 188.397 2.26091 188.362 2.26091 188.293V188.258C2.26091 188.12 2.29555 187.982 2.33018 187.878C2.33018 187.844 2.33018 187.844 2.33018 187.809C2.36482 187.705 2.36481 187.601 2.39944 187.463C2.39944 187.429 2.39944 187.429 2.39944 187.394C2.39944 187.325 2.43409 187.29 2.43409 187.221C2.43409 187.152 2.46842 187.083 2.46842 187.014C2.46842 186.979 2.46843 186.945 2.50306 186.91C2.50306 186.841 2.5377 186.806 2.5377 186.737C2.5377 186.702 2.57234 186.633 2.57234 186.599C2.57234 186.53 2.60697 186.495 2.60697 186.426C2.60697 186.357 2.64131 186.322 2.64131 186.253C2.64131 186.218 2.64131 186.184 2.67595 186.184C2.71058 186.115 2.71058 186.046 2.74522 185.942C2.74522 185.907 2.77985 185.838 2.77985 185.803V185.769C2.81419 185.63 2.84883 185.492 2.9181 185.354V185.319C2.95273 185.216 2.98708 185.077 3.05635 184.974C3.05635 184.939 3.05635 184.939 3.09098 184.905C3.09098 184.87 3.12562 184.801 3.12562 184.766C3.15997 184.697 3.15997 184.628 3.1946 184.559C3.1946 184.524 3.22923 184.49 3.22923 184.42C3.26387 184.386 3.26387 184.317 3.2985 184.282C3.2985 184.247 3.33284 184.213 3.33284 184.178C3.36748 184.109 3.40212 184.04 3.43676 183.971C3.47139 183.936 3.47139 183.902 3.47139 183.867C3.47139 183.867 3.47139 183.833 3.50573 183.833C3.575 183.694 3.60964 183.591 3.67862 183.452C3.67862 183.418 3.71325 183.383 3.71325 183.349C3.74788 183.245 3.81715 183.141 3.8515 183.037C3.8515 183.037 3.85149 183.003 3.88613 183.003C3.92076 182.934 3.95541 182.864 3.99004 182.761C4.02439 182.691 4.05902 182.622 4.09365 182.553C4.09365 182.553 4.09365 182.519 4.12828 182.519C4.2319 182.311 4.33581 182.104 4.47406 181.931L4.50869 181.896C4.50869 181.862 4.54304 181.862 4.54304 181.827C4.71621 181.551 4.88909 181.274 5.06198 180.997L5.09632 180.963C5.09632 180.928 5.13095 180.928 5.13095 180.894C5.2692 180.686 5.40775 180.479 5.58063 180.271C5.68424 180.133 5.78786 179.995 5.89176 179.856C5.89176 179.856 5.89176 179.856 5.89176 179.822C5.96074 179.718 6.06465 179.614 6.13362 179.511C6.16826 179.476 6.16826 179.476 6.2029 179.441C6.30651 179.338 6.41041 179.199 6.51403 179.096C6.54866 179.061 6.5833 179.027 6.61793 178.992C6.68691 178.923 6.75618 178.854 6.82516 178.784L6.85979 178.75C6.89443 178.715 6.9637 178.646 6.99804 178.612C7.03268 178.577 7.10194 178.508 7.13658 178.473C7.17092 178.439 7.17092 178.439 7.20556 178.404C7.24019 178.37 7.30946 178.3 7.34381 178.266C7.37844 178.231 7.41308 178.196 7.48235 178.128C7.51699 178.093 7.51699 178.093 7.55133 178.058C7.6206 178.024 7.65523 177.955 7.72421 177.92C7.75885 177.885 7.79348 177.851 7.82812 177.816C7.86275 177.782 7.8971 177.782 7.93173 177.747C8.001 177.712 8.03564 177.643 8.10462 177.609C8.13925 177.574 8.17389 177.54 8.20852 177.54C8.24286 177.505 8.2775 177.471 8.31213 177.436C8.3814 177.401 8.41575 177.332 8.48502 177.298C8.51966 177.263 8.55428 177.263 8.55428 177.228C8.58863 177.194 8.6579 177.159 8.69254 177.125C8.72717 177.09 8.79615 177.056 8.83079 177.021C8.86542 177.021 8.86542 176.987 8.90006 176.987C8.96904 176.952 9.0383 176.883 9.07294 176.848C9.10728 176.814 9.14192 176.779 9.21119 176.744C9.21119 176.744 9.24582 176.744 9.24582 176.71C9.34944 176.641 9.45305 176.572 9.59159 176.502C9.59159 176.502 9.59159 176.502 9.62593 176.502C9.72984 176.433 9.83345 176.364 9.93736 176.329C9.9717 176.329 9.97199 176.295 10.0063 176.295L77.0177 137.604C77.087 137.569 77.1906 137.5 77.2599 137.465C77.2945 137.465 77.3289 137.431 77.3635 137.431C77.3981 137.396 77.4328 137.396 77.5018 137.362C77.5364 137.362 77.571 137.327 77.6057 137.327C77.6746 137.293 77.7093 137.293 77.7785 137.258C77.8132 137.223 77.8475 137.223 77.8822 137.189C77.8822 137.189 77.9168 137.189 77.9168 137.154C78.0204 137.12 78.1243 137.05 78.2279 137.016C78.3318 136.981 78.4355 136.947 78.5391 136.912H78.5737C78.6083 136.912 78.643 136.878 78.6776 136.878C78.7466 136.843 78.7812 136.843 78.8505 136.808C78.8848 136.808 78.9195 136.808 78.9195 136.774C78.9541 136.774 79.0234 136.739 79.0577 136.739C79.0923 136.739 79.127 136.705 79.1616 136.705C79.1962 136.705 79.2306 136.705 79.2652 136.67C79.2999 136.67 79.3691 136.635 79.4038 136.635C79.4381 136.635 79.4381 136.635 79.4728 136.635C79.5074 136.635 79.542 136.635 79.611 136.601C79.6803 136.601 79.7149 136.566 79.7839 136.566C79.8185 136.566 79.8185 136.566 79.8532 136.566C79.8878 136.566 79.9224 136.566 79.9914 136.566C80.0607 136.566 80.0953 136.566 80.1643 136.566H80.1989C80.2336 136.566 80.2682 136.566 80.3025 136.566C80.3718 136.566 80.4411 136.566 80.51 136.566C80.5447 136.566 80.5447 136.566 80.5793 136.566C80.614 136.566 80.6483 136.566 80.6483 136.566C80.7176 136.566 80.8212 136.566 80.8905 136.566C80.9251 136.566 80.9251 136.566 80.9597 136.566C80.9941 136.566 80.9941 136.566 81.0287 136.566C81.167 136.566 81.2709 136.601 81.4091 136.635H81.4437C81.4784 136.635 81.4784 136.635 81.5127 136.67C81.582 136.67 81.6513 136.705 81.7202 136.739C81.7549 136.739 81.7895 136.774 81.8241 136.774C81.8588 136.774 81.9278 136.808 81.9624 136.808H81.997C82.066 136.843 82.1353 136.878 82.2042 136.878C82.2389 136.878 82.2735 136.912 82.3082 136.912C82.4118 136.947 82.5157 137.016 82.5847 137.05L99.4586 146.87C99.355 146.801 99.2511 146.767 99.1821 146.732C99.1474 146.732 99.1128 146.697 99.0782 146.697C99.0092 146.663 98.9399 146.628 98.8707 146.628C98.8017 146.594 98.767 146.594 98.6978 146.559C98.6634 146.559 98.6288 146.524 98.5942 146.524C98.5249 146.49 98.4559 146.49 98.3867 146.455C98.352 146.455 98.352 146.455 98.3177 146.455H98.283C98.1791 146.421 98.0409 146.421 97.9026 146.386C97.868 146.386 97.8334 146.386 97.7644 146.386C97.6951 146.386 97.5915 146.386 97.5222 146.386C97.4876 146.386 97.4186 146.386 97.384 146.386C97.3147 146.386 97.2457 146.386 97.1765 146.386C97.1072 146.386 97.0728 146.386 97.0036 146.386C96.9343 146.386 96.9 146.386 96.8307 146.386C96.7614 146.386 96.6924 146.386 96.6578 146.421C96.5885 146.421 96.5542 146.421 96.4849 146.455C96.4157 146.455 96.3467 146.49 96.2774 146.49C96.2428 146.49 96.1738 146.524 96.1392 146.524C96.0699 146.524 96.0009 146.559 95.9316 146.594C95.897 146.594 95.828 146.628 95.7934 146.628C95.7241 146.663 95.6205 146.663 95.5512 146.697C95.5169 146.697 95.4823 146.732 95.4476 146.732C95.344 146.767 95.2055 146.801 95.1019 146.87C94.9979 146.905 94.8597 146.974 94.7561 147.008C94.7215 147.008 94.6868 147.043 94.6525 147.078C94.5832 147.112 94.4793 147.147 94.4103 147.216C94.3757 147.251 94.341 147.251 94.2721 147.285C94.1682 147.354 94.0299 147.423 93.9263 147.458L26.8803 186.046C26.742 186.115 26.6381 186.184 26.4999 186.288C26.4999 186.288 26.4999 186.288 26.4652 186.288C26.327 186.357 26.2234 186.461 26.0851 186.53C26.0505 186.564 26.0158 186.599 25.9466 186.633C25.8776 186.702 25.7737 186.737 25.7047 186.806C25.6701 186.841 25.6008 186.875 25.5665 186.91C25.4972 186.979 25.4279 187.014 25.3589 187.083C25.2897 187.117 25.255 187.152 25.1861 187.221C25.1168 187.29 25.0478 187.325 24.9785 187.394C24.9093 187.429 24.8746 187.498 24.8057 187.532C24.7364 187.601 24.6674 187.636 24.5981 187.705C24.5289 187.74 24.4945 187.809 24.4253 187.844C24.356 187.913 24.287 187.982 24.2177 188.051C24.1831 188.085 24.1141 188.155 24.0795 188.189C24.0102 188.258 23.9412 188.328 23.872 188.397C23.8373 188.431 23.7684 188.501 23.7337 188.535C23.6645 188.604 23.5608 188.708 23.4916 188.777C23.4572 188.812 23.4226 188.846 23.388 188.881C23.2843 189.019 23.1804 189.123 23.0768 189.261C23.0768 189.296 23.0422 189.296 23.0422 189.33C22.9386 189.434 22.8693 189.538 22.7657 189.641C22.6618 189.78 22.5582 189.918 22.4543 190.056C22.316 190.264 22.1431 190.471 22.0049 190.679C21.9703 190.713 21.9356 190.748 21.9356 190.783C21.7627 191.059 21.5898 191.336 21.417 191.612C21.3823 191.647 21.3823 191.681 21.348 191.716C21.2441 191.924 21.1058 192.131 21.0022 192.304C20.9676 192.373 20.9329 192.442 20.8983 192.546C20.8637 192.615 20.8293 192.684 20.7947 192.788C20.7254 192.892 20.6908 193.03 20.6218 193.134C20.6218 193.168 20.5872 193.203 20.5872 193.237C20.5179 193.376 20.4489 193.514 20.3797 193.687C20.3797 193.722 20.345 193.756 20.345 193.791C20.3107 193.895 20.2414 193.998 20.2068 194.102C20.1721 194.136 20.1721 194.206 20.1378 194.24C20.1032 194.344 20.0685 194.448 19.9993 194.551C19.9993 194.586 19.9646 194.655 19.9646 194.69C19.9303 194.828 19.861 194.966 19.8264 195.104V195.139C19.7917 195.277 19.7228 195.451 19.6881 195.589C19.6881 195.623 19.6535 195.692 19.6535 195.727C19.6189 195.831 19.5845 195.935 19.5499 196.038C19.5499 196.107 19.5152 196.142 19.5152 196.211C19.4806 196.315 19.4806 196.419 19.446 196.488C19.446 196.557 19.4116 196.591 19.4116 196.66C19.377 196.764 19.377 196.868 19.3424 196.972C19.3424 197.041 19.3077 197.075 19.3077 197.145C19.2731 197.283 19.2731 197.421 19.2387 197.525C19.2387 197.559 19.2387 197.559 19.2387 197.594C19.2041 197.732 19.2041 197.905 19.1695 198.043C19.1695 198.078 19.1695 198.113 19.1695 198.182C19.1695 198.286 19.1348 198.389 19.1348 198.493C19.1348 198.528 19.1348 198.597 19.1348 198.631C19.1348 198.735 19.1348 198.839 19.1002 198.943C19.1002 198.977 19.1002 199.046 19.1002 199.081C19.1002 199.219 19.1002 199.358 19.1002 199.496L19.2731 265.607C19.2731 265.744 19.2731 265.883 19.2731 266.02C19.2731 266.055 19.2731 266.09 19.2731 266.125C19.2731 266.23 19.2731 266.332 19.3077 266.402C19.3077 266.471 19.3077 266.506 19.3077 266.573C19.3077 266.643 19.3424 266.748 19.3424 266.818C19.3424 266.885 19.3424 266.92 19.377 266.989C19.377 267.059 19.4116 267.126 19.4116 267.196C19.4116 267.266 19.446 267.336 19.446 267.371C19.446 267.438 19.4806 267.508 19.4806 267.542C19.5152 267.612 19.5152 267.682 19.5499 267.749C19.5499 267.819 19.5845 267.854 19.5845 267.924C19.6189 267.991 19.6535 268.095 19.6535 268.165C19.6535 268.2 19.6881 268.27 19.6881 268.302C19.7574 268.442 19.7917 268.579 19.861 268.683C19.8956 268.788 19.9649 268.89 19.9993 268.96C20.0339 269.065 20.1032 269.135 20.1721 269.236C20.2414 269.376 20.345 269.478 20.4143 269.583C20.4489 269.618 20.4489 269.653 20.4836 269.653C20.5525 269.754 20.6564 269.859 20.7601 269.964C20.7601 269.964 20.7601 269.964 20.7947 269.999C20.8983 270.101 21.0022 270.171 21.1058 270.275C21.1405 270.307 21.1751 270.307 21.1751 270.342C21.2787 270.412 21.3823 270.517 21.5209 270.584L4.64694 260.767C4.54303 260.697 4.40479 260.627 4.30117 260.522C4.26654 260.49 4.2319 260.49 4.2319 260.455C4.12829 260.386 4.02438 260.281 3.92077 260.179C3.92077 260.179 3.92076 260.179 3.88613 260.144C3.78252 260.039 3.71325 259.934 3.60964 259.833C3.575 259.798 3.575 259.763 3.54037 259.763C3.43675 259.658 3.36748 259.521 3.2985 259.416C3.22923 259.349 3.1946 259.245 3.15996 259.14C3.12562 259.038 3.05635 258.968 3.02171 258.863C2.95273 258.727 2.9181 258.587 2.84883 258.485V258.45C2.84883 258.415 2.8142 258.38 2.8142 258.345C2.77985 258.275 2.74522 258.174 2.74522 258.104C2.74522 258.069 2.74521 258.069 2.71058 258.034C2.71058 257.999 2.71058 257.964 2.67595 257.929C2.64131 257.862 2.64131 257.792 2.60697 257.722C2.60697 257.688 2.60697 257.653 2.57234 257.621C2.57234 257.586 2.57233 257.551 2.5377 257.516C2.5377 257.446 2.50306 257.376 2.50306 257.341C2.50306 257.309 2.50306 257.274 2.46842 257.239C2.46842 257.204 2.46843 257.169 2.43409 257.135C2.43409 257.065 2.39944 257.033 2.39944 256.963C2.39944 256.928 2.39944 256.893 2.39944 256.858C2.39944 256.823 2.39944 256.756 2.39944 256.721C2.39944 256.651 2.39944 256.616 2.39944 256.547C2.39944 256.512 2.39944 256.512 2.39944 256.477C2.39944 256.41 2.39944 256.34 2.39944 256.27C2.39944 256.235 2.39944 256.2 2.39944 256.168V256.133C2.39944 255.994 2.39944 255.892 2.39944 255.752C2.39944 255.752 2.39944 255.752 2.39944 255.717L2.22656 189.607C2.22656 189.607 2.22656 189.503 2.22656 189.4Z" fill="url(#paint15_linear_1761_22097)" stroke="#A5D4D2" stroke-width="2" stroke-miterlimit="10"/>
<path d="M26.8819 186.045C22.5595 188.534 19.0672 194.585 19.1018 199.564L19.2747 265.676C19.2747 270.653 22.8016 272.623 27.1237 270.135L94.1351 231.444C98.4572 228.954 101.95 222.903 101.915 217.924L101.742 151.814C101.742 146.835 98.2154 144.864 93.8933 147.353L26.8819 186.045Z" fill="url(#paint16_linear_1761_22097)" stroke="#A5D4D2" stroke-width="2" stroke-miterlimit="10"/>
<path d="M236.076 54.3773C236.076 54.3426 236.076 54.3426 236.076 54.3083C236.076 54.2737 236.076 54.2044 236.076 54.1698C236.076 54.1008 236.076 54.0662 236.076 53.9969C236.076 53.9625 236.076 53.9279 236.076 53.8586C236.076 53.824 236.076 53.755 236.076 53.7204C236.076 53.6858 236.076 53.6511 236.076 53.6168C236.076 53.5475 236.076 53.4782 236.111 53.4093C236.111 53.3746 236.111 53.34 236.111 53.271V53.2364C236.111 53.0981 236.146 52.9596 236.181 52.856C236.181 52.8213 236.181 52.8213 236.181 52.7867C236.213 52.6831 236.213 52.5795 236.248 52.4409C236.248 52.4066 236.248 52.4066 236.248 52.372C236.248 52.3027 236.283 52.268 236.283 52.1991C236.283 52.1298 236.318 52.0608 236.318 51.9915C236.318 51.9569 236.318 51.9223 236.353 51.8879C236.353 51.8187 236.388 51.784 236.388 51.715C236.388 51.6804 236.423 51.6111 236.423 51.5765C236.423 51.5075 236.457 51.4729 236.457 51.4036C236.457 51.3346 236.492 51.3 236.492 51.2307C236.492 51.1964 236.492 51.1618 236.524 51.1618C236.559 51.0925 236.559 51.0235 236.594 50.9196C236.594 50.885 236.629 50.816 236.629 50.7814V50.7467C236.664 50.6085 236.699 50.4702 236.769 50.332V50.2973C236.801 50.1934 236.836 50.0552 236.906 49.9516C236.906 49.9169 236.906 49.9169 236.941 49.8823C236.941 49.8477 236.976 49.7787 236.976 49.7441C237.01 49.6748 237.01 49.6058 237.045 49.5365C237.045 49.5019 237.077 49.4676 237.077 49.3983C237.112 49.3637 237.112 49.2947 237.147 49.26C237.147 49.2254 237.182 49.1908 237.182 49.1561C237.217 49.0872 237.252 49.0179 237.287 48.9489C237.287 48.9143 237.322 48.8796 237.322 48.845C237.322 48.845 237.322 48.8104 237.357 48.8104C237.424 48.6721 237.459 48.5685 237.529 48.4303C237.529 48.3956 237.563 48.361 237.563 48.3264C237.598 48.2227 237.665 48.1188 237.7 48.0152C237.7 48.0152 237.7 47.9806 237.735 47.9806C237.77 47.9116 237.805 47.8423 237.84 47.7387C237.875 47.6695 237.91 47.6002 237.942 47.5312C237.942 47.5312 237.942 47.4966 237.977 47.4966C238.082 47.289 238.186 47.0815 238.323 46.9086L238.358 46.8743C238.358 46.8397 238.393 46.8397 238.393 46.805C238.565 46.5285 238.739 46.2517 238.911 45.9753L238.946 45.9406C238.946 45.906 238.981 45.906 238.981 45.8713C239.118 45.6641 239.257 45.4566 239.429 45.2491C239.534 45.1108 239.639 44.9726 239.74 44.834C239.74 44.834 239.74 44.834 239.74 44.7997C239.81 44.6958 239.915 44.5922 239.982 44.4883C240.017 44.4539 240.017 44.4539 240.052 44.4193C240.157 44.3154 240.259 44.1771 240.363 44.0735C240.398 44.0389 240.433 44.0043 240.468 43.9696C240.538 43.9006 240.605 43.8314 240.675 43.7624L240.71 43.7278C240.745 43.6931 240.814 43.6238 240.846 43.5895C240.881 43.5549 240.951 43.4856 240.986 43.451C241.021 43.4166 241.021 43.4166 241.056 43.382C241.091 43.3474 241.158 43.2781 241.193 43.2437C241.228 43.2091 241.263 43.1745 241.333 43.1052C241.367 43.0709 241.367 43.0709 241.402 43.0362C241.469 43.0016 241.504 42.9323 241.574 42.898C241.609 42.8633 241.644 42.8287 241.679 42.7941C241.711 42.7594 241.746 42.7594 241.781 42.7251C241.851 42.6905 241.886 42.6212 241.955 42.5866C241.987 42.5522 242.022 42.5176 242.057 42.5176C242.092 42.4829 242.127 42.4483 242.162 42.4137C242.232 42.3793 242.267 42.3101 242.334 42.2754C242.369 42.2408 242.404 42.2408 242.404 42.2064C242.439 42.1718 242.508 42.1372 242.543 42.1025C242.575 42.0679 242.645 42.0336 242.68 41.9989C242.715 41.9989 242.715 41.9643 242.75 41.9643C242.82 41.9297 242.887 41.8607 242.922 41.826C242.957 41.7914 242.992 41.7568 243.061 41.7224C243.061 41.7224 243.096 41.7224 243.096 41.6878C243.198 41.6185 243.303 41.5493 243.44 41.4803C243.44 41.4803 243.44 41.4803 243.475 41.4803C243.579 41.411 243.684 41.342 243.786 41.3074C243.821 41.3074 243.821 41.2727 243.856 41.2727L310.867 2.54707C310.937 2.51243 311.039 2.44316 311.109 2.40853C311.144 2.40853 311.179 2.37418 311.214 2.37418C311.249 2.33955 311.284 2.33955 311.35 2.30491C311.385 2.30491 311.42 2.27028 311.455 2.27028C311.525 2.23564 311.56 2.23564 311.627 2.2013C311.662 2.16666 311.697 2.16667 311.732 2.13203C311.732 2.13203 311.767 2.13203 311.767 2.0974C311.871 2.06276 311.973 1.99378 312.078 1.95914C312.18 1.92451 312.285 1.88987 312.39 1.85553H312.424C312.456 1.85553 312.491 1.8209 312.526 1.8209C312.596 1.78626 312.631 1.78626 312.701 1.75163C312.736 1.75163 312.768 1.75163 312.768 1.71699C312.803 1.71699 312.873 1.68265 312.908 1.68265C312.943 1.68265 312.977 1.64801 313.012 1.64801C313.044 1.64801 313.079 1.64801 313.114 1.61338C313.149 1.61338 313.219 1.57874 313.254 1.57874C313.289 1.57874 313.289 1.57874 313.321 1.57874C313.356 1.57874 313.391 1.57874 313.461 1.54411C313.53 1.54411 313.565 1.50977 313.632 1.50977C313.667 1.50977 313.667 1.50977 313.702 1.50977C313.737 1.50977 313.772 1.50977 313.842 1.50977C313.909 1.50977 313.944 1.50977 314.014 1.50977H314.049C314.083 1.50977 314.118 1.50977 314.153 1.50977C314.22 1.50977 314.29 1.50977 314.36 1.50977C314.395 1.50977 314.395 1.50977 314.43 1.50977C314.465 1.50977 314.497 1.50977 314.497 1.50977C314.567 1.50977 314.671 1.50977 314.741 1.50977C314.773 1.50977 314.773 1.50977 314.808 1.50977C314.843 1.50977 314.843 1.50977 314.878 1.50977C315.018 1.50977 315.12 1.54411 315.259 1.57874H315.294C315.329 1.57874 315.329 1.57874 315.361 1.61338C315.431 1.61338 315.501 1.64801 315.571 1.68265C315.606 1.68265 315.638 1.71699 315.673 1.71699C315.708 1.71699 315.777 1.75163 315.812 1.75163H315.847C315.917 1.78626 315.984 1.8209 316.054 1.8209C316.089 1.8209 316.124 1.85553 316.159 1.85553C316.261 1.88987 316.365 1.95915 316.435 1.99378L333.307 11.8135C333.205 11.7443 333.101 11.7099 333.031 11.6753C332.996 11.6753 332.961 11.6406 332.929 11.6406C332.859 11.606 332.789 11.5714 332.719 11.5714C332.652 11.537 332.618 11.537 332.548 11.5024C332.513 11.5024 332.478 11.4678 332.443 11.4678C332.376 11.4331 332.306 11.4331 332.236 11.3985C332.201 11.3985 332.201 11.3985 332.166 11.3985H332.131C332.03 11.3641 331.89 11.3641 331.753 11.3295C331.718 11.3295 331.683 11.3295 331.613 11.3295C331.544 11.3295 331.442 11.3295 331.372 11.3295C331.337 11.3295 331.267 11.3295 331.232 11.3295C331.165 11.3295 331.095 11.3295 331.025 11.3295C330.956 11.3295 330.924 11.3295 330.854 11.3295C330.784 11.3295 330.749 11.3295 330.679 11.3295C330.612 11.3295 330.542 11.3295 330.507 11.3641C330.438 11.3641 330.403 11.3641 330.336 11.3985C330.266 11.3985 330.196 11.4331 330.126 11.4331C330.091 11.4331 330.024 11.4678 329.989 11.4678C329.919 11.4678 329.85 11.5024 329.783 11.537C329.748 11.537 329.678 11.5714 329.643 11.5714C329.573 11.606 329.471 11.606 329.401 11.6406C329.367 11.6406 329.332 11.6753 329.297 11.6753C329.195 11.7099 329.055 11.7443 328.95 11.8135C328.848 11.8482 328.709 11.9171 328.607 11.9518C328.572 11.9518 328.537 11.9864 328.502 12.021C328.432 12.0554 328.33 12.09 328.261 12.1593C328.226 12.1939 328.191 12.1939 328.121 12.2283C328.019 12.2975 327.879 12.3668 327.774 12.4012L260.763 51.0925C260.626 51.1618 260.521 51.2307 260.385 51.3346C260.385 51.3346 260.385 51.3346 260.35 51.3346C260.21 51.4036 260.108 51.5075 259.968 51.5765C259.934 51.6111 259.899 51.6458 259.832 51.6804C259.762 51.7494 259.657 51.784 259.59 51.8533C259.555 51.8879 259.485 51.9223 259.45 51.9569C259.381 52.0262 259.314 52.0608 259.244 52.1298C259.174 52.1644 259.139 52.1991 259.069 52.268C259.002 52.3373 258.932 52.372 258.863 52.4409C258.793 52.4756 258.758 52.5448 258.691 52.5795C258.621 52.6484 258.551 52.6831 258.481 52.7524C258.414 52.7867 258.379 52.856 258.31 52.8906C258.24 52.9596 258.17 53.0288 258.103 53.0981C258.068 53.1325 257.998 53.2017 257.963 53.2364C257.893 53.3053 257.826 53.3746 257.757 53.4439C257.722 53.4782 257.652 53.5475 257.617 53.5821C257.55 53.6511 257.445 53.755 257.375 53.824C257.34 53.8586 257.305 53.8933 257.273 53.9279C257.169 54.0662 257.064 54.1698 256.962 54.3083C256.962 54.3426 256.927 54.3426 256.927 54.3773C256.822 54.4812 256.752 54.5848 256.65 54.6884C256.546 54.8267 256.441 54.9652 256.339 55.1035C256.199 55.311 256.028 55.5182 255.888 55.7257C255.853 55.7604 255.821 55.795 255.821 55.8296C255.646 56.1061 255.475 56.3826 255.3 56.6594C255.268 56.694 255.268 56.7284 255.233 56.763C255.128 56.9705 254.989 57.1781 254.887 57.3509C254.852 57.4199 254.817 57.4892 254.782 57.5928C254.747 57.6621 254.712 57.7313 254.68 57.835C254.61 57.9386 254.575 58.0771 254.505 58.1807C254.505 58.2154 254.471 58.25 254.471 58.2843C254.404 58.4229 254.334 58.5611 254.264 58.734C254.264 58.7687 254.229 58.803 254.229 58.8376C254.194 58.9415 254.124 59.0451 254.092 59.1488C254.057 59.1834 254.057 59.2527 254.022 59.2873C253.987 59.3909 253.952 59.4945 253.883 59.5984C253.883 59.6331 253.848 59.702 253.848 59.7367C253.816 59.8749 253.746 60.0132 253.711 60.1517V60.1861C253.676 60.3246 253.606 60.4975 253.571 60.6357C253.571 60.6704 253.536 60.7393 253.536 60.774C253.504 60.8776 253.469 60.9815 253.434 61.0851C253.434 61.1544 253.399 61.189 253.399 61.258C253.365 61.3619 253.365 61.4655 253.33 61.5348C253.33 61.6038 253.295 61.6384 253.295 61.7077C253.26 61.8113 253.26 61.9149 253.228 62.0188C253.228 62.0878 253.193 62.1224 253.193 62.1917C253.158 62.3299 253.158 62.4682 253.123 62.5721C253.123 62.6064 253.123 62.6064 253.123 62.6411C253.088 62.7793 253.088 62.9522 253.053 63.0907C253.053 63.1251 253.053 63.1597 253.053 63.229C253.053 63.3326 253.018 63.4365 253.018 63.5401C253.018 63.5748 253.018 63.6437 253.018 63.6784C253.018 63.7823 253.018 63.8859 252.983 63.9895C252.983 64.0241 252.983 64.0934 252.983 64.128C252.983 64.2663 252.983 64.4045 252.983 64.5428L253.158 130.653C253.158 130.792 253.158 130.93 253.158 131.068C253.158 131.103 253.158 131.137 253.158 131.172C253.158 131.276 253.158 131.38 253.193 131.449C253.193 131.518 253.193 131.552 253.193 131.621C253.193 131.691 253.228 131.794 253.228 131.864C253.228 131.933 253.228 131.967 253.26 132.036C253.26 132.105 253.295 132.175 253.295 132.244C253.295 132.313 253.33 132.382 253.33 132.417C253.33 132.486 253.365 132.555 253.365 132.59C253.399 132.659 253.399 132.728 253.434 132.797C253.434 132.866 253.469 132.901 253.469 132.97C253.504 133.039 253.536 133.143 253.536 133.212C253.536 133.247 253.571 133.316 253.571 133.35C253.641 133.489 253.676 133.627 253.746 133.731C253.781 133.834 253.848 133.938 253.883 134.007C253.918 134.111 253.987 134.18 254.057 134.284C254.124 134.422 254.229 134.526 254.299 134.63C254.334 134.664 254.334 134.699 254.369 134.699C254.436 134.803 254.54 134.906 254.645 135.01C254.645 135.01 254.645 135.01 254.68 135.044C254.782 135.148 254.887 135.217 254.989 135.321C255.024 135.356 255.058 135.356 255.058 135.39C255.163 135.459 255.268 135.563 255.405 135.632L238.53 125.813C238.428 125.743 238.288 125.674 238.186 125.57C238.151 125.536 238.116 125.536 238.116 125.502C238.012 125.432 237.91 125.329 237.805 125.225C237.805 125.225 237.805 125.225 237.77 125.19C237.665 125.086 237.598 124.983 237.494 124.879C237.459 124.845 237.459 124.81 237.424 124.81C237.322 124.706 237.252 124.568 237.182 124.464C237.112 124.395 237.077 124.291 237.045 124.187C237.01 124.084 236.941 124.015 236.906 123.911C236.836 123.773 236.801 123.634 236.734 123.531V123.496C236.734 123.462 236.699 123.427 236.699 123.392C236.664 123.323 236.629 123.219 236.629 123.15C236.629 123.116 236.629 123.116 236.594 123.081C236.594 123.046 236.594 123.012 236.559 122.977C236.524 122.908 236.524 122.839 236.492 122.77C236.492 122.735 236.492 122.701 236.457 122.666C236.457 122.631 236.457 122.597 236.423 122.562C236.423 122.493 236.388 122.424 236.388 122.39C236.388 122.355 236.388 122.32 236.353 122.286C236.353 122.251 236.353 122.217 236.318 122.182C236.318 122.113 236.283 122.078 236.283 122.009C236.283 121.975 236.283 121.94 236.283 121.906C236.283 121.871 236.283 121.802 236.283 121.767C236.283 121.698 236.283 121.663 236.283 121.594C236.283 121.56 236.283 121.56 236.283 121.525C236.283 121.456 236.283 121.387 236.283 121.318C236.283 121.283 236.283 121.248 236.283 121.214V121.179C236.283 121.041 236.283 120.937 236.283 120.799C236.283 120.799 236.283 120.799 236.283 120.764L236.076 54.7231C236.076 54.6194 236.076 54.5155 236.076 54.3773Z" fill="url(#paint17_linear_1761_22097)" stroke="#A5D4D2" stroke-width="2" stroke-miterlimit="10"/>
<path d="M260.731 51.0232C256.409 53.5125 252.917 59.5635 252.951 64.5425L253.123 130.653C253.123 135.632 256.651 137.603 260.973 135.113L327.984 96.4224C332.306 93.9327 335.799 87.8818 335.764 82.9028L335.592 16.7922C335.592 11.8132 332.065 9.84249 327.743 12.3318L260.731 51.0232Z" fill="url(#paint18_linear_1761_22097)" stroke="#A5D4D2" stroke-width="2" stroke-miterlimit="10"/>
<path d="M118.926 122.355C118.926 122.252 118.926 122.113 118.926 122.009C118.926 121.975 118.926 121.975 118.926 121.94C118.926 121.906 118.926 121.837 118.926 121.802C118.926 121.733 118.926 121.698 118.926 121.629C118.926 121.594 118.926 121.525 118.926 121.491C118.926 121.456 118.926 121.387 118.926 121.353C118.926 121.318 118.926 121.283 118.926 121.249C118.926 121.18 118.926 121.11 118.96 121.041C118.96 121.007 118.96 120.972 118.96 120.903V120.869C118.96 120.73 118.995 120.592 119.029 120.488C119.029 120.454 119.029 120.454 119.029 120.419C119.064 120.315 119.064 120.211 119.099 120.073C119.099 120.038 119.099 120.038 119.099 120.004C119.099 119.97 119.133 119.9 119.133 119.831C119.133 119.762 119.168 119.693 119.168 119.624C119.168 119.589 119.168 119.554 119.202 119.52C119.202 119.451 119.237 119.416 119.237 119.347C119.237 119.313 119.272 119.243 119.272 119.209C119.272 119.14 119.306 119.105 119.306 119.036C119.306 118.967 119.341 118.932 119.341 118.863C119.341 118.828 119.341 118.794 119.375 118.794C119.41 118.725 119.41 118.655 119.444 118.552C119.444 118.517 119.479 118.448 119.479 118.414V118.379C119.513 118.241 119.548 118.102 119.617 117.964V117.93C119.652 117.826 119.686 117.687 119.756 117.584C119.756 117.549 119.756 117.549 119.79 117.515C119.79 117.48 119.825 117.411 119.825 117.376C119.859 117.307 119.859 117.238 119.894 117.169C119.894 117.134 119.928 117.099 119.928 117.03C119.963 116.996 119.963 116.927 119.997 116.892C119.997 116.858 120.032 116.823 120.032 116.788C120.067 116.719 120.101 116.65 120.136 116.581C120.136 116.546 120.17 116.512 120.17 116.477C120.17 116.477 120.171 116.443 120.205 116.443C120.274 116.304 120.309 116.201 120.378 116.062C120.378 116.028 120.412 115.993 120.412 115.959C120.447 115.855 120.516 115.751 120.551 115.682C120.551 115.682 120.551 115.647 120.585 115.647C120.62 115.578 120.655 115.475 120.689 115.405C120.724 115.336 120.758 115.267 120.793 115.232C120.793 115.232 120.793 115.198 120.828 115.198C120.931 114.991 121.035 114.783 121.173 114.61L121.208 114.575C121.208 114.541 121.242 114.541 121.242 114.506C121.415 114.23 121.588 113.953 121.761 113.676L121.796 113.642C121.796 113.607 121.83 113.607 121.83 113.573C121.968 113.365 122.107 113.158 122.28 112.95C122.383 112.812 122.487 112.674 122.626 112.501C122.626 112.501 122.626 112.501 122.626 112.466C122.695 112.363 122.799 112.259 122.867 112.155C122.867 112.12 122.902 112.12 122.902 112.086C123.006 111.982 123.11 111.844 123.213 111.74C123.248 111.706 123.283 111.671 123.317 111.636C123.386 111.567 123.455 111.498 123.524 111.429L123.559 111.394C123.594 111.36 123.663 111.291 123.697 111.256C123.732 111.221 123.801 111.152 123.836 111.118C123.87 111.083 123.87 111.083 123.905 111.049C123.939 111.014 124.009 110.945 124.043 110.91C124.078 110.876 124.112 110.841 124.182 110.772C124.216 110.737 124.216 110.737 124.251 110.703C124.32 110.668 124.354 110.599 124.423 110.565C124.458 110.53 124.493 110.496 124.527 110.461C124.562 110.426 124.596 110.426 124.631 110.392C124.7 110.357 124.735 110.288 124.804 110.253C124.838 110.219 124.873 110.184 124.907 110.184C124.942 110.15 124.977 110.115 125.011 110.08C125.08 110.046 125.115 109.977 125.184 109.942C125.219 109.908 125.254 109.908 125.254 109.873C125.288 109.838 125.357 109.804 125.392 109.769C125.426 109.735 125.495 109.7 125.53 109.665C125.565 109.665 125.565 109.631 125.599 109.631C125.668 109.596 125.738 109.527 125.772 109.493C125.807 109.458 125.841 109.424 125.91 109.389C125.91 109.389 125.945 109.389 125.945 109.354C126.049 109.285 126.152 109.216 126.291 109.147C126.291 109.147 126.291 109.147 126.325 109.147C126.429 109.078 126.533 109.009 126.637 108.974C126.671 108.974 126.671 108.94 126.706 108.94L193.717 70.2482C193.786 70.2136 193.89 70.1446 193.959 70.11C193.993 70.11 194.028 70.0754 194.063 70.0754C194.097 70.0407 194.132 70.0407 194.201 70.0061C194.236 70.0061 194.27 69.9717 194.305 69.9717C194.374 69.9371 194.408 69.9371 194.478 69.9025C194.512 69.8678 194.547 69.8678 194.581 69.8332C194.581 69.8332 194.616 69.8332 194.616 69.7989C194.72 69.7642 194.824 69.695 194.927 69.6603C195.031 69.626 195.135 69.5913 195.238 69.5567H195.272C195.307 69.5567 195.342 69.5221 195.377 69.5221C195.447 69.4874 195.479 69.4874 195.549 69.4531C195.584 69.4531 195.619 69.4531 195.619 69.4185C195.654 69.4185 195.723 69.3838 195.758 69.3838C195.79 69.3838 195.825 69.3492 195.86 69.3492C195.895 69.3492 195.93 69.3492 195.965 69.3146C196 69.3146 196.067 69.2802 196.102 69.2802C196.137 69.2802 196.137 69.2802 196.172 69.2802C196.207 69.2802 196.242 69.2802 196.311 69.2456C196.378 69.2456 196.413 69.2109 196.483 69.2109C196.518 69.2109 196.518 69.2109 196.553 69.2109C196.588 69.2109 196.655 69.2109 196.69 69.2109C196.76 69.2109 196.795 69.2109 196.864 69.2109H196.899C196.931 69.2109 196.966 69.2109 197.001 69.2109C197.071 69.2109 197.141 69.2109 197.211 69.2109C197.243 69.2109 197.243 69.2109 197.278 69.2109C197.313 69.2109 197.348 69.2109 197.348 69.2109C197.417 69.2109 197.519 69.2109 197.589 69.2109C197.624 69.2109 197.624 69.2109 197.659 69.2109C197.694 69.2109 197.694 69.2109 197.729 69.2109C197.866 69.2109 197.97 69.2456 198.107 69.2802H198.142C198.177 69.2802 198.177 69.2802 198.212 69.2802C198.282 69.2802 198.352 69.3146 198.419 69.3492C198.454 69.3492 198.488 69.3838 198.523 69.3838C198.558 69.3838 198.628 69.4185 198.66 69.4185H198.695C198.765 69.4531 198.835 69.4874 198.905 69.4874C198.94 69.4874 198.972 69.5221 199.006 69.5221C199.111 69.5567 199.216 69.626 199.283 69.6603L216.158 79.4801C216.053 79.4111 215.951 79.3765 215.882 79.3418C215.847 79.3418 215.812 79.3072 215.777 79.3072C215.707 79.2728 215.64 79.2382 215.57 79.2382C215.5 79.2036 215.465 79.2036 215.398 79.1689C215.364 79.1689 215.329 79.1343 215.294 79.1343C215.224 79.1 215.154 79.1 215.087 79.0653C215.052 79.0653 215.052 79.0653 215.017 79.0653H214.982C214.877 79.0307 214.741 79.0307 214.601 78.9961C214.566 78.9961 214.534 78.9961 214.464 78.9961C214.394 78.9961 214.29 78.9961 214.223 78.9961C214.188 78.9961 214.118 78.9961 214.083 78.9961C214.013 78.9961 213.946 78.9961 213.876 78.9961C213.806 78.9961 213.771 78.9961 213.702 78.9961C213.635 78.9961 213.6 78.9961 213.53 78.9961C213.46 78.9961 213.39 78.996 213.358 79.0307C213.288 79.0307 213.253 79.0307 213.184 79.0653C213.114 79.0653 213.047 79.1 212.977 79.1C212.942 79.1 212.872 79.1343 212.837 79.1343C212.77 79.1343 212.7 79.1689 212.631 79.2036C212.596 79.2036 212.526 79.2382 212.494 79.2382C212.424 79.2728 212.319 79.2728 212.249 79.3072C212.217 79.3072 212.182 79.3418 212.147 79.3418C212.043 79.3765 211.906 79.4111 211.801 79.4801C211.696 79.5147 211.56 79.584 211.455 79.6186C211.42 79.6186 211.385 79.6529 211.353 79.6876C211.283 79.7222 211.178 79.7569 211.108 79.8258C211.076 79.8605 211.041 79.8605 210.972 79.8951C210.867 79.9644 210.73 80.0334 210.625 80.068L143.579 118.655C143.441 118.725 143.337 118.794 143.199 118.898C143.199 118.898 143.199 118.898 143.164 118.898C143.026 118.967 142.923 119.07 142.784 119.14C142.75 119.174 142.715 119.209 142.646 119.243C142.577 119.313 142.473 119.347 142.404 119.416C142.369 119.451 142.3 119.485 142.265 119.52C142.196 119.589 142.127 119.624 142.058 119.693C141.989 119.727 141.954 119.762 141.885 119.831C141.816 119.9 141.747 119.935 141.678 120.004C141.608 120.038 141.574 120.108 141.505 120.142C141.436 120.211 141.367 120.246 141.297 120.315C141.228 120.35 141.194 120.419 141.124 120.454C141.055 120.523 140.986 120.592 140.917 120.661C140.882 120.696 140.813 120.765 140.779 120.799C140.709 120.869 140.64 120.938 140.571 121.007C140.537 121.041 140.468 121.11 140.433 121.145C140.364 121.214 140.295 121.318 140.191 121.387C140.156 121.422 140.122 121.456 140.087 121.491C139.984 121.629 139.88 121.733 139.776 121.871C139.776 121.906 139.741 121.906 139.741 121.94C139.637 122.044 139.569 122.148 139.465 122.286C139.361 122.424 139.257 122.563 139.119 122.736C138.981 122.943 138.808 123.15 138.669 123.358C138.635 123.393 138.6 123.427 138.6 123.462C138.427 123.738 138.254 124.015 138.082 124.292C138.047 124.326 138.047 124.361 138.013 124.395C137.909 124.603 137.77 124.81 137.667 124.983C137.632 125.052 137.598 125.121 137.563 125.19C137.529 125.26 137.494 125.363 137.459 125.433C137.39 125.536 137.355 125.64 137.286 125.778C137.286 125.813 137.252 125.848 137.217 125.882C137.148 126.02 137.079 126.159 137.01 126.332C137.01 126.366 136.975 126.401 136.975 126.435C136.941 126.539 136.871 126.643 136.837 126.746C136.802 126.781 136.802 126.85 136.768 126.885C136.733 126.988 136.698 127.092 136.629 127.196C136.629 127.231 136.595 127.3 136.595 127.334C136.56 127.472 136.491 127.611 136.457 127.749V127.784C136.422 127.922 136.353 128.095 136.318 128.233C136.318 128.268 136.284 128.337 136.284 128.372C136.249 128.475 136.214 128.579 136.18 128.683C136.18 128.752 136.145 128.787 136.145 128.856C136.111 128.959 136.111 129.063 136.076 129.132C136.076 129.201 136.042 129.236 136.042 129.305C136.007 129.409 136.007 129.512 135.972 129.616C135.972 129.685 135.938 129.72 135.938 129.789C135.903 129.927 135.903 130.031 135.869 130.17C135.869 130.204 135.869 130.204 135.869 130.239C135.834 130.377 135.834 130.55 135.799 130.688C135.799 130.723 135.799 130.757 135.799 130.827C135.799 130.93 135.765 131.034 135.765 131.138C135.765 131.172 135.765 131.241 135.765 131.276C135.765 131.38 135.765 131.483 135.73 131.587C135.73 131.622 135.73 131.691 135.73 131.726C135.73 131.864 135.73 132.002 135.73 132.14L135.903 198.251C135.903 198.389 135.903 198.527 135.903 198.666C135.903 198.7 135.903 198.735 135.903 198.77C135.903 198.873 135.903 198.977 135.938 199.046C135.938 199.115 135.938 199.15 135.938 199.219C135.938 199.288 135.972 199.392 135.972 199.461C135.972 199.53 135.972 199.565 136.007 199.634C136.007 199.703 136.042 199.772 136.042 199.842C136.042 199.911 136.076 199.98 136.076 200.014C136.076 200.083 136.111 200.153 136.111 200.187C136.145 200.256 136.145 200.326 136.18 200.395C136.18 200.464 136.214 200.498 136.214 200.567C136.249 200.637 136.284 200.74 136.284 200.81C136.284 200.844 136.318 200.913 136.318 200.948C136.387 201.086 136.422 201.225 136.491 201.328C136.526 201.432 136.595 201.536 136.629 201.605C136.664 201.709 136.733 201.778 136.802 201.882C136.871 202.02 136.975 202.123 137.044 202.227C137.079 202.262 137.079 202.296 137.114 202.296C137.182 202.4 137.286 202.504 137.39 202.608C137.39 202.608 137.39 202.608 137.425 202.642C137.529 202.746 137.632 202.815 137.736 202.919C137.77 202.953 137.805 202.953 137.805 202.988C137.909 203.057 138.013 203.161 138.151 203.23L121.277 193.41C121.173 193.341 121.035 193.272 120.931 193.168C120.896 193.134 120.862 193.134 120.862 193.099C120.758 193.03 120.655 192.926 120.551 192.822C120.551 192.822 120.551 192.822 120.516 192.788C120.412 192.684 120.343 192.58 120.24 192.477C120.205 192.442 120.205 192.408 120.17 192.408C120.067 192.304 119.998 192.165 119.928 192.062C119.859 191.993 119.825 191.889 119.79 191.82C119.756 191.716 119.686 191.647 119.652 191.543C119.583 191.405 119.548 191.266 119.479 191.163V191.128C119.479 191.093 119.444 191.059 119.444 191.024C119.41 190.955 119.375 190.852 119.375 190.782C119.375 190.748 119.375 190.748 119.341 190.713C119.341 190.679 119.341 190.644 119.306 190.609C119.272 190.54 119.272 190.471 119.237 190.402C119.237 190.368 119.237 190.333 119.202 190.298C119.202 190.264 119.202 190.229 119.168 190.195C119.168 190.125 119.133 190.056 119.133 190.022C119.133 189.987 119.133 189.953 119.099 189.918C119.099 189.883 119.099 189.849 119.064 189.814C119.064 189.745 119.029 189.71 119.029 189.641C119.029 189.607 119.029 189.572 119.029 189.537C119.029 189.503 119.029 189.434 119.029 189.399C119.029 189.33 119.029 189.296 119.029 189.226C119.029 189.192 119.029 189.192 119.029 189.157C119.029 189.088 119.029 189.019 119.029 188.95C119.029 188.915 119.029 188.881 119.029 188.846V188.812C119.029 188.673 119.029 188.569 119.029 188.431C119.029 188.431 119.029 188.431 119.029 188.397L118.926 122.355Z" fill="url(#paint19_linear_1761_22097)" stroke="#A5D4D2" stroke-width="2" stroke-miterlimit="10"/>
<path d="M143.581 118.655C139.259 121.144 135.766 127.195 135.801 132.174L135.974 198.285C135.974 203.264 139.501 205.234 143.823 202.745L210.836 164.054C215.158 161.564 218.648 155.513 218.616 150.534L218.441 84.4582C218.441 79.4792 214.913 77.5085 210.591 79.9979L143.581 118.655Z" fill="url(#paint20_linear_1761_22097)" stroke="#A5D4D2" stroke-width="2" stroke-miterlimit="10"/>
<g opacity="0.6">
<path d="M305.781 58.2842V49.7437C305.781 48.0495 304.57 47.3579 303.083 48.1877L293.679 53.6164C292.192 54.4808 290.981 56.5554 290.981 58.2842V66.8245L285.623 69.9364V61.3961C285.623 56.2786 289.252 50.0548 293.679 47.4962L303.083 42.0678C307.545 39.5092 311.139 41.5491 311.139 46.6664V55.207L305.781 58.2842Z" fill="#A5D4D2"/>
<path d="M284.377 105.344L312.35 89.1967C315.359 87.4679 317.813 82.7654 317.813 78.7198V58.5963C317.813 54.5507 315.359 52.7182 312.35 54.4471L284.377 70.5942C281.371 72.3231 278.914 77.0256 278.914 81.0712V101.195C278.914 105.24 281.371 107.073 284.377 105.344Z" fill="#A5D4D2"/>
<path d="M294.197 79.9283C294.197 77.1622 296.238 73.7738 298.659 72.5636C300.699 71.5263 302.393 72.4253 302.565 74.6728C302.705 76.4017 301.977 78.4416 300.801 80.0668C300.56 80.4126 300.423 80.8274 300.458 81.1731L300.871 87.0858C300.906 87.6391 300.525 88.3653 300.007 88.6418L296.791 90.5089C296.272 90.7854 295.891 90.5435 295.926 89.9209L296.342 83.5245C296.377 83.1788 296.238 82.902 295.996 82.8673C294.89 82.5908 294.197 81.5535 294.197 79.9283Z" fill="url(#paint21_linear_1761_22097)"/>
<path d="M284.829 105.653C285.105 105.48 285.347 105.1 285.347 104.789C285.347 104.477 285.105 104.339 284.829 104.512C281.854 106.241 279.433 104.858 279.433 101.435V80.2739C279.433 79.9628 279.191 79.8243 278.915 79.9971C278.638 80.17 278.396 80.5504 278.396 80.8616V102.023C278.396 106.068 281.266 107.693 284.829 105.653Z" fill="url(#paint22_linear_1761_22097)"/>
</g>
<path opacity="0.6" d="M171.69 142.652L170.964 144.45C170.515 145.591 171.068 146.386 171.967 145.868L174.387 144.45V147.735C174.387 147.942 174.318 148.219 174.18 148.426L172.935 150.674C172.658 151.158 172.658 151.676 172.935 151.849L174.664 152.921C174.941 153.094 174.941 153.647 174.629 154.166L172.658 157.416C172.52 157.658 172.416 157.935 172.416 158.177V159.698C172.416 159.94 172.486 160.113 172.624 160.182L174.664 161.393C174.941 161.565 174.941 162.084 174.664 162.568L173.73 164.262C173.592 164.504 173.523 164.746 173.523 164.989V167.374C173.523 167.582 173.592 167.72 173.696 167.824C173.696 167.824 175.805 169.518 176.497 170.071C177.05 169.656 177.188 170.624 177.188 170.624L177.223 170.659C177.361 170.763 177.568 170.694 177.741 170.486C178.087 170.14 178.64 169.449 179.436 168.204C180.715 166.164 180.784 164.47 180.784 164.47V140.508L183.274 139.056C184.242 138.503 184.795 136.843 184.138 136.359L183.274 135.737C182.963 135.495 183.066 134.838 183.447 134.319C186.939 129.928 189.29 124.292 189.29 119.416C189.29 111.982 183.862 109.078 177.188 112.95C170.515 116.823 165.086 125.986 165.086 133.42C165.086 138.468 167.61 141.442 171.31 141.615C171.794 141.649 171.898 142.099 171.69 142.652ZM175.183 121.94C175.183 120.385 176.289 118.448 177.672 117.688C179.055 116.892 180.162 117.515 180.162 119.105C180.162 120.661 179.055 122.598 177.672 123.358C176.289 124.119 175.183 123.496 175.183 121.94Z" fill="#A5D4D2"/>
<path d="M176.602 170.104L177.293 170.658C177.397 170.52 177.431 170.347 177.431 170.208L177.708 136.946C177.708 136.669 177.535 136.565 177.293 136.704C177.051 136.842 176.878 137.153 176.878 137.43L176.602 170.104Z" fill="url(#paint23_linear_1761_22097)"/>
<path d="M177.327 171.246C177.431 171.177 177.569 171.073 177.638 170.935C177.846 170.624 177.88 170.243 177.707 170.071L174.18 167.27C174.146 167.235 174.112 167.201 174.112 167.132V164.746C174.112 164.677 174.146 164.573 174.18 164.504L175.114 162.809C175.564 161.98 175.564 161.115 175.08 160.839L173.04 159.629C173.005 159.594 172.97 159.559 172.97 159.456V157.934C172.97 157.865 173.005 157.761 173.04 157.692L175.011 154.442C175.252 154.027 175.391 153.578 175.391 153.197C175.391 152.817 175.287 152.506 175.045 152.367L173.316 151.295C173.212 151.226 173.212 151.054 173.316 150.915L174.561 148.668C174.768 148.287 174.907 147.872 174.907 147.492V144.207C174.907 143.896 174.665 143.758 174.388 143.931L171.968 145.348C171.725 145.487 171.518 145.452 171.414 145.314C171.345 145.245 171.241 145.003 171.414 144.553L172.141 142.755C172.313 142.306 172.348 141.891 172.279 141.58C172.175 141.268 171.968 141.061 171.656 141.061C167.991 140.888 165.709 137.914 165.709 133.247C165.709 132.935 165.467 132.797 165.191 132.97C164.914 133.143 164.672 133.523 164.672 133.834C164.672 138.917 167.161 142.202 171.172 142.375C171.241 142.375 171.276 142.444 171.311 142.478C171.311 142.513 171.345 142.582 171.276 142.721L170.55 144.518C170.239 145.279 170.239 146.005 170.55 146.42C170.861 146.835 171.38 146.904 171.968 146.559L173.904 145.452V148.149C173.904 148.218 173.869 148.287 173.835 148.391L172.59 150.639C172.141 151.468 172.141 152.333 172.625 152.61L174.353 153.681C174.423 153.716 174.423 153.82 174.423 153.854C174.423 153.889 174.423 153.993 174.353 154.096L172.383 157.346C172.141 157.761 172.002 158.245 172.002 158.626V160.147C172.002 160.528 172.141 160.804 172.348 160.942L174.388 162.153C174.492 162.222 174.492 162.395 174.388 162.533L173.454 164.227C173.247 164.608 173.109 165.057 173.109 165.403V167.789C173.109 168.134 173.212 168.376 173.385 168.549L176.912 171.35C177.016 171.315 177.154 171.315 177.327 171.246Z" fill="url(#paint24_linear_1761_22097)"/>
<path d="M174.422 122.354C174.422 120.314 175.874 117.79 177.672 116.787C179.47 115.75 180.922 116.58 180.922 118.62C180.922 120.66 179.47 123.184 177.672 124.187C175.874 125.259 174.422 124.429 174.422 122.354ZM175.425 121.801C175.425 123.219 176.428 123.772 177.672 123.08C178.917 122.354 179.92 120.66 179.92 119.242C179.92 117.825 178.917 117.271 177.672 117.963C176.428 118.654 175.425 120.383 175.425 121.801Z" fill="url(#paint25_linear_1761_22097)"/>
<path opacity="0.6" d="M45.8984 201.708C45.8984 201.708 53.1252 196.176 56.6175 192.165C60.1791 188.084 63.222 181.895 63.222 181.895C63.8443 182.621 66.0571 184.731 69.6187 184.661C73.111 184.627 80.3378 181.826 80.3378 181.826L85.386 186.528C85.386 186.528 83.0693 200.186 79.4387 209.349C73.1803 225.081 63.7406 234.9 63.1527 235.523C63.1527 235.523 53.0905 236.699 46.8321 228.193C43.2015 223.249 40.8848 212.253 40.8848 212.253L45.8984 201.708Z" fill="#A5D4D2"/>
<path d="M63.118 236.077C63.3255 235.975 63.4984 235.731 63.5676 235.454C63.6712 235.111 63.533 234.834 63.2908 234.866C63.1872 234.866 53.2979 235.905 47.2124 227.606C43.9622 223.18 41.7144 213.637 41.3686 212.047L46.1404 202.089C47.3506 201.155 53.5401 196.28 56.7902 192.58C60.4211 188.431 63.4291 182.311 63.5676 182.034C63.7405 181.689 63.7059 181.343 63.4637 181.274C63.2562 181.204 62.9451 181.446 62.7722 181.792C62.7376 181.861 59.7639 187.878 56.3755 191.785C52.9868 195.658 45.8639 201.121 45.7946 201.19C45.6564 201.293 45.5525 201.432 45.4835 201.605L40.4353 212.116C40.3313 212.289 40.2967 212.496 40.3313 212.635C40.4353 213.084 42.7174 223.768 46.3479 228.713C52.6064 237.253 62.8068 236.182 62.9104 236.147C63.0143 236.147 63.0833 236.147 63.118 236.077Z" fill="url(#paint26_linear_1761_22097)"/>
<path d="M63.1862 187.427C63.7048 187.98 65.4337 189.674 68.2691 189.64C71.0698 189.605 76.8099 187.393 76.8099 187.393L80.8209 191.127C80.8209 191.127 78.9882 201.984 76.0838 209.28C71.1045 221.727 63.6012 229.541 63.1172 230.025L63.1862 187.427Z" fill="url(#paint27_linear_1761_22097)"/>
<path d="M69.6874 244.861C69.9639 244.375 70.5865 244.203 71.0705 244.48L118.926 272.071L232.512 205.547L185.834 178.681C185.35 178.404 186.352 177.816 186.352 177.816C186.352 177.816 187.078 177.194 187.562 177.471L234.483 204.336L347.413 139.16L300.563 112.155C300.077 111.879 299.905 111.256 300.181 110.772C300.458 110.288 301.081 110.115 301.564 110.392L349.939 138.261C350.251 138.433 350.457 138.779 350.457 139.125C350.457 139.471 350.251 139.816 349.939 139.989L236.523 205.477C236.523 205.477 285.935 234.625 291.814 236.63C293.612 237.253 300.528 238.533 309.76 237.427C312.388 237.116 317.022 235.317 321.967 233.382C328.294 230.926 335.451 228.125 342.643 226.604C346.723 225.739 350.286 225.394 353.604 225.532C357.478 225.705 360.9 226.569 363.77 228.091C366.5 229.543 368.54 231.237 369.891 233.172C371.169 235.006 371.791 237.011 371.756 239.156C371.585 247.279 361.8 256.998 345.582 265.156C331.752 272.106 313.459 274.388 298.764 276.187C288.391 277.467 279.4 278.573 275.183 280.925C274.421 281.338 273.21 281.338 272.45 280.89C272.45 280.89 272.415 280.89 272.415 280.855C271.656 280.404 271.691 279.679 272.45 279.263C277.5 276.463 286.974 275.322 297.935 273.975C312.179 272.211 329.953 270.031 343.024 263.462C358.444 255.717 367.746 246.59 367.886 239.121C367.952 235.352 365.706 232.205 361.142 229.75C356.957 227.503 351.392 227.192 344.025 228.713C337.285 230.131 330.334 232.829 324.213 235.213C318.509 237.427 314.012 239.188 310.624 239.57C300.216 240.815 294.165 239.776 289.22 237.704C274.697 231.618 234.553 206.584 234.553 206.584L119.41 274.077C119.237 274.181 119.064 274.216 118.891 274.216C118.718 274.216 118.545 274.181 118.373 274.077L69.9985 246.208C69.5491 245.932 69.4106 245.309 69.6874 244.861Z" fill="#A5D4D2"/>
<path opacity="0.6" d="M350.423 139.158L317.781 158.452L349.939 139.884C350.216 139.711 350.388 139.435 350.423 139.158Z" fill="#A5D4D2"/>
<path d="M369.857 233.036C368.507 231.134 366.466 229.439 363.736 227.952C360.866 226.431 357.444 225.567 353.57 225.394C350.252 225.256 346.689 225.601 342.609 226.466C335.417 227.987 328.26 230.753 321.933 233.242C317.023 235.146 312.389 236.976 309.726 237.288C300.494 238.394 293.579 237.116 291.78 236.493C286.387 234.66 244.167 209.834 237.423 205.893L235.418 207.068C241.434 210.803 275.944 232.102 289.187 237.634C294.132 239.709 300.217 240.746 310.59 239.5C313.978 239.087 318.475 237.358 324.18 235.146C330.3 232.759 337.283 230.062 343.991 228.644C351.323 227.088 356.923 227.434 361.108 229.681C365.637 232.102 367.919 235.248 367.852 239.052C367.712 246.52 358.41 255.647 342.99 263.392C329.919 269.964 312.18 272.176 297.901 273.905C286.94 275.252 277.466 276.428 272.416 279.196C271.657 279.609 271.622 280.337 272.381 280.785C272.381 280.785 272.416 280.785 272.416 280.82C273.176 281.268 274.387 281.268 275.149 280.855C279.401 278.503 288.357 277.398 298.73 276.117C313.425 274.321 331.718 272.036 345.548 265.089C361.766 256.928 371.586 247.178 371.723 239.087C371.758 236.875 371.135 234.869 369.857 233.036Z" fill="#A5D4D2"/>
<path d="M342.748 142.132C345.79 143.896 350.769 143.896 353.846 142.098C356.922 140.334 356.922 137.465 353.881 135.701C350.839 133.938 345.859 133.938 342.78 135.736C339.704 137.499 339.704 140.369 342.748 142.132Z" fill="url(#paint28_linear_1761_22097)"/>
<path d="M228.226 208.519C231.268 210.282 236.248 210.282 239.324 208.485C242.403 206.721 242.403 203.851 239.359 202.088C236.317 200.324 231.338 200.324 228.261 202.122C225.182 203.886 225.182 206.756 228.226 208.519Z" fill="url(#paint29_linear_1761_22097)"/>
<path d="M113.359 276.739C116.402 278.503 121.381 278.503 124.459 276.704C127.536 274.94 127.536 272.071 124.493 270.307C121.45 268.543 116.471 268.543 113.394 270.342C110.316 272.105 110.282 274.975 113.359 276.739Z" fill="url(#paint30_linear_1761_22097)"/>
<defs>
<linearGradient id="paint0_linear_1761_22097" x1="589.2" y1="233.364" x2="-566.427" y2="422.867" gradientUnits="userSpaceOnUse">
<stop stop-color="#11A97D"/>
<stop offset="1" stop-color="#7400FC"/>
</linearGradient>
<linearGradient id="paint1_linear_1761_22097" x1="529.673" y1="320.01" x2="-491.59" y2="16.5585" gradientUnits="userSpaceOnUse">
<stop offset="0.0027933" stop-color="#11A97D"/>
<stop offset="1" stop-color="#6610F2"/>
</linearGradient>
<linearGradient id="paint2_linear_1761_22097" x1="536.89" y1="248.188" x2="527.146" y2="248.188" gradientUnits="userSpaceOnUse">
<stop stop-color="#A5D4D2"/>
<stop offset="1" stop-color="#11A97D"/>
</linearGradient>
<linearGradient id="paint3_linear_1761_22097" x1="526.258" y1="246.482" x2="526.619" y2="261.596" gradientUnits="userSpaceOnUse">
<stop stop-color="#A5D4D2"/>
<stop offset="1" stop-color="#36E8DF"/>
</linearGradient>
<linearGradient id="paint4_linear_1761_22097" x1="512.57" y1="264.344" x2="495.049" y2="264.344" gradientUnits="userSpaceOnUse">
<stop stop-color="#A5D4D2"/>
<stop offset="1" stop-color="#11A97D"/>
</linearGradient>
<linearGradient id="paint5_linear_1761_22097" x1="494.193" y1="265.658" x2="494.193" y2="274.777" gradientUnits="userSpaceOnUse">
<stop stop-color="#A5D4D2"/>
<stop offset="1" stop-color="#36E8DF"/>
</linearGradient>
<linearGradient id="paint6_linear_1761_22097" x1="485.27" y1="162.562" x2="473.392" y2="181.949" gradientUnits="userSpaceOnUse">
<stop stop-color="white"/>
<stop offset="1" stop-color="#11A97D"/>
</linearGradient>
<linearGradient id="paint7_linear_1761_22097" x1="453.318" y1="157.245" x2="446.612" y2="162.621" gradientUnits="userSpaceOnUse">
<stop stop-color="white"/>
<stop offset="1" stop-color="#11A97D"/>
</linearGradient>
<linearGradient id="paint8_linear_1761_22097" x1="457.59" y1="163.048" x2="453.341" y2="165.967" gradientUnits="userSpaceOnUse">
<stop stop-color="white"/>
<stop offset="1" stop-color="#11A97D"/>
</linearGradient>
<linearGradient id="paint9_linear_1761_22097" x1="83.085" y1="276.323" x2="215.629" y2="352.851" gradientUnits="userSpaceOnUse">
<stop stop-color="#7400FC"/>
<stop offset="1" stop-color="#11A97D"/>
</linearGradient>
<linearGradient id="paint10_linear_1761_22097" x1="152.183" y1="312.438" x2="179.878" y2="360.403" gradientUnits="userSpaceOnUse">
<stop stop-color="white"/>
<stop offset="1" stop-color="#11A97D"/>
</linearGradient>
<linearGradient id="paint11_linear_1761_22097" x1="172.344" y1="331.594" x2="185.53" y2="354.432" gradientUnits="userSpaceOnUse">
<stop stop-color="#005CA3"/>
<stop offset="1" stop-color="#012B8F"/>
</linearGradient>
<linearGradient id="paint12_linear_1761_22097" x1="134.752" y1="352.922" x2="156.118" y2="328.631" gradientUnits="userSpaceOnUse">
<stop stop-color="#AEF1ED"/>
<stop offset="1" stop-color="#015955"/>
</linearGradient>
<linearGradient id="paint13_linear_1761_22097" x1="282.908" y1="330.336" x2="276.01" y2="342.28" gradientUnits="userSpaceOnUse">
<stop offset="0.000640708" stop-color="#EDEDED"/>
<stop offset="1" stop-color="#F6F6F6"/>
</linearGradient>
<linearGradient id="paint14_linear_1761_22097" x1="196.72" y1="280.748" x2="189.822" y2="292.695" gradientUnits="userSpaceOnUse">
<stop offset="0.000640708" stop-color="#A5D4D2"/>
<stop offset="1" stop-color="#F6F6F6"/>
</linearGradient>
<linearGradient id="paint15_linear_1761_22097" x1="19.1098" y1="314.599" x2="173.578" y2="-400.901" gradientUnits="userSpaceOnUse">
<stop stop-color="#11D37D"/>
<stop offset="1" stop-color="#6610F2"/>
</linearGradient>
<linearGradient id="paint16_linear_1761_22097" x1="323.234" y1="208.742" x2="-6.46141" y2="208.742" gradientUnits="userSpaceOnUse">
<stop stop-color="#6610F2"/>
<stop offset="1" stop-color="#11A97D"/>
</linearGradient>
<linearGradient id="paint17_linear_1761_22097" x1="249.409" y1="150.836" x2="365.39" y2="-238.719" gradientUnits="userSpaceOnUse">
<stop offset="0.00597871" stop-color="#11D37D"/>
<stop offset="1" stop-color="#7400FC"/>
</linearGradient>
<linearGradient id="paint18_linear_1761_22097" x1="348.189" y1="73.7437" x2="107.157" y2="73.7437" gradientUnits="userSpaceOnUse">
<stop stop-color="#11A97D"/>
<stop offset="1" stop-color="#6610F2"/>
</linearGradient>
<linearGradient id="paint19_linear_1761_22097" x1="141.275" y1="227.063" x2="249.835" y2="-297.086" gradientUnits="userSpaceOnUse">
<stop stop-color="#11D37D"/>
<stop offset="1" stop-color="#7400FC"/>
</linearGradient>
<linearGradient id="paint20_linear_1761_22097" x1="238.765" y1="141.375" x2="-43.7895" y2="141.375" gradientUnits="userSpaceOnUse">
<stop stop-color="#11A97D"/>
<stop offset="1" stop-color="#6610F2"/>
</linearGradient>
<linearGradient id="paint21_linear_1761_22097" x1="309.859" y1="81.3585" x2="265.456" y2="81.3585" gradientUnits="userSpaceOnUse">
<stop stop-color="#11A97D"/>
<stop offset="1" stop-color="#7400FC"/>
</linearGradient>
<linearGradient id="paint22_linear_1761_22097" x1="285.318" y1="93.2289" x2="278.408" y2="93.2289" gradientUnits="userSpaceOnUse">
<stop stop-color="#11A97D"/>
<stop offset="1" stop-color="#3070AA"/>
</linearGradient>
<linearGradient id="paint23_linear_1761_22097" x1="176.099" y1="91.7706" x2="213.037" y2="152.564" gradientUnits="userSpaceOnUse">
<stop stop-color="#7400FC"/>
<stop offset="1" stop-color="#11A97D"/>
</linearGradient>
<linearGradient id="paint24_linear_1761_22097" x1="192.302" y1="152.046" x2="127.261" y2="152.046" gradientUnits="userSpaceOnUse">
<stop stop-color="#11A97D"/>
<stop offset="1" stop-color="#7400FC"/>
</linearGradient>
<linearGradient id="paint25_linear_1761_22097" x1="181.907" y1="120.498" x2="165.04" y2="120.498" gradientUnits="userSpaceOnUse">
<stop stop-color="#11A97D"/>
<stop offset="1" stop-color="#7400FC"/>
</linearGradient>
<linearGradient id="paint26_linear_1761_22097" x1="63.7184" y1="208.742" x2="0.597174" y2="208.742" gradientUnits="userSpaceOnUse">
<stop stop-color="#11A97D"/>
<stop offset="1" stop-color="#7400FC"/>
</linearGradient>
<linearGradient id="paint27_linear_1761_22097" x1="80.8162" y1="208.696" x2="22.2424" y2="208.696" gradientUnits="userSpaceOnUse">
<stop stop-color="#11A97D"/>
<stop offset="1" stop-color="#7400FC"/>
</linearGradient>
<linearGradient id="paint28_linear_1761_22097" x1="353.884" y1="135.688" x2="331.726" y2="174.064" gradientUnits="userSpaceOnUse">
<stop stop-color="#11A97D"/>
<stop offset="1" stop-color="#7400FC"/>
</linearGradient>
<linearGradient id="paint29_linear_1761_22097" x1="239.368" y1="202.102" x2="224.035" y2="228.66" gradientUnits="userSpaceOnUse">
<stop stop-color="#11A97D"/>
<stop offset="1" stop-color="#7400FC"/>
</linearGradient>
<linearGradient id="paint30_linear_1761_22097" x1="124.482" y1="270.301" x2="104.026" y2="305.73" gradientUnits="userSpaceOnUse">
<stop stop-color="#11A97D"/>
<stop offset="1" stop-color="#7400FC"/>
</linearGradient>
</defs>
</svg>
