<svg width="586" height="480" viewBox="0 0 586 480" fill="none" xmlns="http://www.w3.org/2000/svg">
<path d="M453.319 95.697L332.805 165.725C322.748 171.579 306.359 171.579 296.244 165.725L174.947 95.697C169.844 92.7553 167.293 88.8832 167.323 85.041V149.607C167.293 153.449 169.844 157.321 174.917 160.263L296.215 230.291C306.33 236.144 322.719 236.144 332.773 230.291L453.29 160.263C458.303 157.351 460.795 153.569 460.795 149.757V85.1911C460.795 89.0033 458.303 92.7853 453.319 95.697Z" fill="url(#paint0_linear_1761_22880)"/>
<path d="M453.201 74.5337C463.316 80.387 463.376 89.8722 453.319 95.6953L332.805 165.724C322.748 171.577 306.359 171.577 296.244 165.724L174.947 95.6953C164.831 89.8422 164.771 80.3571 174.827 74.5337L295.342 4.50516C305.399 -1.34807 321.788 -1.34807 331.903 4.50516L453.201 74.5337Z" fill="url(#paint1_linear_1761_22880)"/>
<path d="M428.641 91.0333C427.756 91.9484 426.652 92.8003 425.327 93.5575L329.028 149.532C320.982 154.202 307.918 154.202 299.81 149.532L202.879 93.5575C201.522 92.7689 200.386 91.9169 199.471 90.9702C194.991 86.4267 196.095 80.5262 202.784 76.6452L299.084 20.6703C307.13 16.0005 320.194 16.0005 328.303 20.6703L425.233 76.6452C431.986 80.5579 433.119 86.4581 428.641 91.0333Z" fill="url(#paint2_linear_1761_22880)"/>
<path d="M359.288 74.8038C357.758 73.6632 355.836 72.7327 353.765 72.1324C351.694 71.532 349.504 71.2618 347.372 71.3517C343.319 71.5018 340.228 72.9727 338.277 75.1339C336.506 77.1151 334.826 79.2161 332.784 80.957C329.663 83.5984 325.671 85.7597 321.047 87.2905C316.847 88.6713 312.793 89.2417 308.472 87.1404C308.141 86.9904 307.121 86.36 306.819 86.18C306.519 85.9999 305.649 85.3696 305.41 85.1595C302.198 82.398 302.737 79.6364 304.479 76.7847C306.34 73.6932 309.071 70.9316 312.583 68.6803C314.894 67.2096 317.746 65.9189 320.416 64.5681C323.36 63.0972 325.161 60.9662 324.979 58.5048C324.89 57.2139 324.291 55.9533 323.239 54.8127C322.188 53.6722 320.747 52.7114 319.036 52.0212C313.934 49.9199 307.599 50.5505 303.998 52.9817C302.587 53.9122 301.656 55.1129 301.267 56.4035C300.607 58.5947 301.417 60.9962 301.837 63.2772C302.137 64.8081 301.477 68.2902 299.346 71.2917C298.055 73.1228 296.583 74.9239 295.114 76.7247C293.013 79.2763 287.638 84.5891 285.359 87.2006C280.735 92.5135 283.737 96.5657 288.09 99.8075L288.24 99.9276C292.953 103.019 299.075 105.27 306.729 101.699C310.512 99.9276 318.256 95.7253 322.038 94.0743C324.74 92.9036 327.411 91.7031 330.202 90.6525C334.766 88.9116 340.438 88.1911 343.019 88.3412C346.952 88.5212 351.155 88.9715 354.877 88.3412C357.098 87.9511 359.019 87.1704 360.428 86.0299C364.061 83.0882 363.911 78.3156 359.198 74.8038H359.288Z" fill="url(#paint3_linear_1761_22880)"/>
<g style="mix-blend-mode:multiply">
<path d="M224.803 177.598L234.229 183.272C235.759 184.202 237.02 183.692 237.02 182.161V150.583C237.02 149.053 235.789 147.041 234.229 146.141L224.803 140.468C223.272 139.537 222.012 140.048 222.012 141.579V173.156C222.012 174.687 223.242 176.698 224.803 177.598Z" fill="#00A4BB"/>
</g>
<g style="mix-blend-mode:multiply">
<path d="M224.865 153.377V159.918C224.865 160.535 225.646 161.326 226.576 161.693L227.327 161.982L232.4 163.95C233.36 164.317 234.11 164.124 234.11 163.506V156.946C234.11 156.676 233.96 156.367 233.72 156.078C233.42 155.712 232.94 155.383 232.4 155.171L226.576 152.914C225.616 152.547 224.865 152.74 224.865 153.357V153.377Z" fill="#00A4BB"/>
</g>
<g style="mix-blend-mode:multiply">
<path d="M224.865 164.785V171.326C224.865 171.943 225.646 172.734 226.576 173.101L227.327 173.39L232.4 175.358C233.36 175.725 234.11 175.532 234.11 174.914V168.354C234.11 168.084 233.96 167.776 233.72 167.486C233.42 167.12 232.94 166.792 232.4 166.579L226.576 164.322C225.616 163.955 224.865 164.148 224.865 164.766V164.785Z" fill="#00A4BB"/>
</g>
<path d="M345.233 199.936V205.329L338.85 209.008V203.63L345.233 199.936Z" fill="#7ABBBE"/>
<path d="M353.058 195.402V200.792L346.67 204.474V199.093L353.058 195.402Z" fill="#006166"/>
<path d="M360.803 190.695V196.085L354.42 199.768V194.386L360.803 190.695Z" fill="#7ABBBE"/>
<path d="M368.625 186.156V191.55L362.242 195.228V189.851L368.625 186.156Z" fill="#006166"/>
<path d="M342.857 184.091L344.96 181.847L341.192 179.593C341.052 179.487 340.907 179.388 340.749 179.307L340.725 179.289L340.723 179.293C339.49 178.639 337.823 178.752 335.995 179.795C332.218 181.95 329.129 187.331 329.129 191.751C329.129 193.673 329.716 195.1 330.685 195.92H330.688C330.939 196.129 331.215 196.298 331.507 196.425L335.307 198.761L337.322 194.835C340.394 192.341 342.743 187.875 342.857 184.091Z" fill="#003F4A"/>
<path d="M333.305 194.28C333.305 189.86 336.398 184.479 340.171 182.324C343.949 180.169 347.035 181.974 347.035 186.341C347.035 190.708 343.944 196.089 340.171 198.298C336.398 200.51 333.305 198.7 333.305 194.28Z" fill="#006165"/>
<path d="M335.492 193.023C335.492 190.009 337.597 186.342 340.174 184.868C342.75 183.398 344.855 184.632 344.855 187.607C344.855 190.585 342.75 194.253 340.174 195.761C337.597 197.27 335.492 196.037 335.492 193.023Z" fill="#003F4A"/>
<path d="M361.097 173.439L363.199 171.195L359.434 168.941C359.291 168.835 359.146 168.736 358.992 168.655L358.967 168.637L358.963 168.641C357.73 167.987 356.062 168.1 354.235 169.142C350.46 171.298 347.371 176.679 347.371 181.099C347.371 183.021 347.958 184.448 348.925 185.268H348.93C349.179 185.476 349.457 185.646 349.749 185.773L353.546 188.109L355.564 184.183C358.639 181.685 360.986 177.223 361.097 173.439Z" fill="#003F4A"/>
<path d="M351.551 183.624C351.551 179.204 354.642 173.823 358.415 171.668C362.192 169.513 365.281 171.318 365.281 175.685C365.281 180.052 362.19 185.433 358.415 187.641C354.64 189.853 351.551 188.044 351.551 183.624Z" fill="#006165"/>
<path d="M353.734 182.367C353.734 179.353 355.84 175.685 358.416 174.212C360.99 172.742 363.098 173.975 363.098 176.95C363.098 179.929 360.99 183.596 358.416 185.105C355.84 186.614 353.734 185.381 353.734 182.367Z" fill="#003F4A"/>
<path opacity="0.4" d="M170.576 114.104V118.954L185.11 127.29V122.45L170.576 114.104Z" fill="white"/>
<path opacity="0.4" d="M170.576 120.697V125.548L185.11 133.884V129.044L170.576 120.697Z" fill="white"/>
<path opacity="0.4" d="M170.576 127.289V132.139L185.11 140.476V135.636L170.576 127.289Z" fill="white"/>
<path opacity="0.4" d="M192.449 126.354V131.204L206.983 139.544V134.7L192.449 126.354Z" fill="white"/>
<path opacity="0.4" d="M192.449 132.947V137.801L206.983 146.137V141.297L192.449 132.947Z" fill="white"/>
<path opacity="0.4" d="M192.449 139.543V144.393L206.983 152.729V147.89L192.449 139.543Z" fill="white"/>
<path opacity="0.4" d="M253.15 160.717V165.567L267.683 173.903V169.063L253.15 160.717Z" fill="white"/>
<path opacity="0.4" d="M253.15 167.311V172.161L267.683 180.497V175.657L253.15 167.311Z" fill="white"/>
<path opacity="0.4" d="M253.15 173.904V178.755L267.683 187.091V182.251L253.15 173.904Z" fill="white"/>
<path opacity="0.4" d="M275.023 172.967V177.817L289.556 186.157V181.314L275.023 172.967Z" fill="white"/>
<path opacity="0.4" d="M275.023 179.561V184.414L289.556 192.75V187.911L275.023 179.561Z" fill="white"/>
<path opacity="0.4" d="M275.023 186.156V191.007L289.556 199.343V194.503L275.023 186.156Z" fill="white"/>
<path d="M448.873 117.42V147.335L397.219 176.491V146.638L448.873 117.42Z" fill="#9B9BCE"/>
<path d="M446.059 120.637V147.291L400.031 173.268V146.671L446.059 120.637Z" fill="#CACAEA"/>
<path d="M406.477 143.031L417.861 163.207L400.031 173.269V146.672L406.477 143.031Z" fill="#DADAEF"/>
<path d="M417.861 136.591L428.967 156.94L439.599 150.938L428.73 130.439L417.861 136.591Z" fill="#DADAEF"/>
<path d="M230.702 158.469C230.702 158.469 211.841 160.855 210.7 198.331C210.109 217.749 207.422 240.908 226.691 260.917C245.96 280.929 275.751 299.476 324.583 313.349C366.241 325.185 363.418 267.039 404.189 267.039C427.447 267.039 448.257 299.476 448.257 299.476" stroke="#15A4BA" stroke-width="15.8533"/>
<path d="M230.704 170.158C230.704 170.158 196.462 171.565 196.461 207.828C196.461 227.255 196.461 244.691 187.569 262.451C178.677 280.213 115.046 294.76 151.365 334.862C180.435 366.958 137.585 402.664 108.998 399.333" stroke="#15A4BA" stroke-width="15.8533"/>
<path d="M118.663 367.579C118.143 368.815 116.789 369.634 114.757 369.723C110.958 369.868 106.255 367.384 104.253 364.186C102.634 361.593 103.686 359.998 103.686 359.998C105.232 357.049 105.553 355.364 108.993 355.236C112.792 355.094 117.494 357.581 119.502 360.795C121.294 363.664 120.119 364.86 118.569 367.812C118.603 367.734 118.629 367.654 118.663 367.579Z" fill="#141C26"/>
<path d="M173.289 396.715C172.41 397.725 170.868 398.073 168.913 397.508C165.264 396.449 161.582 392.613 160.687 388.937C159.964 385.969 161.463 384.802 161.459 384.802C163.856 382.489 164.694 380.993 167.996 381.95C171.646 383.008 175.328 386.844 176.227 390.532C177.026 393.817 175.53 394.583 173.138 396.896C173.192 396.838 173.243 396.778 173.289 396.715Z" fill="#141C26"/>
<path d="M181.329 404.074L182.378 423.4C182.695 429.38 179.59 435.526 173.049 440.787L133.83 469.861C126.896 474.218 118.213 474.532 112.317 469.841C105.308 464.27 118.35 435.555 121.454 430.269C104.065 421.52 93.3304 416.113 76.6051 407.7C72.7049 405.747 66.9311 405.522 62.2588 407.163L23.2829 420.829C14.5212 423.908 4.08761 420.729 3.59915 412.227C2.56464 394.216 62.4751 341.442 116.149 360.016C150.831 371.635 168.959 386.697 168.959 386.697C175.84 392.232 180.978 398.487 181.355 405.051C181.351 404.722 181.348 404.403 181.329 404.074Z" fill="url(#paint4_linear_1761_22880)"/>
<path d="M181.342 405.036C181.315 410.706 178.196 416.483 172.012 421.461L133.288 452.62C130.501 454.815 126.276 456.093 122.052 456.243C120.787 456.294 119.531 456.028 118.393 455.477C117.255 454.924 116.271 454.097 115.529 453.072C114.787 452.048 114.309 450.856 114.138 449.602C113.967 448.35 114.108 447.074 114.548 445.887C117.337 438.503 120.738 431.504 121.465 430.269L128.093 421.503C130.263 418.602 129.124 415.339 125.223 413.372L75.5493 388.388C71.6445 386.423 65.8755 386.213 61.2029 387.852L22.2298 401.5C19.337 402.486 16.2736 402.875 13.2262 402.638C10.3391 402.421 8.9603 398.996 10.7726 396.739C27.1862 376.342 72.4749 344.891 116.123 359.985C149.491 371.158 168.934 386.663 168.934 386.663C174.009 390.416 181.573 396.023 181.342 405.036Z" fill="#456185"/>
<path d="M181.342 405.036C181.315 410.706 178.196 416.483 172.012 421.461L133.288 452.62C130.501 454.815 126.276 456.093 122.052 456.243C120.787 456.294 119.531 456.028 118.393 455.477C117.255 454.924 116.271 454.097 115.529 453.072C114.787 452.048 114.309 450.856 114.138 449.602C113.967 448.35 114.108 447.074 114.548 445.887C117.337 438.503 120.738 431.504 121.465 430.269L128.093 421.503C130.263 418.602 129.124 415.339 125.223 413.372L75.5493 388.388C71.6445 386.423 65.8755 386.213 61.2029 387.852L22.2298 401.5C19.337 402.486 16.2736 402.875 13.2262 402.638C10.3391 402.421 8.9603 398.996 10.7726 396.739C27.1862 376.342 72.4749 344.891 116.123 359.985C149.491 371.158 168.934 386.663 168.934 386.663C174.009 390.416 181.573 396.023 181.342 405.036Z" fill="url(#paint5_linear_1761_22880)"/>
<path d="M92.5162 372.055C92.2518 374.131 90.7977 376.212 88.1793 377.931C81.9934 382.025 71.562 382.624 64.9212 379.267C62.0797 377.834 60.3847 375.925 59.8566 373.877C59.131 371.134 60.5176 368.149 64.0676 365.807C70.2493 361.713 80.6619 361.116 87.3254 364.471C91.1593 366.404 92.9109 369.239 92.5162 372.055Z" fill="#184363"/>
<path d="M92.5172 372.055C92.2526 374.131 90.7986 376.21 88.1801 377.93C81.9942 382.025 71.5628 382.624 64.9223 379.267C62.0805 377.834 60.3855 375.924 59.8574 373.877C60.1223 371.806 61.5725 369.725 64.1948 368.007C70.3766 363.912 80.7891 363.315 87.4526 366.67C90.2944 368.103 91.9891 370.013 92.5172 372.055Z" fill="#1D4F73"/>
<path d="M174.975 402.401C174.548 405.592 172.337 408.789 168.301 411.436C158.793 417.739 142.757 418.66 132.527 413.49C128.156 411.286 125.55 408.345 124.759 405.205C123.642 400.983 125.788 396.388 131.234 392.787C140.747 386.484 156.76 385.563 167.013 390.73C172.89 393.705 175.597 398.058 174.975 402.401Z" fill="#184363"/>
<path d="M174.975 402.402C174.548 405.592 172.337 408.79 168.302 411.434C158.793 417.737 142.757 418.658 132.528 413.491C128.156 411.284 125.55 408.345 124.76 405.206C125.187 402.01 127.398 398.818 131.429 396.166C140.942 389.863 156.955 388.945 167.207 394.112C171.56 396.319 174.165 399.258 174.975 402.402Z" fill="#1D4F73"/>
<path d="M84.9289 367.869C84.3242 365.425 82.0095 363.816 79.5672 363.19C79.4321 362.839 77.9182 359.001 77.7734 358.687C77.1194 357.189 73.3306 357.445 72.9217 359.011C72.9217 359.011 71.7072 363.656 71.7074 363.659C68.0678 365.109 66.1509 367.816 67.0839 372.369C68.017 376.92 78.1708 378.298 83.2494 374.375C84.8816 373.123 85.8321 371.499 84.9289 367.869Z" fill="#0D3959"/>
<path d="M77.8014 358.741C77.3852 357.639 74.984 357.327 73.5993 358.214C73.2784 358.386 73.0362 358.674 72.9243 359.019C70.8286 367.036 69.9747 367.805 72.3768 369.069C74.3556 370.106 77.4862 369.953 79.4004 368.735C81.8739 367.164 80.7215 366.28 77.8014 358.741Z" fill="#1D4F73"/>
<path d="M85.6994 354.214C84.9811 351.597 82.7215 349.144 79.3891 348.051C68.3914 344.208 58.5932 357.639 68.9605 362.468C75.9744 365.779 87.8872 361.898 85.6994 354.214Z" fill="#11A97D"/>
<path d="M167.698 392.768C167.206 390.876 165.571 389.143 163.189 388.365C155.332 385.61 148.335 395.224 155.744 398.658C160.75 401.034 169.249 398.243 167.698 392.768Z" fill="#3BFBCD"/>
<path d="M146.66 407.352C146.168 405.46 144.533 403.727 142.155 402.946C134.298 400.201 127.297 409.798 134.706 413.247C139.712 415.613 148.212 412.844 146.66 407.352Z" fill="#3B88FB"/>
<path d="M145.942 394.827C145.449 392.937 143.815 391.204 141.436 390.419C133.58 387.673 126.578 397.271 133.987 400.717C138.994 403.086 147.493 400.314 145.942 394.827Z" fill="#29ABE2"/>
<path d="M168.466 406.101C167.973 404.208 166.339 402.475 163.956 401.697C156.1 398.949 149.102 408.549 156.512 411.995C161.518 414.364 170.017 411.592 168.466 406.101Z" fill="#11A97D"/>
<path d="M114.83 367.799C114.763 368.118 114.628 368.418 114.434 368.681C114.241 368.942 113.994 369.16 113.709 369.319C112.108 370.378 109.411 370.533 107.691 369.665C107.386 369.539 107.112 369.351 106.886 369.112C106.661 368.87 106.489 368.585 106.383 368.273C106.193 367.562 106.552 366.789 107.473 366.185C109.07 365.126 111.763 364.971 113.486 365.839C114.478 366.339 114.935 367.072 114.83 367.799Z" fill="#184363"/>
<path d="M114.009 366.003C113.853 365.515 113.579 365.073 113.211 364.715C112.844 364.357 112.395 364.094 111.903 363.949C108.237 362.665 104.968 367.146 108.426 368.754C110.765 369.861 114.751 368.567 114.009 366.003Z" fill="#3B88FB"/>
<path d="M127.704 373.569C127.638 373.89 127.504 374.19 127.311 374.453C127.117 374.717 126.868 374.932 126.582 375.089C124.985 376.148 122.288 376.302 120.569 375.435C120.264 375.309 119.989 375.12 119.763 374.881C119.537 374.639 119.364 374.354 119.257 374.042C119.07 373.332 119.429 372.561 120.346 371.954C121.947 370.896 124.64 370.741 126.363 371.609C127.355 372.109 127.812 372.841 127.704 373.569Z" fill="#184363"/>
<path d="M126.883 371.775C126.73 371.286 126.459 370.842 126.095 370.484C125.732 370.124 125.286 369.858 124.796 369.711C121.13 368.427 117.86 372.906 121.318 374.515C123.643 375.63 127.61 374.339 126.883 371.775Z" fill="#89C0C9"/>
<path d="M140.628 380.118C140.56 380.437 140.425 380.739 140.232 381C140.038 381.263 139.791 381.481 139.506 381.638C137.909 382.696 135.212 382.851 133.493 381.983C133.187 381.86 132.912 381.672 132.685 381.43C132.459 381.191 132.287 380.905 132.181 380.591C131.994 379.881 132.353 379.11 133.27 378.503C134.871 377.444 137.564 377.29 139.287 378.157C140.279 378.658 140.732 379.388 140.628 380.118Z" fill="#184363"/>
<path d="M139.807 378.325C139.651 377.837 139.378 377.392 139.012 377.034C138.645 376.677 138.196 376.413 137.705 376.268C134.035 374.987 130.769 379.466 134.227 381.076C136.567 382.18 140.53 380.889 139.807 378.325Z" fill="#11A0A9"/>
<path d="M99.7391 387.127C99.8407 386.353 99.3785 385.592 98.3351 385.065L94.6912 383.233C92.8652 382.312 90.0154 382.476 88.3182 383.598C87.4755 384.159 87.0774 384.847 87.1158 385.514L87.2582 387.992C87.2968 388.666 87.7793 389.314 88.6962 389.776L92.34 391.608C94.166 392.528 97.0119 392.364 98.7091 391.243C99.5523 390.687 99.9504 390 99.9158 389.333L99.773 386.849C99.7693 386.94 99.758 387.035 99.7391 387.127Z" fill="#1D4F73"/>
<path d="M98.3354 385.066C100.158 385.986 100.264 387.642 98.5667 388.756C96.8691 389.87 94.035 390.042 92.1974 389.121L88.5537 387.289C86.7277 386.371 86.625 384.713 88.3188 383.598C90.0125 382.484 92.8505 382.315 94.6917 383.234L98.3354 385.066Z" fill="#3E5878"/>
<path d="M98.3354 385.066C100.158 385.986 100.264 387.642 98.5667 388.756C96.8691 389.87 94.035 390.042 92.1974 389.121L88.5537 387.289C86.7277 386.371 86.625 384.713 88.3188 383.598C90.0125 382.484 92.8505 382.315 94.6917 383.234L98.3354 385.066Z" fill="url(#paint6_linear_1761_22880)"/>
<path d="M117.82 395.257C117.917 394.484 117.46 393.742 116.412 393.196L112.768 391.364C110.946 390.443 108.096 390.607 106.399 391.729C105.556 392.287 105.158 392.976 105.196 393.641L105.338 396.123C105.377 396.797 105.856 397.44 106.777 397.906L110.42 399.738C112.246 400.659 115.092 400.495 116.79 399.373C117.632 398.813 118.03 398.126 117.996 397.464L117.854 394.979C117.852 395.071 117.84 395.166 117.82 395.257Z" fill="#1D4F73"/>
<path d="M116.419 393.196C118.245 394.117 118.352 395.772 116.654 396.886C114.956 398.001 112.122 398.167 110.285 397.251L106.641 395.415C104.815 394.499 104.708 392.841 106.406 391.729C108.104 390.619 110.938 390.443 112.775 391.364L116.419 393.196Z" fill="#3E5878"/>
<path d="M116.419 393.196C118.245 394.117 118.352 395.772 116.654 396.886C114.956 398.001 112.122 398.167 110.285 397.251L106.641 395.415C104.815 394.499 104.708 392.841 106.406 391.729C108.104 390.619 110.938 390.443 112.775 391.364L116.419 393.196Z" fill="url(#paint7_linear_1761_22880)"/>
<path d="M126.319 385.899C128.145 386.818 128.251 388.476 126.554 389.59C124.856 390.704 122.022 390.871 120.184 389.955L99.1826 379.386C97.3566 378.467 97.2539 376.812 98.9477 375.698C100.641 374.583 103.479 374.412 105.321 375.33L126.319 385.899Z" fill="#3E5878"/>
<path d="M126.319 385.899C128.145 386.818 128.251 388.476 126.554 389.59C124.856 390.704 122.022 390.871 120.184 389.955L99.1826 379.386C97.3566 378.467 97.2539 376.812 98.9477 375.698C100.641 374.583 103.479 374.412 105.321 375.33L126.319 385.899Z" fill="#184363"/>
<path d="M467.018 293.585C467.538 294.82 468.891 295.64 470.924 295.729C474.723 295.874 479.427 293.39 481.428 290.192C483.047 287.599 481.996 286.003 481.996 286.003C480.449 283.055 480.128 281.37 476.688 281.242C472.889 281.1 468.188 283.587 466.179 286.801C464.389 289.67 465.563 290.866 467.112 293.817C467.079 293.738 467.052 293.66 467.018 293.585Z" fill="#141C26"/>
<path d="M412.393 322.721C413.271 323.731 414.813 324.079 416.768 323.513C420.418 322.455 424.101 318.619 424.995 314.943C425.718 311.975 424.219 310.808 424.222 310.808C421.827 308.495 420.988 306.999 417.687 307.956C414.037 309.014 410.354 312.85 409.455 316.538C408.657 319.823 410.151 320.589 412.543 322.902C412.49 322.844 412.439 322.783 412.393 322.721Z" fill="#141C26"/>
<path d="M404.352 330.08L403.303 349.406C402.987 355.385 406.092 361.532 412.633 366.793L451.852 395.866C458.786 400.224 467.468 400.538 473.365 395.847C480.374 390.276 467.332 361.561 464.226 356.275C481.616 347.526 492.352 342.119 509.077 333.703C512.978 331.753 518.75 331.528 523.424 333.169L562.399 346.834C571.161 349.913 581.594 346.735 582.083 338.233C583.117 320.222 523.207 267.448 469.534 286.022C434.851 297.64 416.722 312.703 416.722 312.703C409.841 318.237 404.705 324.492 404.328 331.057C404.33 330.728 404.333 330.409 404.352 330.08Z" fill="url(#paint8_linear_1761_22880)"/>
<path d="M404.341 331.044C404.37 336.714 407.488 342.49 413.673 347.469L452.397 378.628C455.183 380.823 459.408 382.101 463.633 382.251C464.897 382.302 466.154 382.036 467.292 381.485C468.428 380.931 469.412 380.105 470.154 379.08C470.898 378.055 471.374 376.864 471.546 375.609C471.717 374.357 471.575 373.081 471.135 371.895C468.346 364.511 464.945 357.511 464.218 356.276L457.591 347.51C455.42 344.61 456.559 341.347 460.459 339.38L510.134 314.396C514.04 312.431 519.809 312.221 524.481 313.86L563.454 327.508C566.347 328.494 569.409 328.881 572.457 328.646C575.345 328.429 576.723 325.004 574.91 322.747C558.497 302.35 513.209 270.899 469.562 285.992C436.194 297.166 416.75 312.67 416.75 312.67C411.674 316.424 404.111 322.031 404.341 331.044Z" fill="#456185"/>
<path d="M404.341 331.044C404.37 336.714 407.488 342.49 413.673 347.469L452.397 378.628C455.183 380.823 459.408 382.101 463.633 382.251C464.897 382.302 466.154 382.036 467.292 381.485C468.428 380.931 469.412 380.105 470.154 379.08C470.898 378.055 471.374 376.864 471.546 375.609C471.717 374.357 471.575 373.081 471.135 371.895C468.346 364.511 464.945 357.511 464.218 356.276L457.591 347.51C455.42 344.61 456.559 341.347 460.459 339.38L510.134 314.396C514.04 312.431 519.809 312.221 524.481 313.86L563.454 327.508C566.347 328.494 569.409 328.881 572.457 328.646C575.345 328.429 576.723 325.004 574.91 322.747C558.497 302.35 513.209 270.899 469.562 285.992C436.194 297.166 416.75 312.67 416.75 312.67C411.674 316.424 404.111 322.031 404.341 331.044Z" fill="url(#paint9_linear_1761_22880)"/>
<path d="M419.884 328.643C420.15 330.719 421.603 332.8 424.223 334.519C430.408 338.613 440.839 339.212 447.481 335.855C450.321 334.422 452.017 332.513 452.544 330.465C453.269 327.722 451.884 324.737 448.334 322.395C442.151 318.301 431.739 317.704 425.076 321.059C421.243 322.992 419.49 325.827 419.884 328.643Z" fill="#184363"/>
<path d="M419.951 328.65C420.215 330.726 421.67 332.805 424.287 334.525C430.472 338.62 440.906 339.217 447.545 335.862C450.387 334.429 452.082 332.517 452.611 330.472C452.345 328.399 450.895 326.32 448.273 324.599C442.09 320.507 431.678 319.908 425.015 323.265C422.172 324.698 420.478 326.608 419.951 328.65Z" fill="#1D4F73"/>
<path d="M488.054 292.614C488.308 294.516 489.625 296.421 492.027 297.994C497.69 301.75 507.239 302.299 513.332 299.22C515.935 297.905 517.487 296.155 517.958 294.284C518.623 291.771 517.347 289.035 514.103 286.889C508.438 283.135 498.901 282.586 492.796 285.666C489.296 287.437 487.684 290.031 488.054 292.614Z" fill="#184363"/>
<path d="M488.051 292.615C488.305 294.514 489.622 296.419 492.027 297.995C497.689 301.748 507.239 302.297 513.329 299.22C515.935 297.905 517.486 296.155 517.955 294.285C517.702 292.383 516.384 290.48 513.984 288.902C508.319 285.149 498.784 284.6 492.677 287.679C490.086 288.992 488.534 290.744 488.051 292.615Z" fill="#1D4F73"/>
<path d="M427.539 324.465C428.143 322.021 430.459 320.411 432.902 319.785C433.037 319.435 434.55 315.597 434.695 315.283C435.348 313.784 439.138 314.04 439.546 315.607C439.546 315.607 440.762 320.252 440.762 320.254C444.402 321.704 446.318 324.411 445.385 328.965C444.45 333.516 434.297 334.894 429.219 330.971C427.587 329.719 426.635 328.095 427.539 324.465Z" fill="#0D3959"/>
<path d="M434.665 315.333C435.081 314.234 437.483 313.922 438.866 314.806C439.187 314.978 439.429 315.268 439.542 315.614C441.638 323.628 442.491 324.399 440.089 325.663C438.112 326.7 434.979 326.548 433.065 325.327C430.593 323.759 431.745 322.872 434.665 315.333Z" fill="#1D4F73"/>
<path d="M426.768 310.808C427.488 308.188 429.748 305.735 433.079 304.645C444.078 300.802 453.876 314.233 443.508 319.062C436.494 322.373 424.581 318.492 426.768 310.808Z" fill="#11A97D"/>
<path d="M492.386 286.876C492.679 285.752 493.653 284.72 495.071 284.254C499.751 282.615 503.917 288.341 499.504 290.386C496.524 291.799 491.463 290.139 492.386 286.876Z" fill="#3BFBCD"/>
<path d="M504.914 295.563C505.207 294.437 506.181 293.405 507.597 292.941C512.276 291.305 516.445 297.021 512.032 299.073C509.052 300.484 503.988 298.833 504.914 295.563Z" fill="#3B88FB"/>
<path d="M505.341 288.105C505.634 286.979 506.608 285.946 508.024 285.48C512.703 283.844 516.872 289.56 512.462 291.614C509.479 293.023 504.418 291.372 505.341 288.105Z" fill="#29ABE2"/>
<path d="M491.927 294.819C492.22 293.693 493.194 292.661 494.612 292.194C499.292 290.56 503.458 296.276 499.045 298.328C496.065 299.74 491.004 298.089 491.927 294.819Z" fill="#11A97D"/>
<path d="M470.852 293.805C470.92 294.124 471.055 294.426 471.249 294.687C471.442 294.948 471.689 295.166 471.974 295.325C473.574 296.384 476.271 296.539 477.992 295.671C478.296 295.545 478.57 295.357 478.797 295.117C479.022 294.878 479.193 294.591 479.299 294.279C479.49 293.568 479.13 292.797 478.209 292.191C476.612 291.132 473.919 290.977 472.196 291.845C471.205 292.345 470.748 293.078 470.852 293.805Z" fill="#184363"/>
<path d="M471.675 292.013C471.832 291.524 472.105 291.082 472.472 290.722C472.84 290.364 473.289 290.101 473.78 289.956C477.446 288.675 480.716 293.153 477.258 294.763C474.918 295.868 470.933 294.575 471.675 292.013Z" fill="#3B88FB"/>
<path d="M457.977 299.575C458.042 299.896 458.177 300.196 458.371 300.459C458.564 300.723 458.813 300.938 459.098 301.095C460.696 302.153 463.393 302.308 465.111 301.44C465.416 301.315 465.691 301.126 465.919 300.887C466.143 300.645 466.317 300.36 466.424 300.048C466.61 299.338 466.252 298.567 465.334 297.96C463.734 296.901 461.041 296.747 459.318 297.614C458.325 298.115 457.868 298.847 457.977 299.575Z" fill="#184363"/>
<path d="M458.799 297.78C458.953 297.292 459.224 296.85 459.587 296.49C459.952 296.13 460.396 295.864 460.887 295.716C464.553 294.433 467.821 298.912 464.365 300.521C462.04 301.635 458.071 300.345 458.799 297.78Z" fill="#89C0C9"/>
<path d="M445.054 306.125C445.121 306.444 445.257 306.746 445.45 307.008C445.643 307.269 445.89 307.486 446.175 307.646C447.773 308.704 450.47 308.859 452.188 307.991C452.495 307.866 452.771 307.679 452.996 307.438C453.223 307.198 453.394 306.913 453.501 306.599C453.687 305.888 453.329 305.117 452.413 304.511C450.811 303.452 448.118 303.298 446.395 304.165C445.402 304.666 444.95 305.395 445.054 306.125Z" fill="#184363"/>
<path d="M445.876 304.331C446.03 303.843 446.304 303.398 446.671 303.04C447.038 302.683 447.485 302.419 447.978 302.274C451.647 300.993 454.913 305.472 451.456 307.079C449.117 308.186 445.153 306.895 445.876 304.331Z" fill="#11A0A9"/>
<path d="M485.944 313.134C485.843 312.361 486.304 311.599 487.348 311.073L490.991 309.241C492.818 308.32 495.667 308.484 497.364 309.608C498.208 310.166 498.606 310.857 498.568 311.522L498.425 313.999C498.386 314.674 497.903 315.322 496.987 315.783L493.342 317.615C491.517 318.536 488.67 318.372 486.974 317.25C486.13 316.694 485.734 316.008 485.768 315.343L485.91 312.856C485.913 312.948 485.925 313.042 485.944 313.134Z" fill="#1D4F73"/>
<path d="M487.347 311.072C485.525 311.993 485.418 313.649 487.115 314.763C488.814 315.877 491.647 316.049 493.483 315.13L497.128 313.296C498.955 312.378 499.057 310.722 497.363 309.608C495.671 308.494 492.831 308.322 490.992 309.24L487.347 311.072Z" fill="#3E5878"/>
<path d="M487.347 311.072C485.525 311.993 485.418 313.649 487.115 314.763C488.814 315.877 491.647 316.049 493.483 315.13L497.128 313.296C498.955 312.378 499.057 310.722 497.363 309.608C495.671 308.494 492.831 308.322 490.992 309.24L487.347 311.072Z" fill="url(#paint10_linear_1761_22880)"/>
<path d="M467.862 321.263C467.765 320.49 468.222 319.748 469.271 319.202L472.916 317.37C474.736 316.449 477.588 316.613 479.284 317.735C480.128 318.295 480.524 318.982 480.486 319.646L480.343 322.129C480.304 322.803 479.828 323.446 478.905 323.912L475.263 325.744C473.435 326.665 470.591 326.501 468.894 325.379C468.051 324.821 467.652 324.132 467.686 323.47L467.828 320.985C467.831 321.077 467.843 321.171 467.862 321.263Z" fill="#1D4F73"/>
<path d="M469.261 319.202C467.436 320.123 467.33 321.778 469.027 322.892C470.723 324.007 473.558 324.173 475.395 323.257L479.04 321.42C480.865 320.504 480.974 318.846 479.274 317.735C477.578 316.625 474.743 316.449 472.906 317.37L469.261 319.202Z" fill="#3E5878"/>
<path d="M469.261 319.202C467.436 320.123 467.33 321.778 469.027 322.892C470.723 324.007 473.558 324.173 475.395 323.257L479.04 321.42C480.865 320.504 480.974 318.846 479.274 317.735C477.578 316.625 474.743 316.449 472.906 317.37L469.261 319.202Z" fill="url(#paint11_linear_1761_22880)"/>
<path d="M459.363 311.905C457.538 312.826 457.432 314.482 459.128 315.596C460.825 316.71 463.66 316.877 465.497 315.961L486.5 305.394C488.325 304.473 488.429 302.818 486.734 301.703C485.04 300.589 482.203 300.418 480.361 301.336L459.363 311.905Z" fill="#3E5878"/>
<path d="M459.363 311.905C457.538 312.826 457.432 314.482 459.128 315.596C460.825 316.71 463.66 316.877 465.497 315.961L486.5 305.394C488.325 304.473 488.429 302.818 486.734 301.703C485.04 300.589 482.203 300.418 480.361 301.336L459.363 311.905Z" fill="#184363"/>
<defs>
<linearGradient id="paint0_linear_1761_22880" x1="167.263" y1="159.872" x2="460.824" y2="159.872" gradientUnits="userSpaceOnUse">
<stop stop-color="#15A381"/>
<stop offset="1" stop-color="#316BAB"/>
</linearGradient>
<linearGradient id="paint1_linear_1761_22880" x1="349.133" y1="21.4945" x2="286.308" y2="135.407" gradientUnits="userSpaceOnUse">
<stop stop-color="#9DDACD"/>
<stop offset="1" stop-color="#78AAC5"/>
</linearGradient>
<linearGradient id="paint2_linear_1761_22880" x1="309.243" y1="5.43029" x2="316.407" y2="124.133" gradientUnits="userSpaceOnUse">
<stop stop-color="#15A381"/>
<stop offset="1" stop-color="#316BAB"/>
</linearGradient>
<linearGradient id="paint3_linear_1761_22880" x1="298.176" y1="70.5713" x2="422.173" y2="151.886" gradientUnits="userSpaceOnUse">
<stop stop-color="#9CD9CD"/>
<stop offset="1" stop-color="#78ABC5"/>
</linearGradient>
<linearGradient id="paint4_linear_1761_22880" x1="-213.27" y1="563.801" x2="269.855" y2="-98.836" gradientUnits="userSpaceOnUse">
<stop stop-color="#0AD99C"/>
<stop offset="1" stop-color="#7400FC"/>
</linearGradient>
<linearGradient id="paint5_linear_1761_22880" x1="-147.658" y1="455.131" x2="253.351" y2="-76.198" gradientUnits="userSpaceOnUse">
<stop stop-color="#0AD99C"/>
<stop offset="1" stop-color="#7400FC"/>
</linearGradient>
<linearGradient id="paint6_linear_1761_22880" x1="75.5304" y1="389.66" x2="103.898" y2="350.866" gradientUnits="userSpaceOnUse">
<stop stop-color="#0AD99C"/>
<stop offset="1" stop-color="#7400FC"/>
</linearGradient>
<linearGradient id="paint7_linear_1761_22880" x1="93.6156" y1="397.79" x2="121.968" y2="358.996" gradientUnits="userSpaceOnUse">
<stop stop-color="#0AD99C"/>
<stop offset="1" stop-color="#7400FC"/>
</linearGradient>
<linearGradient id="paint8_linear_1761_22880" x1="798.953" y1="489.807" x2="315.825" y2="-172.83" gradientUnits="userSpaceOnUse">
<stop stop-color="#0AD99C"/>
<stop offset="1" stop-color="#7400FC"/>
</linearGradient>
<linearGradient id="paint9_linear_1761_22880" x1="733.342" y1="381.139" x2="332.331" y2="-150.19" gradientUnits="userSpaceOnUse">
<stop stop-color="#0AD99C"/>
<stop offset="1" stop-color="#7400FC"/>
</linearGradient>
<linearGradient id="paint10_linear_1761_22880" x1="510.151" y1="315.669" x2="481.783" y2="276.873" gradientUnits="userSpaceOnUse">
<stop stop-color="#0AD99C"/>
<stop offset="1" stop-color="#7400FC"/>
</linearGradient>
<linearGradient id="paint11_linear_1761_22880" x1="492.065" y1="323.796" x2="463.712" y2="285.002" gradientUnits="userSpaceOnUse">
<stop stop-color="#0AD99C"/>
<stop offset="1" stop-color="#7400FC"/>
</linearGradient>
</defs>
</svg>
