<svg width="640" height="436" viewBox="0 0 640 436" fill="none" xmlns="http://www.w3.org/2000/svg">
<g clip-path="url(#clip0_1761_22472)">
<path d="M220.533 354.717L219.781 356.012L296.457 400.609C298.086 401.449 299.892 401.887 301.722 401.887C303.554 401.887 305.36 401.449 306.987 400.609L333.989 385.03C335.392 384.333 336.937 383.972 338.502 383.972C340.069 383.972 341.615 384.333 343.017 385.03L386.336 410.069C387.963 410.912 389.769 411.352 391.601 411.352C393.434 411.352 395.24 410.912 396.867 410.069L444.691 382.524L443.941 381.232L396.114 408.693C394.712 409.388 393.166 409.751 391.601 409.751C390.034 409.751 388.488 409.388 387.086 408.693L343.767 383.652C342.14 382.813 340.334 382.374 338.502 382.374C336.672 382.374 334.866 382.813 333.237 383.652L306.237 399.357C304.837 400.064 303.291 400.432 301.722 400.432C300.155 400.432 298.609 400.064 297.209 399.357L220.533 354.717Z" fill="#15A4BA"/>
<path d="M460.246 99.8047L387.383 141.889L387.997 142.95L460.86 100.865L460.246 99.8047Z" fill="#15A4BA"/>
<path d="M344.135 199.166L210.693 276.256L212.134 278.764L346.902 200.561L344.135 199.166Z" fill="#15A4BA"/>
<path d="M77.5012 277.71L30.8082 250.742C29.8306 250.376 28.9882 249.721 28.3934 248.864C27.7986 248.006 27.4799 246.988 27.4799 245.944C27.4799 244.901 27.7986 243.883 28.3934 243.025C28.9882 242.168 29.8306 241.513 30.8082 241.147L43.0121 234.112C43.6653 233.832 44.2333 233.385 44.66 232.816C45.0864 232.247 45.3566 231.577 45.4433 230.871C45.3473 230.162 45.0683 229.49 44.6335 228.922C44.1985 228.353 43.623 227.908 42.9636 227.63L3.33696 204.032C2.3579 203.671 1.51314 203.018 0.916502 202.161C0.319869 201.305 0 200.286 0 199.243C0 198.199 0.319869 197.181 0.916502 196.324C1.51314 195.468 2.3579 194.815 3.33696 194.454L74.4218 153.287L75.2969 154.811L4.16349 195.928C3.51037 196.209 2.94226 196.656 2.51571 197.225C2.08916 197.794 1.81906 198.464 1.7324 199.17C1.8283 199.879 2.10747 200.551 2.54232 201.119C2.97716 201.688 3.55273 202.133 4.21215 202.411L43.8064 225.928C44.7854 226.289 45.6302 226.942 46.2267 227.799C46.8234 228.655 47.1433 229.674 47.1433 230.717C47.1433 231.761 46.8234 232.779 46.2267 233.636C45.6302 234.492 44.7854 235.145 43.8064 235.506L31.6022 242.557C30.9462 242.834 30.3748 243.281 29.9453 243.849C29.5157 244.418 29.2432 245.092 29.155 245.799C29.257 246.508 29.5403 247.18 29.9775 247.746C30.4149 248.314 30.9911 248.759 31.651 249.041L78.344 276.007L77.5012 277.71Z" fill="#15A4BA"/>
<path d="M521.656 350.981L592.888 309.84C594.378 309.281 595.664 308.283 596.571 306.974C597.479 305.667 597.964 304.112 597.964 302.521C597.964 300.93 597.479 299.374 596.571 298.068C595.664 296.758 594.378 295.76 592.888 295.203L574.271 284.472C573.274 284.045 572.407 283.361 571.755 282.494C571.105 281.627 570.694 280.604 570.561 279.527C570.709 278.445 571.134 277.42 571.796 276.553C572.46 275.686 573.339 275.007 574.345 274.582L634.795 238.585C636.288 238.033 637.575 237.037 638.486 235.731C639.396 234.425 639.886 232.871 639.886 231.279C639.886 229.687 639.396 228.133 638.486 226.827C637.575 225.52 636.288 224.524 634.795 223.973L592.888 203.113L591.552 205.437L633.533 226.223C634.529 226.651 635.397 227.333 636.046 228.201C636.699 229.068 637.11 230.091 637.241 231.168C637.095 232.249 636.67 233.275 636.006 234.142C635.342 235.009 634.465 235.688 633.459 236.112L573.059 271.987C571.564 272.539 570.276 273.533 569.366 274.84C568.456 276.147 567.969 277.702 567.969 279.293C567.969 280.884 568.456 282.439 569.366 283.746C570.276 285.05 571.564 286.046 573.059 286.598L591.676 297.353C592.677 297.779 593.547 298.459 594.204 299.327C594.859 300.194 595.274 301.219 595.408 302.298C595.253 303.381 594.82 304.403 594.154 305.27C593.487 306.138 592.608 306.816 591.602 307.244L520.371 348.384L521.656 350.981Z" fill="#15A4BA"/>
<path d="M180.926 81.6837L180.02 80.123L272.53 26.3155C274.494 25.3028 276.672 24.7744 278.882 24.7744C281.092 24.7744 283.271 25.3028 285.234 26.3155L317.81 45.1129C319.504 45.9529 321.367 46.3898 323.257 46.3898C325.147 46.3898 327.01 45.9529 328.704 45.1129L380.967 14.9029C382.931 13.8862 385.107 13.3555 387.319 13.3555C389.529 13.3555 391.708 13.8862 393.671 14.9029L451.372 48.134L450.466 49.6947L392.766 16.5645C391.072 15.7245 389.209 15.2874 387.319 15.2874C385.429 15.2874 383.566 15.7245 381.872 16.5645L329.609 46.7745C327.645 47.7871 325.467 48.3156 323.257 48.3156C321.047 48.3156 318.868 47.7871 316.905 46.7745L284.329 27.826C282.64 26.9734 280.774 26.5293 278.882 26.5293C276.99 26.5293 275.124 26.9734 273.435 27.826L180.926 81.6837Z" fill="#15A4BA"/>
<path style="mix-blend-mode:multiply" d="M226.011 135.176L182.824 160.104L135.088 132.692L178.276 107.764L226.011 135.176Z" fill="url(#paint0_linear_1761_22472)"/>
<path d="M183.594 29.2124L152.042 47.5512C149.656 48.7626 147.017 49.394 144.341 49.394C141.665 49.394 139.026 48.7626 136.64 47.5512L104.885 29.2124C102.741 27.9761 101.663 26.3543 101.675 24.6758L101.471 110.62C101.471 112.242 102.537 113.864 104.68 115.157L136.436 133.485C138.821 134.694 141.457 135.325 144.131 135.325C146.805 135.325 149.442 134.694 151.826 133.485L183.378 115.157C185.476 113.932 186.531 112.333 186.542 110.723L186.735 24.7893C186.746 26.3884 185.692 27.9873 183.594 29.2124Z" fill="url(#paint1_linear_1761_22472)"/>
<path d="M183.594 29.2124L152.042 47.5512C149.656 48.7626 147.017 49.394 144.341 49.394C141.665 49.394 139.026 48.7626 136.64 47.5512L104.885 29.2124C102.741 27.9761 101.663 26.3543 101.675 24.6758L101.471 110.62C101.471 112.242 102.537 113.864 104.68 115.157L136.436 133.485C138.821 134.694 141.457 135.325 144.131 135.325C146.805 135.325 149.442 134.694 151.826 133.485L183.378 115.157C185.476 113.932 186.531 112.333 186.542 110.723L186.735 24.7893C186.746 26.3884 185.692 27.9873 183.594 29.2124Z" fill="url(#paint2_linear_1761_22472)"/>
<path d="M183.538 20.2983C187.802 22.7594 187.825 26.7515 183.595 29.2126L152.043 47.5516C149.657 48.763 147.018 49.3944 144.342 49.3944C141.666 49.3944 139.028 48.763 136.642 47.5516L104.886 29.2126C100.621 26.7515 100.599 22.7594 104.829 20.2983L136.392 1.97073C138.777 0.761198 141.413 0.130859 144.087 0.130859C146.761 0.130859 149.397 0.761198 151.782 1.97073L183.538 20.2983Z" fill="#61B5CA"/>
<path opacity="0.1" d="M179.458 102.49L156.152 115.952C154.847 116.701 153.781 115.952 153.781 114.16V95.2882C153.793 94.3992 154.014 93.5254 154.425 92.7372C154.837 91.9494 155.428 91.2692 156.152 90.7518L179.458 77.3008C180.762 76.5411 181.828 77.3008 181.828 79.0928V97.9194C181.822 98.8143 181.604 99.6948 181.192 100.489C180.78 101.284 180.186 101.969 179.458 102.49Z" fill="white"/>
<path d="M163.948 104.827L162.417 105.711C162.111 105.893 161.861 105.711 161.861 105.292V103.738C161.864 103.531 161.916 103.327 162.013 103.144C162.109 102.961 162.248 102.803 162.417 102.683L163.948 101.799C164.254 101.617 164.504 101.799 164.504 102.218V103.761C164.503 103.97 164.452 104.175 164.355 104.361C164.258 104.546 164.119 104.706 163.948 104.827Z" fill="white"/>
<path d="M167.567 102.727L166.036 103.612C165.73 103.793 165.48 103.612 165.48 103.192V101.638C165.484 101.431 165.535 101.228 165.632 101.044C165.729 100.861 165.867 100.703 166.036 100.584L167.567 99.6991C167.874 99.5175 168.123 99.6991 168.123 100.119V101.661C168.119 101.87 168.067 102.074 167.97 102.259C167.874 102.444 167.736 102.605 167.567 102.727Z" fill="white"/>
<path d="M171.208 100.63L169.677 101.514C169.37 101.684 169.121 101.514 169.121 101.094V99.5407C169.125 99.3321 169.177 99.1274 169.274 98.9425C169.37 98.7573 169.508 98.5973 169.677 98.4747L171.208 97.6013C171.514 97.42 171.764 97.6013 171.764 98.0211V99.5634C171.76 99.7719 171.707 99.9769 171.611 100.162C171.515 100.347 171.376 100.507 171.208 100.63Z" fill="#00FCDA"/>
<path d="M163.948 100.958L162.417 101.843C162.111 102.024 161.861 101.843 161.861 101.423V99.824C161.864 99.6169 161.916 99.4133 162.013 99.2301C162.109 99.0469 162.248 98.8889 162.417 98.7693L163.948 97.8846C164.254 97.7031 164.504 97.8846 164.504 98.3041V99.8467C164.509 100.063 164.461 100.278 164.364 100.471C164.267 100.665 164.124 100.832 163.948 100.958Z" fill="#00FCDA"/>
<path d="M174.85 98.5327L173.319 99.4173C173.013 99.5874 172.764 99.4171 172.764 98.9861V97.4438C172.767 97.2353 172.82 97.0305 172.916 96.8454C173.013 96.6605 173.151 96.5004 173.319 96.3776L174.85 95.493C175.157 95.3229 175.406 95.493 175.406 95.9127V97.4665C175.402 97.6751 175.35 97.8798 175.253 98.065C175.157 98.2499 175.019 98.4099 174.85 98.5327Z" fill="#00FCDA"/>
<path d="M171.208 96.6944L169.677 97.579C169.37 97.7491 169.121 97.579 169.121 97.1595V95.6057C169.125 95.3972 169.177 95.1922 169.274 95.0073C169.37 94.8224 169.508 94.6623 169.677 94.5395L171.208 93.6549C171.514 93.4848 171.764 93.6549 171.764 94.0859V95.6284C171.76 95.837 171.707 96.0417 171.611 96.2266C171.515 96.4118 171.376 96.5718 171.208 96.6944Z" fill="#00FCDA"/>
<path d="M174.85 94.5735L173.319 95.4469C173.013 95.6282 172.764 95.4469 172.764 95.0272V93.4848C172.767 93.2763 172.82 93.0713 172.916 92.8864C173.013 92.7015 173.151 92.5414 173.319 92.4187L174.85 91.534C175.157 91.3639 175.406 91.534 175.406 91.9538V93.5075C175.402 93.7161 175.35 93.9208 175.253 94.1057C175.157 94.2909 175.019 94.4509 174.85 94.5735Z" fill="#00FCDA"/>
<path d="M163.948 96.9109L162.417 97.7955C162.111 97.9769 161.861 97.7955 161.861 97.3758V95.822C161.864 95.6149 161.916 95.4114 162.013 95.2281C162.109 95.0449 162.248 94.887 162.417 94.7673L163.948 93.8827C164.254 93.7011 164.504 93.8827 164.504 94.3024V95.8447C164.503 96.0538 164.452 96.2594 164.355 96.4451C164.258 96.6304 164.119 96.79 163.948 96.9109Z" fill="#00FCDA"/>
<path d="M167.567 94.8111L166.036 95.6957C165.73 95.866 165.48 95.6957 165.48 95.2762V93.7224C165.484 93.5153 165.535 93.3118 165.632 93.1285C165.729 92.9453 165.867 92.7874 166.036 92.6677L167.567 91.7831C167.874 91.6015 168.123 91.7831 168.123 92.2026V93.7451C168.119 93.9537 168.067 94.1584 167.97 94.3433C167.874 94.5284 167.736 94.6885 167.567 94.8111Z" fill="white"/>
<path d="M174.85 90.6165L173.319 91.4896C173.013 91.6712 172.764 91.4896 172.764 91.0701V89.5276C172.767 89.319 172.82 89.1143 172.916 88.9294C173.013 88.7442 173.151 88.5842 173.319 88.4616L174.85 87.577C175.157 87.4069 175.406 87.577 175.406 87.9965V89.5503C175.402 89.7588 175.35 89.9638 175.253 90.1487C175.157 90.3336 175.019 90.4937 174.85 90.6165Z" fill="#00FCDA"/>
<path opacity="0.1" d="M179.458 73.0017L156.152 86.4639C154.847 87.2124 153.781 86.4639 153.781 84.672V65.8C153.793 64.9108 154.014 64.0372 154.425 63.2491C154.837 62.461 155.428 61.7808 156.152 61.2634L179.458 47.8126C180.762 47.0527 181.828 47.8126 181.828 49.6046V68.4312C181.822 69.3261 181.604 70.2067 181.192 71.001C180.78 71.7953 180.186 72.4809 179.458 73.0017Z" fill="white"/>
<path d="M167.567 73.2408L166.036 74.1254C165.73 74.3069 165.48 74.1254 165.48 73.7059V72.1521C165.484 71.945 165.535 71.7414 165.632 71.5582C165.729 71.375 165.867 71.2171 166.036 71.0974L167.567 70.2128C167.874 70.0312 168.123 70.2128 168.123 70.6323V72.1748C168.119 72.3834 168.067 72.5881 167.97 72.7732C167.874 72.9581 167.736 73.1182 167.567 73.2408Z" fill="white"/>
<path d="M171.208 71.1431L169.677 72.0277C169.37 72.1978 169.121 72.0277 169.121 71.6082V70.0544C169.125 69.8459 169.177 69.6409 169.274 69.456C169.37 69.2711 169.508 69.1111 169.677 68.9883L171.208 68.1151C171.514 67.9335 171.764 68.1151 171.764 68.5346V70.0771C171.76 70.2857 171.707 70.4904 171.611 70.6753C171.515 70.8605 171.376 71.0205 171.208 71.1431Z" fill="#00FCDA"/>
<path d="M174.85 69.0442L173.319 69.9288C173.013 70.0989 172.764 69.9288 172.764 69.4979V67.9553C172.767 67.7468 172.82 67.542 172.916 67.3571C173.013 67.172 173.151 67.0119 173.319 66.8894L174.85 66.0047C175.157 65.8346 175.406 66.0047 175.406 66.4242V67.978C175.402 68.1866 175.35 68.3915 175.253 68.5764C175.157 68.7613 175.019 68.9214 174.85 69.0442Z" fill="#00FCDA"/>
<path d="M163.948 71.3679L162.417 72.2525C162.111 72.4226 161.861 72.2525 161.861 71.8328V70.3356C161.864 70.1285 161.916 69.9249 162.013 69.7417C162.109 69.5585 162.248 69.4006 162.417 69.2809L163.948 68.3962C164.254 68.2149 164.504 68.3962 164.504 68.816V70.3356C164.495 70.5384 164.44 70.7365 164.344 70.9152C164.248 71.0938 164.112 71.2487 163.948 71.3679Z" fill="#00FCDA"/>
<path d="M174.85 65.0853L173.319 65.9585C173.013 66.14 172.764 65.9585 172.764 65.539V63.9964C172.767 63.7879 172.82 63.5831 172.916 63.398C173.013 63.2131 173.151 63.053 173.319 62.9305L174.85 62.0459C175.157 61.8755 175.406 62.0458 175.406 62.4653V64.0191C175.402 64.2277 175.35 64.4324 175.253 64.6176C175.157 64.8025 175.019 64.9625 174.85 65.0853Z" fill="white"/>
<path d="M163.948 67.4225L162.417 68.3072C162.111 68.4887 161.861 68.3072 161.861 67.8874V66.3336C161.864 66.1265 161.916 65.9232 162.013 65.7398C162.109 65.5565 162.248 65.3986 162.417 65.2789L163.948 64.3943C164.254 64.213 164.504 64.3943 164.504 64.814V66.3563C164.503 66.5656 164.452 66.7713 164.355 66.9567C164.258 67.1421 164.119 67.3019 163.948 67.4225Z" fill="#00FCDA"/>
<path d="M167.567 65.3249L166.036 66.2095C165.73 66.3796 165.48 66.2095 165.48 65.7898V64.236C165.484 64.0289 165.535 63.8253 165.632 63.6421C165.729 63.4589 165.867 63.301 166.036 63.1813L167.567 62.2966C167.874 62.1153 168.123 62.2966 168.123 62.7164V64.2587C168.119 64.4672 168.067 64.6722 167.97 64.8571C167.874 65.042 167.736 65.2021 167.567 65.3249Z" fill="white"/>
<path d="M174.85 61.2643L173.319 62.1489C173.013 62.3303 172.764 62.149 172.764 61.7292V60.1754C172.767 59.9683 172.819 59.7648 172.915 59.5815C173.012 59.3983 173.15 59.2404 173.319 59.1207L174.85 58.2361C175.157 58.0548 175.406 58.2361 175.406 58.6558V60.1981C175.402 60.4067 175.35 60.6117 175.253 60.7966C175.157 60.9815 175.019 61.1415 174.85 61.2643Z" fill="#00FCDA"/>
<path style="mix-blend-mode:multiply" d="M537.079 421.681L512.583 435.812L474.432 413.888L498.916 399.758L537.079 421.681Z" fill="url(#paint3_linear_1761_22472)"/>
<path d="M450.331 371.463V280.289L425.629 294.546V367.617C425.629 373.124 427.079 378.532 429.833 383.301C432.586 388.069 436.546 392.027 441.315 394.78L475.611 414.593L500.312 400.372L450.331 371.463Z" fill="#1D4F73"/>
<path d="M452.426 362.061V281.412L427.725 295.667V367.539C427.725 372.543 429.041 377.46 431.545 381.793C434.046 386.127 437.646 389.727 441.979 392.228L475.609 411.643L500.308 397.389L459.084 373.571C457.061 372.405 455.384 370.728 454.216 368.707C453.045 366.686 452.429 364.395 452.426 362.061Z" fill="#659EF7"/>
<path d="M452.426 362.061V281.412L427.725 295.667V367.539C427.725 372.543 429.041 377.46 431.545 381.793C434.046 386.127 437.646 389.727 441.979 392.228L475.609 411.643L500.308 397.389L459.084 373.571C457.061 372.405 455.384 370.728 454.216 368.707C453.045 366.686 452.429 364.395 452.426 362.061Z" fill="url(#paint4_linear_1761_22472)"/>
<path d="M452.431 281.412L450.331 280.289L425.629 294.546L427.729 295.669L452.431 281.412Z" fill="#61B5CA"/>
<path d="M475.611 411.642V414.592L500.311 400.335V397.387L475.611 411.642Z" fill="#263133"/>
<path style="mix-blend-mode:multiply" d="M602.783 382.995L578.296 397.138L540.145 375.205L564.629 361.074L602.783 382.995Z" fill="url(#paint5_linear_1761_22472)"/>
<path d="M516.044 332.777V213.08L491.342 227.336V328.921C491.332 334.435 492.775 339.855 495.527 344.633C498.279 349.411 502.243 353.382 507.016 356.139L541.323 375.953L566.025 361.698L516.044 332.777Z" fill="#1D4F73"/>
<path d="M518.137 323.373V214.213L493.436 228.469V328.851C493.438 333.858 494.754 338.774 497.258 343.11C499.759 347.446 503.357 351.049 507.693 353.552L541.32 372.958L566.021 358.7L524.795 334.885C522.772 333.719 521.092 332.042 519.924 330.021C518.756 328 518.14 325.707 518.137 323.373Z" fill="#659EF7"/>
<path d="M518.137 323.373V214.213L493.436 228.469V328.851C493.438 333.858 494.754 338.774 497.258 343.11C499.759 347.446 503.357 351.049 507.693 353.552L541.32 372.958L566.021 358.7L524.795 334.885C522.772 333.719 521.092 332.042 519.924 330.021C518.756 328 518.14 325.707 518.137 323.373Z" fill="url(#paint6_linear_1761_22472)"/>
<path d="M518.143 214.214L516.044 213.08L491.342 227.336L493.442 228.47L518.143 214.214Z" fill="#61B5CA"/>
<path d="M541.32 372.958V375.906L566.022 361.652V358.701L541.32 372.958Z" fill="#263133"/>
<path style="mix-blend-mode:multiply" d="M569.725 402.345L545.238 416.488L507.084 394.564L531.571 380.422L569.725 402.345Z" fill="url(#paint7_linear_1761_22472)"/>
<path d="M482.981 352.136V308.504L458.281 322.761V348.301C458.274 353.815 459.719 359.233 462.469 364.011C465.221 368.789 469.182 372.76 473.955 375.521L508.261 395.335L532.962 381.066L482.981 352.136Z" fill="#1D4F73"/>
<path d="M485.077 342.721V309.639L460.363 323.896V348.199C460.366 353.206 461.684 358.125 464.188 362.461C466.694 366.799 470.294 370.399 474.632 372.9L508.259 392.318L532.961 378.051L491.735 354.233C489.714 353.065 488.037 351.388 486.866 349.367C485.698 347.346 485.082 345.055 485.077 342.721Z" fill="#659EF7"/>
<path d="M485.077 342.721V309.639L460.363 323.896V348.199C460.366 353.206 461.684 358.125 464.188 362.461C466.694 366.799 470.294 370.399 474.632 372.9L508.259 392.318L532.961 378.051L491.735 354.233C489.714 353.065 488.037 351.388 486.866 349.367C485.698 347.346 485.082 345.055 485.077 342.721Z" fill="url(#paint8_linear_1761_22472)"/>
<path d="M485.081 309.615L482.981 308.482L458.281 322.737L460.367 323.872L485.081 309.615Z" fill="#61B5CA"/>
<path d="M508.262 392.318V395.266L532.963 380.999V378.049L508.262 392.318Z" fill="#263133"/>
<path d="M446.794 265.195C451.142 257.761 451.185 249.698 446.892 247.187C442.596 244.679 435.592 248.671 431.246 256.105C426.901 263.542 426.858 271.605 431.151 274.113C435.444 276.624 442.448 272.632 446.794 265.195Z" fill="#4A4784"/>
<path d="M446.794 265.195C451.142 257.761 451.185 249.698 446.892 247.187C442.596 244.679 435.592 248.671 431.246 256.105C426.901 263.542 426.858 271.605 431.151 274.113C435.444 276.624 442.448 272.632 446.794 265.195Z" fill="url(#paint9_linear_1761_22472)"/>
<path d="M482.74 282.737C482.74 289.758 477.785 298.298 471.672 301.824C465.558 305.353 460.613 302.527 460.613 295.52C460.613 288.511 465.558 279.958 471.672 276.432C477.785 272.904 482.74 275.727 482.74 282.737Z" fill="#4A4784"/>
<path d="M482.74 282.737C482.74 289.758 477.785 298.298 471.672 301.824C465.558 305.353 460.613 302.527 460.613 295.52C460.613 288.511 465.558 279.958 471.672 276.432C477.785 272.904 482.74 275.727 482.74 282.737Z" fill="url(#paint10_linear_1761_22472)"/>
<path style="mix-blend-mode:multiply" d="M169.267 165.889L126.079 190.828L78.3438 163.416L121.531 138.477L169.267 165.889Z" fill="url(#paint11_linear_1761_22472)"/>
<path d="M126.849 59.9373L95.2976 78.2763C92.9112 79.4877 90.2729 80.1191 87.5968 80.1191C84.9207 80.1191 82.2823 79.4877 79.896 78.2763L48.1401 59.9487C45.9968 58.7124 44.9193 57.0794 44.9306 55.4121L44.7266 141.346C44.7266 142.979 45.7925 144.6 47.9361 145.882L79.692 164.221C82.0766 165.431 84.7131 166.061 87.387 166.061C90.061 166.061 92.6972 165.431 95.0821 164.221L126.634 145.882C128.743 144.657 129.787 143.058 129.798 141.459L129.991 55.5256C130.002 57.1133 128.947 58.7124 126.849 59.9373Z" fill="url(#paint12_linear_1761_22472)"/>
<path d="M126.849 59.9373L95.2976 78.2763C92.9112 79.4877 90.2729 80.1191 87.5968 80.1191C84.9207 80.1191 82.2823 79.4877 79.896 78.2763L48.1401 59.9487C45.9968 58.7124 44.9193 57.0794 44.9306 55.4121L44.7266 141.346C44.7266 142.979 45.7925 144.6 47.9361 145.882L79.692 164.221C82.0766 165.431 84.7131 166.061 87.387 166.061C90.061 166.061 92.6972 165.431 95.0821 164.221L126.634 145.882C128.743 144.657 129.787 143.058 129.798 141.459L129.991 55.5256C130.002 57.1133 128.947 58.7124 126.849 59.9373Z" fill="url(#paint13_linear_1761_22472)"/>
<path d="M126.794 51.0567C131.059 53.5178 131.082 57.5099 126.851 59.971L95.2997 78.2759C92.9134 79.4873 90.275 80.1187 87.5989 80.1187C84.9226 80.1187 82.2842 79.4873 79.8981 78.2759L48.1423 59.9483C43.878 57.4872 43.8553 53.4951 48.1423 51.034L79.6485 32.6837C82.0334 31.4742 84.6696 30.8438 87.3435 30.8438C90.0177 30.8438 92.6539 31.4742 95.0388 32.6837L126.794 51.0567Z" fill="#61B5CA"/>
<path opacity="0.1" d="M122.712 133.212L99.4055 146.663C98.1011 147.423 97.0352 146.663 97.0352 144.871V126.045C97.0469 125.156 97.2676 124.282 97.6792 123.494C98.0911 122.706 98.6823 122.025 99.4055 121.508L122.712 108.046C124.016 107.298 125.082 108.046 125.082 109.838V128.676C125.07 129.565 124.85 130.439 124.438 131.227C124.026 132.015 123.435 132.695 122.712 133.212Z" fill="white"/>
<path d="M107.245 135.55L105.725 136.434C105.408 136.605 105.158 136.434 105.158 136.015V134.461C105.162 134.251 105.215 134.045 105.313 133.86C105.412 133.674 105.553 133.515 105.725 133.395L107.245 132.51C107.551 132.34 107.801 132.51 107.801 132.941V134.484C107.797 134.692 107.744 134.897 107.648 135.082C107.552 135.267 107.414 135.427 107.245 135.55Z" fill="white"/>
<path d="M110.827 133.45L109.296 134.324C108.99 134.505 108.74 134.324 108.74 133.904V132.362C108.744 132.153 108.796 131.949 108.893 131.763C108.989 131.578 109.127 131.418 109.296 131.296L110.827 130.411C111.133 130.241 111.383 130.411 111.383 130.831V132.384C111.379 132.593 111.327 132.798 111.23 132.983C111.134 133.168 110.996 133.328 110.827 133.45Z" fill="white"/>
<path d="M114.468 131.342L112.937 132.227C112.63 132.408 112.381 132.227 112.381 131.807V130.265C112.385 130.056 112.437 129.852 112.534 129.667C112.63 129.482 112.768 129.322 112.937 129.199L114.468 128.314C114.774 128.133 115.023 128.314 115.023 128.734V130.288C115.02 130.495 114.968 130.698 114.872 130.882C114.775 131.065 114.637 131.223 114.468 131.342Z" fill="#00FCDA"/>
<path d="M118.107 129.244L116.575 130.128C116.269 130.31 116.02 130.128 116.02 129.709V128.178C116.023 127.97 116.074 127.767 116.171 127.583C116.268 127.4 116.406 127.242 116.575 127.123L118.107 126.238C118.413 126.057 118.662 126.238 118.662 126.658V128.178C118.661 128.387 118.61 128.592 118.513 128.778C118.417 128.963 118.277 129.123 118.107 129.244Z" fill="#00FCDA"/>
<path d="M110.827 129.493L109.296 130.367C108.99 130.548 108.74 130.367 108.74 129.947V128.405C108.744 128.196 108.796 127.991 108.893 127.806C108.989 127.621 109.127 127.461 109.296 127.339L110.827 126.454C111.133 126.284 111.383 126.454 111.383 126.874V128.427C111.379 128.636 111.327 128.841 111.23 129.026C111.134 129.211 110.996 129.371 110.827 129.493Z" fill="#00FCDA"/>
<path d="M118.107 125.286L116.575 126.17C116.269 126.352 116.02 126.17 116.02 125.751V124.197C116.023 123.99 116.074 123.786 116.171 123.603C116.268 123.42 116.406 123.262 116.575 123.142L118.107 122.258C118.413 122.076 118.662 122.258 118.662 122.677V124.22C118.661 124.429 118.61 124.635 118.513 124.82C118.417 125.005 118.277 125.165 118.107 125.286Z" fill="#00FCDA"/>
<path d="M107.245 127.634L105.725 128.518C105.408 128.689 105.158 128.518 105.158 128.088V126.545C105.162 126.335 105.215 126.129 105.313 125.944C105.412 125.759 105.553 125.599 105.725 125.479L107.245 124.594C107.551 124.424 107.801 124.594 107.801 125.025V126.568C107.797 126.776 107.744 126.981 107.648 127.166C107.552 127.351 107.414 127.511 107.245 127.634Z" fill="#00FCDA"/>
<path d="M110.827 125.534L109.296 126.408C108.99 126.589 108.74 126.408 108.74 125.988V124.446C108.744 124.237 108.796 124.032 108.893 123.847C108.989 123.662 109.127 123.502 109.296 123.38L110.827 122.495C111.133 122.325 111.383 122.495 111.383 122.914V124.468C111.379 124.677 111.327 124.882 111.23 125.067C111.134 125.252 110.996 125.412 110.827 125.534Z" fill="white"/>
<path d="M118.107 121.374L116.575 122.259C116.269 122.44 116.02 122.259 116.02 121.839V120.24C116.023 120.033 116.074 119.829 116.171 119.646C116.268 119.463 116.406 119.305 116.575 119.185L118.107 118.301C118.413 118.119 118.662 118.301 118.662 118.72V120.24C118.672 120.46 118.626 120.68 118.529 120.878C118.432 121.076 118.287 121.247 118.107 121.374Z" fill="#00FCDA"/>
<path opacity="0.1" d="M122.712 103.726L99.4055 117.177C98.1011 117.937 97.0352 117.177 97.0352 115.385V96.5585C97.0469 95.6693 97.2676 94.7955 97.6792 94.0076C98.0911 93.2195 98.6823 92.5393 99.4055 92.0219L122.712 78.5597C124.016 77.8112 125.082 78.5597 125.082 80.3516V99.1897C125.07 100.079 124.85 100.953 124.438 101.741C124.026 102.529 123.435 103.209 122.712 103.726Z" fill="white"/>
<path d="M107.245 106.062L105.725 106.946C105.408 107.116 105.158 106.946 105.158 106.527V104.973C105.162 104.763 105.215 104.557 105.313 104.372C105.412 104.186 105.553 104.027 105.725 103.907L107.245 103.022C107.551 102.852 107.801 103.022 107.801 103.453V104.996C107.797 105.204 107.744 105.409 107.648 105.594C107.552 105.779 107.414 105.939 107.245 106.062Z" fill="white"/>
<path d="M110.827 103.964L109.296 104.837C108.99 105.019 108.74 104.837 108.74 104.418V102.875C108.744 102.667 108.796 102.462 108.893 102.277C108.989 102.092 109.127 101.932 109.296 101.809L110.827 100.925C111.133 100.755 111.383 100.925 111.383 101.344V102.898C111.379 103.106 111.327 103.311 111.23 103.496C111.134 103.681 110.996 103.841 110.827 103.964Z" fill="white"/>
<path d="M114.468 101.854L112.937 102.739C112.63 102.92 112.381 102.739 112.381 102.319V100.777C112.385 100.568 112.437 100.363 112.534 100.178C112.63 99.9934 112.768 99.8334 112.937 99.7106L114.468 98.8259C114.774 98.6446 115.023 98.8259 115.023 99.2457V100.799C115.02 101.007 114.968 101.21 114.872 101.393C114.775 101.577 114.637 101.734 114.468 101.854Z" fill="#00FCDA"/>
<path d="M118.107 99.7571L116.575 100.642C116.269 100.823 116.02 100.642 116.02 100.222V98.6912C116.023 98.484 116.074 98.2805 116.171 98.0973C116.268 97.9138 116.406 97.7561 116.575 97.6365L118.107 96.7518C118.413 96.5703 118.662 96.7518 118.662 97.1713V98.6912C118.661 98.9002 118.61 99.1059 118.513 99.2913C118.417 99.4767 118.277 99.6365 118.107 99.7571Z" fill="#00FCDA"/>
<path d="M110.827 100.005L109.296 100.879C108.99 101.06 108.74 100.879 108.74 100.459V98.9165C108.744 98.7079 108.796 98.5032 108.893 98.3181C108.989 98.1331 109.127 97.9731 109.296 97.8503L110.827 96.9657C111.133 96.7956 111.383 96.9657 111.383 97.3854V98.9392C111.379 99.1477 111.327 99.3525 111.23 99.5374C111.134 99.7225 110.996 99.8826 110.827 100.005Z" fill="#00FCDA"/>
<path d="M107.245 102.093L105.725 102.967C105.408 103.148 105.158 102.967 105.158 102.547V100.959C105.162 100.749 105.215 100.544 105.313 100.358C105.412 100.173 105.553 100.013 105.725 99.8933L107.245 99.0086C107.551 98.8385 107.801 99.0086 107.801 99.4284V100.982C107.804 101.198 107.755 101.412 107.658 101.606C107.561 101.799 107.42 101.966 107.245 102.093Z" fill="#00FCDA"/>
<path d="M118.107 95.7974L116.575 96.682C116.269 96.8636 116.02 96.682 116.02 96.2625V94.7087C116.023 94.5016 116.074 94.2981 116.171 94.1149C116.268 93.9314 116.406 93.7737 116.575 93.654L118.107 92.7694C118.413 92.5878 118.662 92.7694 118.662 93.1889V94.7314C118.661 94.9405 118.61 95.1462 118.513 95.3315C118.417 95.5169 118.277 95.6767 118.107 95.7974Z" fill="white"/>
<path d="M107.245 98.1456L105.725 99.0302C105.408 99.2005 105.158 99.0302 105.158 98.5992V97.0569C105.162 96.8469 105.215 96.641 105.313 96.4556C105.412 96.2702 105.553 96.1109 105.725 95.9907L107.245 95.1061C107.551 94.936 107.801 95.1061 107.801 95.5371V97.0796C107.797 97.2882 107.744 97.4929 107.648 97.678C107.552 97.863 107.414 98.023 107.245 98.1456Z" fill="#00FCDA"/>
<path d="M110.827 96.0461L109.296 96.9195C108.99 97.1009 108.74 96.9195 108.74 96.4998V94.9575C108.744 94.7489 108.796 94.544 108.893 94.3591C108.989 94.1742 109.127 94.0141 109.296 93.8913L110.827 93.0067C111.133 92.8366 111.383 93.0067 111.383 93.4264V94.9802C111.379 95.1887 111.327 95.3935 111.23 95.5784C111.134 95.7633 110.996 95.9236 110.827 96.0461Z" fill="white"/>
<path d="M114.469 97.8291L112.915 98.691C112.609 98.8724 112.359 98.691 112.359 98.2713V96.729C112.363 96.5204 112.416 96.3155 112.512 96.1305C112.608 95.9456 112.746 95.7856 112.915 95.6628L114.446 94.7782C114.752 94.6081 115.002 94.7782 115.002 95.1979V96.7517C115.002 96.9602 114.954 97.1659 114.862 97.353C114.77 97.5398 114.635 97.703 114.469 97.8291Z" fill="#00FCDA"/>
<path style="mix-blend-mode:multiply" d="M583.889 108.16L527.875 140.495L465.973 104.951L521.977 72.6055L583.889 108.16Z" fill="url(#paint14_linear_1761_22472)"/>
<path style="mix-blend-mode:multiply" d="M354.415 377.132L264.524 429.029L165.162 371.972L255.054 320.074L354.415 377.132Z" fill="url(#paint15_linear_1761_22472)"/>
<path d="M529.476 79.7954L492.853 101.06C487.941 103.919 479.948 103.919 475.003 101.06L438.177 79.7954C435.681 78.3663 434.446 76.4723 434.446 74.5898L434.219 83.6628C434.219 85.5456 435.454 87.4395 437.938 88.8684L474.764 110.134C479.721 112.992 487.705 112.992 492.614 110.134L529.213 88.8684C531.652 87.4508 532.866 85.6022 532.878 83.7422L533.105 74.6692C533.138 76.5292 531.913 78.3778 529.476 79.7954Z" fill="url(#paint16_linear_1761_22472)"/>
<path d="M529.476 79.7954L492.853 101.06C487.941 103.919 479.948 103.919 475.003 101.06L438.177 79.7954C435.681 78.3663 434.446 76.4723 434.446 74.5898L434.219 83.6628C434.219 85.5456 435.454 87.4395 437.938 88.8684L474.764 110.134C479.721 112.992 487.705 112.992 492.614 110.134L529.213 88.8684C531.652 87.4508 532.866 85.6022 532.878 83.7422L533.105 74.6692C533.138 76.5292 531.913 78.3778 529.476 79.7954Z" fill="url(#paint17_linear_1761_22472)"/>
<path d="M529.404 69.4653C534.361 72.3119 534.382 76.9506 529.47 79.7972L492.85 101.062C487.938 103.92 479.945 103.92 475 101.062L438.174 79.7972C433.229 76.9506 433.205 72.3119 438.117 69.4653L474.704 48.2002C479.615 45.3421 487.611 45.3421 492.544 48.2002L529.404 69.4653Z" fill="#61B5CA"/>
<path d="M529.476 61.6489L492.853 82.9139C487.941 85.772 479.948 85.772 475.003 82.9139L438.177 61.6489C435.681 60.2198 434.446 58.3259 434.446 56.4434L434.219 65.5164C434.219 67.3991 435.454 69.2931 437.938 70.7221L474.764 91.9871C479.721 94.845 487.705 94.845 492.614 91.9871L529.213 70.7221C531.652 69.3043 532.866 67.4557 532.878 65.5957L533.105 56.5227C533.138 58.3827 531.913 60.2313 529.476 61.6489Z" fill="url(#paint18_linear_1761_22472)"/>
<path d="M529.476 61.6489L492.853 82.9139C487.941 85.772 479.948 85.772 475.003 82.9139L438.177 61.6489C435.681 60.2198 434.446 58.3259 434.446 56.4434L434.219 65.5164C434.219 67.3991 435.454 69.2931 437.938 70.7221L474.764 91.9871C479.721 94.845 487.705 94.845 492.614 91.9871L529.213 70.7221C531.652 69.3043 532.866 67.4557 532.878 65.5957L533.105 56.5227C533.138 58.3827 531.913 60.2313 529.476 61.6489Z" fill="url(#paint19_linear_1761_22472)"/>
<path d="M529.404 51.3168C534.361 54.1635 534.382 58.8021 529.47 61.6488L492.85 82.9138C487.938 85.7719 479.945 85.7719 475 82.9138L438.174 61.6488C433.229 58.8021 433.205 54.1635 438.117 51.3168L474.704 30.0518C479.615 27.1937 487.611 27.1937 492.544 30.0518L529.404 51.3168Z" fill="#61B5CA"/>
<path d="M529.476 42.3698L492.853 63.6348C487.941 66.493 479.948 66.493 475.003 63.6348L438.177 42.3698C435.681 40.9408 434.446 39.0468 434.446 37.1641L434.219 46.2373C434.219 48.1198 435.454 50.014 437.938 51.4428L474.764 72.7078C479.721 75.566 487.705 75.566 492.614 72.7078L529.213 51.4428C531.652 50.0252 532.866 48.1767 532.878 46.3166L533.105 37.2436C533.138 39.1034 531.913 40.9522 529.476 42.3698Z" fill="url(#paint20_linear_1761_22472)"/>
<path d="M529.476 42.3698L492.853 63.6348C487.941 66.493 479.948 66.493 475.003 63.6348L438.177 42.3698C435.681 40.9408 434.446 39.0468 434.446 37.1641L434.219 46.2373C434.219 48.1198 435.454 50.014 437.938 51.4428L474.764 72.7078C479.721 75.566 487.705 75.566 492.614 72.7078L529.213 51.4428C531.652 50.0252 532.866 48.1767 532.878 46.3166L533.105 37.2436C533.138 39.1034 531.913 40.9522 529.476 42.3698Z" fill="url(#paint21_linear_1761_22472)"/>
<path d="M529.404 32.0375C534.361 34.8842 534.382 39.5228 529.47 42.3695L492.85 63.6345C487.938 66.4924 479.945 66.4924 475 63.6345L438.174 42.3695C433.229 39.5228 433.205 34.8842 438.117 32.0375L474.704 10.7724C479.615 7.9144 487.611 7.9144 492.544 10.7724L529.404 32.0375Z" fill="#61B5CA"/>
<path d="M283.726 163.824L396.234 228.685C399.941 230.829 405.532 231.056 408.709 229.207L423.124 220.882C426.332 219.034 425.924 215.801 422.228 213.669L309.711 148.797C306.013 146.664 300.411 146.426 297.233 148.286L282.818 156.6C279.632 158.46 280.019 161.692 283.726 163.824Z" fill="#3493BD"/>
<mask id="mask0_1761_22472" style="mask-type:luminance" maskUnits="userSpaceOnUse" x="280" y="147" width="146" height="84">
<path d="M283.726 163.824L396.234 228.685C399.941 230.828 405.532 231.055 408.709 229.207L423.124 220.882C426.332 219.033 425.924 215.801 422.228 213.669L309.711 148.797C306.013 146.664 300.411 146.426 297.233 148.286L282.818 156.599C279.632 158.459 280.019 161.692 283.726 163.824Z" fill="white"/>
</mask>
<g mask="url(#mask0_1761_22472)">
<path d="M283.151 175.029L395.668 239.889C399.366 242.022 404.968 242.261 408.143 240.412L422.558 232.087C425.757 230.238 425.36 227.006 421.652 224.863L309.145 160.001C305.437 157.858 299.835 157.631 296.67 159.48L282.255 167.804C279.046 169.653 279.453 172.885 283.151 175.029Z" fill="#1D4F73"/>
</g>
<path d="M402.92 187.64C402.92 201.17 398.166 210.924 390.443 215.29L381.711 220.314L381.133 219.985C382.43 218.758 383.574 217.375 384.535 215.869C384.986 215.215 385.388 214.529 385.736 213.816C388.233 209.064 389.616 202.996 389.616 195.67C389.616 168.745 370.607 135.924 347.143 122.382C343.017 119.911 338.504 118.155 333.793 117.187C331.259 116.627 328.657 116.443 326.07 116.643C323.21 116.829 320.418 117.601 317.871 118.911L329.529 112.231L330.583 111.574L330.776 111.471C338.454 107.162 348.729 107.627 360.445 114.375C383.899 127.917 402.92 160.727 402.92 187.64Z" fill="#E9E9F8"/>
<path d="M402.92 187.64C402.92 201.17 398.166 210.924 390.443 215.29L381.711 220.314L381.133 219.985C382.43 218.758 383.574 217.375 384.535 215.869C384.986 215.215 385.388 214.529 385.736 213.816C388.233 209.064 389.616 202.996 389.616 195.67C389.616 168.745 370.607 135.924 347.143 122.382C343.017 119.911 338.504 118.155 333.793 117.187C331.259 116.627 328.657 116.443 326.07 116.643C323.21 116.829 320.418 117.601 317.871 118.911L329.529 112.231L330.583 111.574L330.776 111.471C338.454 107.162 348.729 107.627 360.445 114.375C383.899 127.917 402.92 160.727 402.92 187.64Z" fill="url(#paint22_linear_1761_22472)"/>
<path d="M389.552 195.715C389.552 202.996 388.169 209.063 385.673 213.861C385.324 214.574 384.922 215.26 384.471 215.913C383.511 217.42 382.366 218.803 381.069 220.03L313.02 180.778C307.735 169.527 304.582 157.664 304.582 146.652C304.582 134.086 308.734 124.99 315.562 120.317L315.765 120.181C315.903 120.079 316.047 119.984 316.195 119.898L316.297 119.807L316.412 119.728L316.785 119.512L317.59 119.058L317.762 118.968C320.309 117.657 323.101 116.885 325.961 116.699C328.548 116.5 331.15 116.683 333.684 117.244C338.395 118.211 342.908 119.968 347.034 122.438C370.543 135.968 389.552 168.79 389.552 195.715Z" fill="url(#paint23_linear_1761_22472)"/>
<path d="M389.552 195.715C389.552 202.996 388.169 209.063 385.673 213.861C385.324 214.574 384.922 215.26 384.471 215.913C383.511 217.42 382.366 218.803 381.069 220.03L313.02 180.778C307.735 169.527 304.582 157.664 304.582 146.652C304.582 134.086 308.734 124.99 315.562 120.317L315.765 120.181C315.903 120.079 316.047 119.984 316.195 119.898L316.297 119.807L316.412 119.728L316.785 119.512L317.59 119.058L317.762 118.968C320.309 117.657 323.101 116.885 325.961 116.699C328.548 116.5 331.15 116.683 333.684 117.244C338.395 118.211 342.908 119.968 347.034 122.438C370.543 135.968 389.552 168.79 389.552 195.715Z" fill="url(#paint24_linear_1761_22472)"/>
<path d="M508.102 29.8366V36.4488C508.102 40.1574 505.72 43.8772 500.82 46.656C491.066 52.3267 475.213 52.2586 465.402 46.588C463.242 45.4114 461.362 43.7829 459.891 41.8132C458.727 40.2436 458.075 38.3556 458.018 36.4034V29.7461C458.018 33.432 460.514 37.1065 465.402 39.9531C475.213 45.6238 491.066 45.6238 500.82 39.9531C505.675 37.1972 508.102 33.5113 508.102 29.8366Z" fill="url(#paint25_linear_1761_22472)"/>
<path d="M508.102 29.8366V36.4488C508.102 40.1574 505.72 43.8772 500.82 46.656C491.066 52.3267 475.213 52.2586 465.402 46.588C463.242 45.4114 461.362 43.7829 459.891 41.8132C458.727 40.2436 458.075 38.3556 458.018 36.4034V29.7461C458.018 33.432 460.514 37.1065 465.402 39.9531C475.213 45.6238 491.066 45.6238 500.82 39.9531C505.675 37.1972 508.102 33.5113 508.102 29.8366Z" fill="url(#paint26_linear_1761_22472)"/>
<path d="M621.541 203.204V209.816C621.541 213.525 619.159 217.245 614.259 220.023C604.508 225.694 588.652 225.626 578.841 219.955C576.681 218.779 574.801 217.15 573.329 215.18C572.166 213.611 571.514 211.723 571.459 209.771V203.113C571.459 206.799 573.953 210.474 578.841 213.321C588.652 218.991 604.508 218.991 614.259 213.321C619.114 210.564 621.541 206.879 621.541 203.204Z" fill="url(#paint27_linear_1761_22472)"/>
<path d="M621.541 203.204V209.816C621.541 213.525 619.159 217.245 614.259 220.023C604.508 225.694 588.652 225.626 578.841 219.955C576.681 218.779 574.801 217.15 573.329 215.18C572.166 213.611 571.514 211.723 571.459 209.771V203.113C571.459 206.799 573.953 210.474 578.841 213.321C588.652 218.991 604.508 218.991 614.259 213.321C619.114 210.564 621.541 206.879 621.541 203.204Z" fill="url(#paint28_linear_1761_22472)"/>
<path d="M508.102 29.7465V29.8372C508.102 33.5117 505.675 37.1978 500.82 40.0445C491.069 45.7152 475.213 45.6471 465.402 40.0445C460.514 37.2091 458.053 33.5344 458.02 29.8372C457.984 26.1399 460.402 22.4086 465.29 19.63C475.041 13.9593 490.897 13.9593 500.708 19.63C505.596 22.3746 508.068 26.1059 508.102 29.7465Z" fill="#4A4784"/>
<path d="M508.102 29.7465V29.8372C508.102 33.5117 505.675 37.1978 500.82 40.0445C491.069 45.7152 475.213 45.6471 465.402 40.0445C460.514 37.2091 458.053 33.5344 458.02 29.8372C457.984 26.1399 460.402 22.4086 465.29 19.63C475.041 13.9593 490.897 13.9593 500.708 19.63C505.596 22.3746 508.068 26.1059 508.102 29.7465Z" fill="url(#paint29_linear_1761_22472)"/>
<path d="M621.541 203.114V203.204C621.541 206.879 619.114 210.565 614.262 213.412C604.508 219.082 588.653 219.014 578.841 213.412C573.953 210.576 571.493 206.902 571.459 203.204C571.424 199.507 573.841 195.776 578.729 192.997C588.483 187.326 604.338 187.326 614.148 192.997C619.035 195.742 621.508 199.473 621.541 203.114Z" fill="#61B5CA"/>
<path opacity="0.6" d="M487.009 34.7823C486.039 35.3243 484.964 35.653 483.855 35.7462C482.52 35.8711 481.17 35.7753 479.863 35.4626C478.998 35.2624 478.153 34.9736 477.345 34.6007L475.281 35.7916L472.321 34.045L474.34 32.9107C473.693 32.4573 473.09 31.9447 472.536 31.3797C471.848 30.7473 471.342 29.9401 471.074 29.0435L474.987 28.1928C475.226 28.9587 475.642 29.658 476.201 30.2342C476.521 30.598 476.875 30.9322 477.254 31.2323C477.653 31.5481 478.074 31.8326 478.513 32.083C479.075 32.4236 479.672 32.6977 480.296 32.8995C480.592 33.013 480.9 33.093 481.213 33.1377C481.879 33.2722 482.572 33.1762 483.177 32.8654C483.327 32.8052 483.456 32.6977 483.542 32.5586C483.628 32.4198 483.666 32.2569 483.652 32.0942C483.597 31.765 483.442 31.4604 483.21 31.221L483.131 31.1188C482.814 30.7674 482.369 30.3137 481.791 29.7693C481.509 29.5199 481.27 29.2817 481.031 29.0547C480.558 28.5965 480.112 28.1118 479.694 27.603C479.252 27.0712 479.037 26.387 479.092 25.6978C479.182 25.0286 479.751 24.3934 480.783 23.8037C481.753 23.2574 482.828 22.9212 483.936 22.817C485.265 22.6879 486.605 22.7799 487.904 23.0892C488.681 23.2587 489.44 23.4979 490.174 23.8037L492.271 22.6016L495.231 24.3029L493.225 25.4369C493.776 25.7936 494.295 26.2038 494.765 26.6617C495.391 27.2253 495.895 27.9128 496.242 28.6806L492.396 29.6104C491.915 28.6243 491.208 27.7654 490.332 27.1042C490.007 26.8514 489.66 26.6237 489.3 26.4236C488.635 26.0186 487.919 25.7093 487.169 25.505C486.977 25.4627 486.784 25.4324 486.59 25.4142C485.902 25.2991 485.195 25.4147 484.581 25.7432C484.061 26.038 483.936 26.435 484.23 26.8772L484.39 27.0927C484.875 27.7088 485.422 28.275 486.022 28.7826L486.545 29.2702C487.092 29.797 487.608 30.3574 488.086 30.9487C488.313 31.206 488.482 31.5065 488.588 31.8324C488.695 32.1582 488.731 32.502 488.7 32.8429C488.597 33.5687 488.041 34.1812 487.009 34.7823Z" fill="white"/>
<path d="M600.456 208.149C599.486 208.692 598.411 209.02 597.302 209.113C595.965 209.238 594.617 209.142 593.31 208.83C592.443 208.629 591.6 208.341 590.792 207.968L588.728 209.159L585.769 207.412L587.787 206.278C587.14 205.824 586.535 205.312 585.983 204.747C585.293 204.114 584.789 203.307 584.521 202.411L588.432 201.56C588.673 202.326 589.089 203.025 589.646 203.601C589.968 203.965 590.319 204.299 590.702 204.599C591.098 204.915 591.519 205.2 591.961 205.45C592.52 205.791 593.117 206.065 593.74 206.267C594.037 206.38 594.345 206.46 594.66 206.505C595.327 206.639 596.017 206.543 596.621 206.233C596.774 206.172 596.901 206.065 596.987 205.926C597.073 205.787 597.111 205.624 597.097 205.461C597.042 205.132 596.889 204.827 596.655 204.588L596.576 204.486C596.258 204.134 595.816 203.681 595.238 203.136C594.954 202.887 594.718 202.649 594.479 202.422C594.006 201.964 593.559 201.479 593.141 200.97C592.699 200.438 592.481 199.754 592.539 199.065C592.63 198.396 593.196 197.76 594.228 197.171C595.198 196.625 596.273 196.288 597.381 196.184C598.712 196.055 600.052 196.147 601.352 196.456C602.128 196.626 602.885 196.865 603.619 197.171L605.716 195.969L608.679 197.67L606.669 198.804C607.224 199.161 607.74 199.571 608.213 200.029C608.839 200.592 609.34 201.28 609.687 202.048L605.843 202.978C605.36 201.991 604.653 201.133 603.779 200.471C603.451 200.218 603.108 199.991 602.747 199.791C602.083 199.386 601.364 199.077 600.613 198.872C600.422 198.83 600.229 198.8 600.035 198.781C599.347 198.666 598.643 198.782 598.029 199.11C597.505 199.405 597.381 199.802 597.677 200.244L597.835 200.46C598.322 201.076 598.87 201.642 599.469 202.15L599.99 202.637C600.539 203.164 601.053 203.724 601.533 204.316C601.758 204.573 601.93 204.874 602.035 205.199C602.14 205.525 602.178 205.869 602.145 206.21C602.042 206.936 601.488 207.548 600.456 208.149Z" fill="white"/>
<path d="M297.36 333.318V342.391C297.367 342.436 297.367 342.482 297.36 342.527C297.258 343.074 297.023 343.588 296.679 344.028C296.338 344.465 295.893 344.813 295.387 345.045L211.462 393.496C210.228 394.181 208.851 394.568 207.441 394.626C206.032 394.685 204.628 394.415 203.341 393.837L44.9363 302.118C44.5648 301.944 44.2428 301.679 43.9991 301.349C43.7557 301.017 43.5983 300.632 43.5414 300.224C43.5357 300.176 43.5357 300.126 43.5414 300.078V291.311C43.6236 291.686 43.7901 292.037 44.0278 292.335C44.2655 292.636 44.5684 292.88 44.9136 293.045L48.9966 295.417L62.8898 303.456L203.307 384.764C204.594 385.342 205.998 385.612 207.407 385.552C208.817 385.495 210.193 385.108 211.427 384.422L286.983 340.805L291.849 337.991L295.354 335.972C295.886 335.74 296.352 335.372 296.703 334.909C297.055 334.443 297.281 333.896 297.36 333.318Z" fill="url(#paint30_linear_1761_22472)"/>
<path d="M297.36 333.318C297.284 333.894 297.059 334.439 296.713 334.905C296.364 335.368 295.905 335.736 295.375 335.972L291.87 337.991L287.004 340.805L211.449 384.423C210.215 385.108 208.839 385.495 207.429 385.553C206.019 385.613 204.615 385.343 203.328 384.764L62.9114 303.456L49.0182 295.415L44.9352 293.045C44.59 292.881 44.2871 292.637 44.0494 292.336C43.8115 292.035 43.6452 291.686 43.563 291.311C43.3929 290.312 44.0621 289.202 45.5136 288.363L129.44 239.901C130.673 239.22 132.048 238.836 133.455 238.779C134.863 238.722 136.264 238.993 137.549 239.571L295.953 331.29C296.335 331.465 296.665 331.737 296.911 332.078C297.155 332.42 297.305 332.821 297.348 333.24C297.358 333.266 297.363 333.292 297.36 333.318Z" fill="url(#paint31_linear_1761_22472)"/>
<path d="M297.36 333.318C297.284 333.894 297.059 334.439 296.713 334.905C296.364 335.368 295.905 335.736 295.375 335.972L291.87 337.991L287.004 340.805L211.449 384.423C210.215 385.108 208.839 385.495 207.429 385.553C206.019 385.613 204.615 385.343 203.328 384.764L62.9114 303.456L49.0182 295.415L44.9352 293.045C44.59 292.881 44.2871 292.637 44.0494 292.336C43.8115 292.035 43.6452 291.686 43.563 291.311C43.3929 290.312 44.0621 289.202 45.5136 288.363L129.44 239.901C130.673 239.22 132.048 238.836 133.455 238.779C134.863 238.722 136.264 238.993 137.549 239.571L295.953 331.29C296.335 331.465 296.665 331.737 296.911 332.078C297.155 332.42 297.305 332.821 297.348 333.24C297.358 333.266 297.363 333.292 297.36 333.318Z" fill="url(#paint32_linear_1761_22472)"/>
<path opacity="0.3" d="M63.1048 283.826L50.8789 290.892L191.058 372.016L273.962 324.132L133.784 242.996L121.558 250.063C120.061 250.925 119.528 252.196 120.163 253.364L121.774 256.334C122.409 257.468 121.864 258.785 120.367 259.647L79.6746 283.145C77.9044 284.045 75.885 284.327 73.9359 283.95L68.7982 283.021C66.8636 282.65 64.861 282.935 63.1048 283.826Z" fill="#E9E9F8"/>
<path d="M43.5414 300.226V300.078C43.5357 300.128 43.5357 300.176 43.5414 300.226Z" fill="url(#paint33_linear_1761_22472)"/>
<path d="M297.359 333.242V333.321C297.364 333.295 297.364 333.268 297.359 333.242Z" fill="url(#paint34_linear_1761_22472)"/>
<path d="M297.359 342.395V342.531C297.364 342.485 297.364 342.44 297.359 342.395Z" fill="url(#paint35_linear_1761_22472)"/>
<path d="M257.367 272.826V274.675L168.123 326.527V324.678L257.367 272.826Z" fill="url(#paint36_linear_1761_22472)"/>
<path d="M168.123 324.677V326.526L111.723 293.964V292.115L168.123 324.677Z" fill="url(#paint37_linear_1761_22472)"/>
<path d="M257.369 272.874L168.123 324.726L111.723 292.165L200.968 240.301L257.369 272.874Z" fill="url(#paint38_linear_1761_22472)"/>
<path d="M181.299 263.943C181.071 264.074 181.071 264.289 181.299 264.42L185.781 267.008C186.009 267.139 186.38 267.139 186.608 267.008L189.443 265.371C189.811 265.159 190.442 265.309 190.442 265.61V281.621C190.442 281.807 190.18 281.958 189.857 281.958H169.79C169.467 281.958 169.205 282.108 169.205 282.297V303.076C169.205 303.262 169.467 303.413 169.79 303.413H176.053C176.376 303.413 176.638 303.262 176.638 303.076V286.588C176.638 286.401 176.9 286.248 177.223 286.248H197.29C197.613 286.248 197.875 286.098 197.875 285.912V265.61C197.875 265.309 198.505 265.159 198.874 265.371L201.708 267.008C201.937 267.139 202.307 267.139 202.536 267.008L207.017 264.42C207.246 264.289 207.246 264.074 207.017 263.943L194.572 256.757C194.344 256.625 193.973 256.625 193.744 256.757L181.299 263.943Z" fill="white" fill-opacity="0.6"/>
<path d="M621.541 191.22V197.832C621.541 201.54 619.159 205.26 614.259 208.039C604.508 213.71 588.652 213.641 578.841 207.971C576.681 206.794 574.801 205.166 573.329 203.196C572.166 201.627 571.514 199.738 571.459 197.786V191.129C571.459 194.815 573.953 198.49 578.841 201.336C588.652 207.007 604.508 207.007 614.259 201.336C619.114 198.58 621.541 194.894 621.541 191.22Z" fill="url(#paint39_linear_1761_22472)"/>
<path d="M621.541 191.22V197.832C621.541 201.54 619.159 205.26 614.259 208.039C604.508 213.71 588.652 213.641 578.841 207.971C576.681 206.794 574.801 205.166 573.329 203.196C572.166 201.627 571.514 199.738 571.459 197.786V191.129C571.459 194.815 573.953 198.49 578.841 201.336C588.652 207.007 604.508 207.007 614.259 201.336C619.114 198.58 621.541 194.894 621.541 191.22Z" fill="url(#paint40_linear_1761_22472)"/>
<path d="M621.541 191.129V191.22C621.541 194.895 619.114 198.581 614.262 201.427C604.508 207.098 588.653 207.03 578.841 201.427C573.953 198.592 571.493 194.917 571.459 191.22C571.424 187.523 573.841 183.791 578.729 181.013C588.483 175.342 604.338 175.342 614.148 181.013C619.035 183.757 621.508 187.489 621.541 191.129Z" fill="#61B5CA"/>
<path d="M600.456 196.165C599.486 196.707 598.411 197.036 597.302 197.129C595.965 197.254 594.617 197.158 593.31 196.845C592.443 196.645 591.6 196.356 590.792 195.983L588.728 197.174L585.769 195.428L587.787 194.294C587.14 193.84 586.535 193.327 585.983 192.763C585.293 192.13 584.789 191.323 584.521 190.426L588.432 189.575C588.673 190.341 589.089 191.041 589.646 191.617C589.968 191.981 590.319 192.315 590.702 192.615C591.098 192.931 591.519 193.215 591.961 193.466C592.52 193.806 593.117 194.081 593.74 194.282C594.037 194.396 594.345 194.476 594.66 194.52C595.327 194.655 596.017 194.559 596.621 194.248C596.774 194.188 596.901 194.08 596.987 193.941C597.073 193.802 597.111 193.64 597.097 193.477C597.042 193.148 596.889 192.843 596.655 192.604L596.576 192.502C596.258 192.15 595.816 191.696 595.238 191.152C594.954 190.903 594.718 190.664 594.479 190.437C594.006 189.979 593.559 189.494 593.141 188.986C592.699 188.454 592.481 187.77 592.539 187.08C592.63 186.411 593.196 185.776 594.228 185.186C595.198 184.64 596.273 184.304 597.381 184.2C598.712 184.071 600.052 184.163 601.352 184.472C602.128 184.641 602.885 184.88 603.619 185.186L605.716 183.984L608.679 185.686L606.669 186.82C607.224 187.176 607.74 187.587 608.213 188.044C608.839 188.608 609.34 189.295 609.687 190.063L605.843 190.993C605.36 190.007 604.653 189.148 603.779 188.487C603.451 188.234 603.108 188.007 602.747 187.806C602.083 187.401 601.364 187.092 600.613 186.888C600.422 186.845 600.229 186.815 600.035 186.797C599.347 186.682 598.643 186.797 598.029 187.126C597.505 187.421 597.381 187.818 597.677 188.26L597.835 188.475C598.322 189.091 598.87 189.658 599.469 190.165L599.99 190.653C600.539 191.18 601.053 191.74 601.533 192.331C601.758 192.589 601.93 192.889 602.035 193.215C602.14 193.541 602.178 193.885 602.145 194.226C602.042 194.951 601.488 195.564 600.456 196.165Z" fill="white"/>
<path d="M621.541 177.782V184.394C621.541 188.103 619.159 191.823 614.259 194.601C604.508 200.272 588.652 200.204 578.841 194.533C576.681 193.357 574.801 191.728 573.329 189.758C572.166 188.189 571.514 186.301 571.459 184.349V177.691C571.459 181.377 573.953 185.052 578.841 187.899C588.652 193.569 604.508 193.569 614.259 187.899C619.114 185.143 621.541 181.457 621.541 177.782Z" fill="url(#paint41_linear_1761_22472)"/>
<path d="M621.541 177.782V184.394C621.541 188.103 619.159 191.823 614.259 194.601C604.508 200.272 588.652 200.204 578.841 194.533C576.681 193.357 574.801 191.728 573.329 189.758C572.166 188.189 571.514 186.301 571.459 184.349V177.691C571.459 181.377 573.953 185.052 578.841 187.899C588.652 193.569 604.508 193.569 614.259 187.899C619.114 185.143 621.541 181.457 621.541 177.782Z" fill="url(#paint42_linear_1761_22472)"/>
<path d="M621.541 177.692V177.783C621.541 181.457 619.114 185.143 614.262 187.99C604.508 193.66 588.653 193.592 578.841 187.99C573.953 185.154 571.493 181.48 571.459 177.783C571.424 174.085 573.841 170.354 578.729 167.575C588.483 161.905 604.338 161.905 614.148 167.575C619.035 170.32 621.508 174.051 621.541 177.692Z" fill="#61B5CA"/>
<path d="M600.456 182.727C599.486 183.27 598.411 183.598 597.302 183.691C595.965 183.816 594.617 183.72 593.31 183.408C592.443 183.208 591.6 182.919 590.792 182.546L588.755 183.011L585.769 181.99L587.787 180.856C587.14 180.402 586.535 179.89 585.983 179.325C585.293 178.692 584.789 177.885 584.521 176.989L588.432 176.138C588.673 176.904 589.089 177.603 589.646 178.18C589.968 178.543 590.319 178.877 590.702 179.177C591.098 179.493 591.519 179.778 591.961 180.028C592.52 180.369 593.117 180.643 593.74 180.845C594.037 180.958 594.345 181.038 594.66 181.083C595.327 181.217 596.017 181.121 596.621 180.811C596.774 180.75 596.901 180.643 596.987 180.504C597.073 180.365 597.111 180.202 597.097 180.039C597.042 179.71 596.889 179.406 596.655 179.166L596.576 179.064C596.258 178.713 595.816 178.259 595.238 177.714C594.954 177.465 594.718 177.227 594.479 177C594.006 176.542 593.559 176.057 593.141 175.548C592.699 175.016 592.481 174.332 592.539 173.643C592.63 172.974 593.196 172.339 594.228 171.749C595.198 171.203 596.273 170.867 597.381 170.762C598.712 170.633 600.052 170.725 601.352 171.034C602.128 171.204 602.885 171.443 603.619 171.749L605.716 170.547L608.679 172.248L606.669 173.382C607.224 173.739 607.74 174.149 608.213 174.607C608.839 175.17 609.34 175.858 609.687 176.626L605.843 177.556C605.36 176.569 604.653 175.711 603.779 175.049C603.451 174.797 603.108 174.569 602.747 174.369C602.083 173.964 601.364 173.655 600.613 173.45C600.422 173.408 600.229 173.378 600.035 173.359C599.347 173.244 598.643 173.36 598.029 173.688C597.505 173.983 597.381 174.38 597.677 174.822L597.835 175.038C598.322 175.654 598.87 176.22 599.469 176.728L599.99 177.215C600.539 177.742 601.053 178.303 601.533 178.894C601.758 179.151 601.93 179.452 602.035 179.778C602.14 180.103 602.178 180.447 602.145 180.788C602.042 181.514 601.488 182.126 600.456 182.727Z" fill="white"/>
<path d="M621.541 162.944V169.556C621.541 173.265 619.159 176.985 614.259 179.763C604.508 185.434 588.652 185.366 578.841 179.695C576.681 178.519 574.801 176.89 573.329 174.921C572.166 173.351 571.514 171.463 571.459 169.511V162.854C571.459 166.539 573.953 170.214 578.841 173.061C588.652 178.731 604.508 178.731 614.259 173.061C619.114 170.305 621.541 166.619 621.541 162.944Z" fill="url(#paint43_linear_1761_22472)"/>
<path d="M621.541 162.944V169.556C621.541 173.265 619.159 176.985 614.259 179.763C604.508 185.434 588.652 185.366 578.841 179.695C576.681 178.519 574.801 176.89 573.329 174.921C572.166 173.351 571.514 171.463 571.459 169.511V162.854C571.459 166.539 573.953 170.214 578.841 173.061C588.652 178.731 604.508 178.731 614.259 173.061C619.114 170.305 621.541 166.619 621.541 162.944Z" fill="url(#paint44_linear_1761_22472)"/>
<path d="M621.541 162.854V162.944C621.541 166.619 619.114 170.305 614.262 173.152C604.508 178.822 588.653 178.754 578.841 173.152C573.953 170.316 571.493 166.642 571.459 162.944C571.424 159.247 573.841 155.516 578.729 152.737C588.483 147.067 604.338 147.067 614.148 152.737C619.035 155.482 621.508 159.213 621.541 162.854Z" fill="#61B5CA"/>
<path d="M600.456 167.89C599.486 168.432 598.411 168.761 597.302 168.854C595.965 168.979 594.617 168.883 593.31 168.57C592.443 168.37 591.6 168.081 590.792 167.708L588.728 168.899L585.769 167.152L587.787 166.018C587.14 165.565 586.535 165.052 585.983 164.487C585.293 163.855 584.789 163.047 584.521 162.151L588.432 161.3C588.673 162.066 589.089 162.765 589.646 163.342C589.968 163.706 590.319 164.039 590.702 164.34C591.098 164.656 591.519 164.94 591.961 165.19C592.52 165.531 593.117 165.805 593.74 166.007C594.037 166.121 594.345 166.2 594.66 166.245C595.327 166.38 596.017 166.284 596.621 165.973C596.774 165.913 596.901 165.805 596.987 165.666C597.073 165.527 597.111 165.364 597.097 165.202C597.042 164.873 596.889 164.568 596.655 164.328L596.576 164.226C596.258 163.875 595.816 163.421 595.238 162.877C594.954 162.627 594.718 162.389 594.479 162.162C594.006 161.704 593.559 161.219 593.141 160.71C592.699 160.178 592.481 159.495 592.539 158.805C592.63 158.136 593.196 157.501 594.228 156.911C595.198 156.365 596.273 156.029 597.381 155.924C598.712 155.795 600.052 155.887 601.352 156.197C602.128 156.366 602.885 156.605 603.619 156.911L605.716 155.709L608.679 157.41L606.669 158.544C607.224 158.901 607.74 159.311 608.213 159.769C608.839 160.333 609.34 161.02 609.687 161.788L605.843 162.718C605.36 161.732 604.653 160.873 603.779 160.211C603.451 159.959 603.108 159.731 602.747 159.531C602.083 159.126 601.364 158.817 600.613 158.612C600.422 158.57 600.229 158.54 600.035 158.522C599.347 158.407 598.643 158.522 598.029 158.85C597.505 159.145 597.381 159.542 597.677 159.985L597.835 160.2C598.322 160.816 598.87 161.383 599.469 161.89L599.99 162.378C600.539 162.904 601.053 163.465 601.533 164.056C601.758 164.313 601.93 164.614 602.035 164.94C602.14 165.266 602.178 165.61 602.145 165.95C602.042 166.676 601.488 167.288 600.456 167.89Z" fill="white"/>
<path d="M621.541 149.507V156.119C621.541 159.828 619.159 163.547 614.259 166.326C604.508 171.997 588.652 171.929 578.841 166.258C576.681 165.082 574.801 163.453 573.329 161.483C572.166 159.914 571.514 158.026 571.459 156.074V149.416C571.459 153.102 573.953 156.777 578.841 159.623C588.652 165.294 604.508 165.294 614.259 159.623C619.114 156.867 621.541 153.181 621.541 149.507Z" fill="url(#paint45_linear_1761_22472)"/>
<path d="M621.541 149.507V156.119C621.541 159.828 619.159 163.547 614.259 166.326C604.508 171.997 588.652 171.929 578.841 166.258C576.681 165.082 574.801 163.453 573.329 161.483C572.166 159.914 571.514 158.026 571.459 156.074V149.416C571.459 153.102 573.953 156.777 578.841 159.623C588.652 165.294 604.508 165.294 614.259 159.623C619.114 156.867 621.541 153.181 621.541 149.507Z" fill="url(#paint46_linear_1761_22472)"/>
<path d="M621.541 149.416V149.507C621.541 153.182 619.114 156.867 614.262 159.714C604.508 165.385 588.653 165.317 578.841 159.714C573.953 156.879 571.493 153.204 571.459 149.507C571.424 145.81 573.841 142.078 578.729 139.3C588.483 133.629 604.338 133.629 614.148 139.3C619.035 142.044 621.508 145.776 621.541 149.416Z" fill="#61B5CA"/>
<path opacity="0.6" d="M600.456 154.454C599.486 154.996 598.411 155.325 597.302 155.418C595.965 155.543 594.617 155.447 593.31 155.135C592.443 154.934 591.6 154.645 590.792 154.273L588.728 155.463L585.769 153.717L587.787 152.583C587.14 152.129 586.535 151.617 585.983 151.052C585.293 150.419 584.789 149.612 584.521 148.715L588.432 147.865C588.673 148.631 589.089 149.33 589.646 149.906C589.968 150.27 590.319 150.604 590.702 150.904C591.098 151.22 591.519 151.504 591.961 151.755C592.52 152.096 593.117 152.37 593.74 152.571C594.037 152.685 594.345 152.765 594.66 152.809C595.327 152.944 596.017 152.848 596.621 152.537C596.774 152.477 596.901 152.369 596.987 152.231C597.073 152.092 597.111 151.929 597.097 151.766C597.042 151.437 596.889 151.132 596.655 150.893L596.576 150.791C596.258 150.439 595.816 149.985 595.238 149.441C594.954 149.192 594.718 148.953 594.479 148.727C594.006 148.268 593.559 147.784 593.141 147.275C592.699 146.743 592.481 146.059 592.539 145.37C592.63 144.7 593.196 144.065 594.228 143.476C595.198 142.929 596.273 142.593 597.381 142.489C598.712 142.36 600.052 142.452 601.352 142.761C602.128 142.931 602.885 143.17 603.619 143.476L605.716 142.273L608.679 143.975L606.669 145.109C607.224 145.466 607.74 145.876 608.213 146.334C608.839 146.897 609.34 147.585 609.687 148.352L605.843 149.282C605.36 148.296 604.653 147.437 603.779 146.776C603.451 146.523 603.108 146.296 602.747 146.096C602.083 145.69 601.364 145.381 600.613 145.177C600.422 145.135 600.229 145.104 600.035 145.086C599.347 144.971 598.643 145.087 598.029 145.415C597.505 145.71 597.381 146.107 597.677 146.549L597.835 146.765C598.322 147.381 598.87 147.947 599.469 148.454L599.99 148.942C600.539 149.469 601.053 150.029 601.533 150.621C601.758 150.878 601.93 151.178 602.035 151.504C602.14 151.83 602.178 152.174 602.145 152.515C602.042 153.24 601.488 153.853 600.456 154.454Z" fill="white"/>
<path opacity="0.6" fill-rule="evenodd" clip-rule="evenodd" d="M355.027 151.245C356.412 151.263 357.906 151.713 359.37 152.554C363.773 155.067 366.747 160.465 366.843 164.926C366.883 166.643 366.484 168.155 365.691 169.291C364.616 170.837 362.961 171.714 361.35 172.568C360.975 172.766 360.605 172.963 360.244 173.166C358.973 173.879 356.799 176.52 355.767 179.897C355.146 181.932 354.649 184.059 354.153 186.184L354.145 186.217C353.754 187.889 353.295 190.775 352.86 193.525C352.516 195.689 352.186 197.768 351.912 199.104C351.615 200.553 351.15 201.646 350.555 202.449L332.518 192.036C332.461 191.797 332.406 191.553 332.356 191.305C332.028 189.709 331.615 187.295 331.19 184.79C330.662 181.685 330.108 178.441 329.663 176.453C329.088 173.877 328.51 171.32 327.81 168.746C326.651 164.495 324.36 160.085 323.046 158.33C322.683 157.846 322.31 157.362 321.935 156.874C320.263 154.703 318.543 152.47 317.396 150.026C316.555 148.238 316.101 146.386 316.085 144.679C316.037 140.246 318.882 137.174 323.247 138.142C324.704 138.462 326.204 139.202 327.611 140.294C329.016 141.387 330.282 142.796 331.293 144.392C333.213 147.444 333.849 150.673 333.447 153.494C333.357 154.115 333.261 154.735 333.163 155.355C332.865 157.279 332.566 159.198 332.504 161.126C332.399 164.986 333.013 169.13 334.31 173.317C335.48 177.126 337.129 180.359 340.552 182.294C340.81 182.44 341.637 182.829 341.9 182.918C341.964 182.94 342.072 182.978 342.201 183.023C342.58 183.158 343.144 183.358 343.333 183.401C346.737 184.189 348.288 182.232 349.351 179.336C350.524 176.134 351.006 172.428 350.77 168.432C350.646 166.419 350.278 164.228 349.907 162.036C349.79 161.336 349.671 160.636 349.561 159.942C349.059 156.76 349.597 153.998 351.441 152.449C352.409 151.641 353.641 151.227 355.027 151.245Z" fill="white"/>
<path opacity="0.6" d="M438.413 268.878L438.527 267.024C437.894 267.404 437.314 267.7 436.783 267.915C436.26 268.118 435.809 268.24 435.434 268.283L435.553 266.365C435.933 266.336 436.406 266.231 436.974 266.047C437.541 265.863 438.095 265.615 438.635 265.302L438.847 261.924C438.124 262.089 437.538 262.158 437.094 262.127C436.652 262.096 436.339 261.936 436.15 261.647C435.962 261.355 435.885 260.911 435.923 260.316C435.962 259.702 436.124 259.098 436.413 258.496C436.707 257.887 437.096 257.308 437.584 256.757C438.076 256.205 438.635 255.71 439.261 255.275L439.354 253.806L440.35 253.188L440.259 254.63C440.828 254.296 441.346 254.045 441.819 253.88C442.297 253.706 442.749 253.596 443.174 253.551L442.51 255.574C442.137 255.631 441.748 255.732 441.341 255.875C440.933 256.016 440.536 256.188 440.152 256.386L439.944 259.683C440.553 259.537 441.093 259.451 441.561 259.427C442.034 259.399 442.397 259.509 442.646 259.76C442.901 259.998 443.009 260.455 442.966 261.128C442.911 262.01 442.591 262.911 442.001 263.83C441.413 264.743 440.589 265.584 439.528 266.351L439.409 268.262L438.413 268.878ZM439.638 264.611C440.133 264.236 440.508 263.859 440.763 263.482C441.017 263.099 441.158 262.719 441.179 262.349C441.196 262.096 441.158 261.914 441.067 261.804C440.981 261.69 440.833 261.63 440.627 261.625C440.426 261.618 440.157 261.654 439.817 261.738L439.638 264.611ZM438.974 259.86L439.151 257.041C438.852 257.261 438.597 257.488 438.386 257.724C438.174 257.958 438.011 258.195 437.899 258.431C437.787 258.67 437.722 258.909 437.705 259.148C437.691 259.413 437.722 259.609 437.803 259.738C437.882 259.869 438.018 259.941 438.21 259.955C438.405 259.965 438.661 259.934 438.974 259.86Z" fill="white"/>
<path opacity="0.6" d="M475.502 282.147C475.209 282.247 474.91 282.434 474.631 282.694C474.351 282.954 474.103 283.277 473.904 283.633C473.527 284.316 473.41 285.007 473.501 285.589C473.584 286.115 473.692 286.636 473.716 287.169C473.751 287.976 473.641 288.86 473.393 289.765C473.171 290.585 472.851 291.297 472.167 291.777C472.117 291.813 471.933 291.915 471.881 291.946C471.828 291.978 471.663 292.054 471.611 292.071C470.928 292.31 470.608 291.935 470.383 291.344C470.137 290.699 470.027 289.933 470.06 289.089C470.084 288.53 470.194 287.895 470.275 287.283C470.366 286.605 470.249 286.036 469.872 285.752C469.673 285.604 469.425 285.544 469.143 285.58C468.864 285.613 468.565 285.742 468.271 285.95C467.397 286.574 466.814 287.771 466.807 288.707C466.804 289.068 466.89 289.376 467.055 289.598C467.327 289.968 467.774 290.109 468.164 290.293C468.424 290.418 468.871 290.922 469.088 291.607C469.222 292.023 469.329 292.458 469.437 292.897C469.587 293.511 469.793 294.93 469.929 295.551C470.201 296.798 471.033 296.677 471.864 296.27L471.895 296.254C472.726 295.783 473.572 295.023 473.845 293.492C473.978 292.728 474.186 291.091 474.337 290.32C474.444 289.77 474.552 289.218 474.685 288.664C474.903 287.747 475.35 286.77 475.61 286.375C475.999 285.781 476.446 285.171 476.721 284.512C476.883 284.118 476.969 283.721 476.967 283.363C476.962 282.429 476.382 281.844 475.502 282.147Z" fill="white"/>
<path d="M512.219 199.312C516.567 191.877 516.61 183.815 512.315 181.305C508.022 178.795 501.018 182.788 496.672 190.223C492.324 197.658 492.281 205.72 496.576 208.23C500.869 210.74 507.874 206.748 512.219 199.312Z" fill="#4A4784"/>
<path d="M512.219 199.312C516.567 191.877 516.61 183.815 512.315 181.305C508.022 178.795 501.018 182.788 496.672 190.223C492.324 197.658 492.281 205.72 496.576 208.23C500.869 210.74 507.874 206.748 512.219 199.312Z" fill="url(#paint47_linear_1761_22472)"/>
<g opacity="0.6">
<path d="M506.79 198.201C506.379 198.729 505.848 199.191 505.261 199.552C504.026 200.308 503.144 200.159 502.556 199.209L506.319 196.903V195.248L502.146 197.806C502.086 197.567 502.086 197.291 502.086 196.946C502.086 196.67 502.086 196.394 502.086 196.256L506.319 193.662V192.007L502.439 194.385C502.733 193.516 503.084 192.748 503.615 192.01C504.085 191.308 504.673 190.741 505.32 190.344C505.908 189.984 506.496 189.693 506.907 189.716C507.32 189.74 507.788 189.865 508.259 190.198L509.437 187.753C508.378 186.954 507.024 187.024 505.261 188.105C504.085 188.825 503.084 189.851 502.146 191.324C501.204 192.728 500.557 194.228 500.203 195.823L498.5 196.868V198.385L499.91 197.521C499.91 197.659 499.91 197.934 499.91 198.21C499.91 198.486 499.91 198.831 499.969 199.071L498.5 199.971V201.626L500.323 200.509C500.674 201.603 501.321 202.242 502.203 202.46C503.084 202.677 504.143 202.443 505.261 201.758C506.966 200.713 508.319 199.195 509.317 197.066L508.142 196.131C507.671 196.971 507.201 197.673 506.79 198.201Z" fill="white"/>
</g>
</g>
<defs>
<linearGradient id="paint0_linear_1761_22472" x1="190.025" y1="149.194" x2="157.702" y2="97.1367" gradientUnits="userSpaceOnUse">
<stop stop-color="white"/>
<stop offset="1" stop-color="#3597F1"/>
</linearGradient>
<linearGradient id="paint1_linear_1761_22472" x1="101.482" y1="80.0328" x2="186.746" y2="80.0328" gradientUnits="userSpaceOnUse">
<stop stop-color="#649EF7"/>
<stop offset="1" stop-color="#5485DC"/>
</linearGradient>
<linearGradient id="paint2_linear_1761_22472" x1="21.324" y1="117.319" x2="418.323" y2="-97.6502" gradientUnits="userSpaceOnUse">
<stop stop-color="#0AD99C"/>
<stop offset="1" stop-color="#7400FC"/>
</linearGradient>
<linearGradient id="paint3_linear_1761_22472" x1="513.264" y1="429.88" x2="487.654" y2="388.632" gradientUnits="userSpaceOnUse">
<stop stop-color="white"/>
<stop offset="1" stop-color="#3597F1"/>
</linearGradient>
<linearGradient id="paint4_linear_1761_22472" x1="359.496" y1="390.453" x2="738.429" y2="242.047" gradientUnits="userSpaceOnUse">
<stop stop-color="#0AD99C"/>
<stop offset="1" stop-color="#7400FC"/>
</linearGradient>
<linearGradient id="paint5_linear_1761_22472" x1="578.977" y1="391.196" x2="553.367" y2="349.946" gradientUnits="userSpaceOnUse">
<stop stop-color="white"/>
<stop offset="1" stop-color="#3597F1"/>
</linearGradient>
<linearGradient id="paint6_linear_1761_22472" x1="425.207" y1="347.126" x2="821.365" y2="219.841" gradientUnits="userSpaceOnUse">
<stop stop-color="#0AD99C"/>
<stop offset="1" stop-color="#7400FC"/>
</linearGradient>
<linearGradient id="paint7_linear_1761_22472" x1="545.907" y1="410.544" x2="520.297" y2="369.308" gradientUnits="userSpaceOnUse">
<stop stop-color="white"/>
<stop offset="1" stop-color="#3597F1"/>
</linearGradient>
<linearGradient id="paint8_linear_1761_22472" x1="392.125" y1="378.863" x2="708.723" y2="183.523" gradientUnits="userSpaceOnUse">
<stop stop-color="#0AD99C"/>
<stop offset="1" stop-color="#7400FC"/>
</linearGradient>
<linearGradient id="paint9_linear_1761_22472" x1="421.6" y1="302.489" x2="380.278" y2="190.646" gradientUnits="userSpaceOnUse">
<stop stop-color="#0AD99C"/>
<stop offset="1" stop-color="#7400FC"/>
</linearGradient>
<linearGradient id="paint10_linear_1761_22472" x1="439.815" y1="298.716" x2="542.375" y2="242.629" gradientUnits="userSpaceOnUse">
<stop stop-color="#0AD99C"/>
<stop offset="1" stop-color="#7400FC"/>
</linearGradient>
<linearGradient id="paint11_linear_1761_22472" x1="133.292" y1="179.918" x2="100.958" y2="127.85" gradientUnits="userSpaceOnUse">
<stop stop-color="white"/>
<stop offset="1" stop-color="#3597F1"/>
</linearGradient>
<linearGradient id="paint12_linear_1761_22472" x1="44.7378" y1="110.747" x2="130.002" y2="110.747" gradientUnits="userSpaceOnUse">
<stop stop-color="#649EF7"/>
<stop offset="1" stop-color="#5485DC"/>
</linearGradient>
<linearGradient id="paint13_linear_1761_22472" x1="-35.4201" y1="148.056" x2="361.58" y2="-66.9136" gradientUnits="userSpaceOnUse">
<stop stop-color="#0AD99C"/>
<stop offset="1" stop-color="#7400FC"/>
</linearGradient>
<linearGradient id="paint14_linear_1761_22472" x1="537.218" y1="126.352" x2="495.29" y2="58.8258" gradientUnits="userSpaceOnUse">
<stop stop-color="white"/>
<stop offset="1" stop-color="#3597F1"/>
</linearGradient>
<linearGradient id="paint15_linear_1761_22472" x1="279.517" y1="406.325" x2="212.229" y2="297.948" gradientUnits="userSpaceOnUse">
<stop stop-color="white"/>
<stop offset="1" stop-color="#3597F1"/>
</linearGradient>
<linearGradient id="paint16_linear_1761_22472" x1="434.252" y1="93.4391" x2="533.138" y2="93.4391" gradientUnits="userSpaceOnUse">
<stop stop-color="#649EF7"/>
<stop offset="1" stop-color="#5485DC"/>
</linearGradient>
<linearGradient id="paint17_linear_1761_22472" x1="341.267" y1="106.145" x2="476.608" y2="-143.39" gradientUnits="userSpaceOnUse">
<stop stop-color="#0AD99C"/>
<stop offset="1" stop-color="#7400FC"/>
</linearGradient>
<linearGradient id="paint18_linear_1761_22472" x1="434.252" y1="75.2927" x2="533.138" y2="75.2927" gradientUnits="userSpaceOnUse">
<stop stop-color="#649EF7"/>
<stop offset="1" stop-color="#5485DC"/>
</linearGradient>
<linearGradient id="paint19_linear_1761_22472" x1="341.267" y1="87.9981" x2="476.608" y2="-161.537" gradientUnits="userSpaceOnUse">
<stop stop-color="#0AD99C"/>
<stop offset="1" stop-color="#7400FC"/>
</linearGradient>
<linearGradient id="paint20_linear_1761_22472" x1="434.252" y1="56.0134" x2="533.138" y2="56.0134" gradientUnits="userSpaceOnUse">
<stop stop-color="#649EF7"/>
<stop offset="1" stop-color="#5485DC"/>
</linearGradient>
<linearGradient id="paint21_linear_1761_22472" x1="341.267" y1="68.7188" x2="476.608" y2="-180.816" gradientUnits="userSpaceOnUse">
<stop stop-color="#0AD99C"/>
<stop offset="1" stop-color="#7400FC"/>
</linearGradient>
<linearGradient id="paint22_linear_1761_22472" x1="364.293" y1="363.77" x2="498.882" y2="232.854" gradientUnits="userSpaceOnUse">
<stop stop-color="#11A97D"/>
<stop offset="1" stop-color="#1B9BBA"/>
</linearGradient>
<linearGradient id="paint23_linear_1761_22472" x1="304.594" y1="168.303" x2="389.552" y2="168.303" gradientUnits="userSpaceOnUse">
<stop stop-color="#649EF7"/>
<stop offset="1" stop-color="#5485DC"/>
</linearGradient>
<linearGradient id="paint24_linear_1761_22472" x1="224.713" y1="203.203" x2="608.421" y2="-18.345" gradientUnits="userSpaceOnUse">
<stop stop-color="#0AD99C"/>
<stop offset="1" stop-color="#7400FC"/>
</linearGradient>
<linearGradient id="paint25_linear_1761_22472" x1="458.018" y1="40.3275" x2="508.102" y2="40.3275" gradientUnits="userSpaceOnUse">
<stop stop-color="#649EF7"/>
<stop offset="1" stop-color="#5485DC"/>
</linearGradient>
<linearGradient id="paint26_linear_1761_22472" x1="465.782" y1="124.471" x2="482.76" y2="41.3982" gradientUnits="userSpaceOnUse">
<stop stop-color="#11A97D"/>
<stop offset="1" stop-color="#1B9BBA"/>
</linearGradient>
<linearGradient id="paint27_linear_1761_22472" x1="571.459" y1="213.695" x2="621.541" y2="213.695" gradientUnits="userSpaceOnUse">
<stop stop-color="#649EF7"/>
<stop offset="1" stop-color="#5485DC"/>
</linearGradient>
<linearGradient id="paint28_linear_1761_22472" x1="579.221" y1="297.838" x2="596.199" y2="214.766" gradientUnits="userSpaceOnUse">
<stop stop-color="#11A97D"/>
<stop offset="1" stop-color="#1B9BBA"/>
</linearGradient>
<linearGradient id="paint29_linear_1761_22472" x1="410.941" y1="39.5701" x2="532.371" y2="-108.33" gradientUnits="userSpaceOnUse">
<stop stop-color="#0AD99C"/>
<stop offset="1" stop-color="#7400FC"/>
</linearGradient>
<linearGradient id="paint30_linear_1761_22472" x1="792.767" y1="434.937" x2="337.521" y2="878.952" gradientUnits="userSpaceOnUse">
<stop stop-color="#0AD99C"/>
<stop offset="0.612419" stop-color="#1F959E"/>
<stop offset="1" stop-color="#3289C0"/>
</linearGradient>
<linearGradient id="paint31_linear_1761_22472" x1="43.5403" y1="312.167" x2="297.36" y2="312.167" gradientUnits="userSpaceOnUse">
<stop stop-color="#649EF7"/>
<stop offset="1" stop-color="#5485DC"/>
</linearGradient>
<linearGradient id="paint32_linear_1761_22472" x1="-195.051" y1="361.675" x2="422.118" y2="-388.224" gradientUnits="userSpaceOnUse">
<stop stop-color="#0AD99C"/>
<stop offset="1" stop-color="#7400FC"/>
</linearGradient>
<linearGradient id="paint33_linear_1761_22472" x1="43.5299" y1="300.157" x2="43.5414" y2="300.157" gradientUnits="userSpaceOnUse">
<stop stop-color="#649EF7"/>
<stop offset="1" stop-color="#5485DC"/>
</linearGradient>
<linearGradient id="paint34_linear_1761_22472" x1="297.347" y1="333.288" x2="297.359" y2="333.288" gradientUnits="userSpaceOnUse">
<stop stop-color="#649EF7"/>
<stop offset="1" stop-color="#5485DC"/>
</linearGradient>
<linearGradient id="paint35_linear_1761_22472" x1="297.347" y1="342.461" x2="297.359" y2="342.461" gradientUnits="userSpaceOnUse">
<stop stop-color="#649EF7"/>
<stop offset="1" stop-color="#5485DC"/>
</linearGradient>
<linearGradient id="paint36_linear_1761_22472" x1="84.2346" y1="317.789" x2="311.575" y2="52.3036" gradientUnits="userSpaceOnUse">
<stop stop-color="#0AD99C"/>
<stop offset="1" stop-color="#7400FC"/>
</linearGradient>
<linearGradient id="paint37_linear_1761_22472" x1="58.7075" y1="320.926" x2="204.674" y2="152.805" gradientUnits="userSpaceOnUse">
<stop stop-color="#0AD99C"/>
<stop offset="1" stop-color="#7400FC"/>
</linearGradient>
<linearGradient id="paint38_linear_1761_22472" x1="-25.181" y1="310.987" x2="329.936" y2="-119.501" gradientUnits="userSpaceOnUse">
<stop stop-color="#0AD99C"/>
<stop offset="1" stop-color="#7400FC"/>
</linearGradient>
<linearGradient id="paint39_linear_1761_22472" x1="571.459" y1="201.71" x2="621.541" y2="201.71" gradientUnits="userSpaceOnUse">
<stop stop-color="#649EF7"/>
<stop offset="1" stop-color="#5485DC"/>
</linearGradient>
<linearGradient id="paint40_linear_1761_22472" x1="579.221" y1="285.855" x2="596.199" y2="202.781" gradientUnits="userSpaceOnUse">
<stop stop-color="#11A97D"/>
<stop offset="1" stop-color="#1B9BBA"/>
</linearGradient>
<linearGradient id="paint41_linear_1761_22472" x1="571.459" y1="188.273" x2="621.541" y2="188.273" gradientUnits="userSpaceOnUse">
<stop stop-color="#649EF7"/>
<stop offset="1" stop-color="#5485DC"/>
</linearGradient>
<linearGradient id="paint42_linear_1761_22472" x1="579.221" y1="272.417" x2="596.199" y2="189.344" gradientUnits="userSpaceOnUse">
<stop stop-color="#11A97D"/>
<stop offset="1" stop-color="#1B9BBA"/>
</linearGradient>
<linearGradient id="paint43_linear_1761_22472" x1="571.459" y1="173.435" x2="621.541" y2="173.435" gradientUnits="userSpaceOnUse">
<stop stop-color="#649EF7"/>
<stop offset="1" stop-color="#5485DC"/>
</linearGradient>
<linearGradient id="paint44_linear_1761_22472" x1="579.221" y1="257.579" x2="596.199" y2="174.506" gradientUnits="userSpaceOnUse">
<stop stop-color="#11A97D"/>
<stop offset="1" stop-color="#1B9BBA"/>
</linearGradient>
<linearGradient id="paint45_linear_1761_22472" x1="571.459" y1="159.998" x2="621.541" y2="159.998" gradientUnits="userSpaceOnUse">
<stop stop-color="#649EF7"/>
<stop offset="1" stop-color="#5485DC"/>
</linearGradient>
<linearGradient id="paint46_linear_1761_22472" x1="579.221" y1="244.141" x2="596.199" y2="161.068" gradientUnits="userSpaceOnUse">
<stop stop-color="#11A97D"/>
<stop offset="1" stop-color="#1B9BBA"/>
</linearGradient>
<linearGradient id="paint47_linear_1761_22472" x1="487.023" y1="236.605" x2="445.701" y2="124.763" gradientUnits="userSpaceOnUse">
<stop stop-color="#0AD99C"/>
<stop offset="1" stop-color="#7400FC"/>
</linearGradient>
<clipPath id="clip0_1761_22472">
<rect width="640" height="435.984" fill="white"/>
</clipPath>
</defs>
</svg>
