<svg xmlns="http://www.w3.org/2000/svg" xmlns:xlink="http://www.w3.org/1999/xlink" viewBox="0 0 70.32 79.69"><defs><style>.cls-1,.cls-2,.cls-3,.cls-4{fill:#eacc1d;stroke-miterlimit:10;stroke-width:2px;}.cls-1{stroke:url(#radial-gradient);}.cls-2{stroke:url(#radial-gradient-2);}.cls-3{stroke:url(#radial-gradient-3);}.cls-4{stroke:url(#radial-gradient-4);}.cls-5{fill:#ec008c;}.cls-6{fill:#ca1586;}</style><radialGradient id="radial-gradient" cx="35.23" cy="29.99" r="17.14" gradientUnits="userSpaceOnUse"><stop offset="0" stop-color="#fcef42"/><stop offset="0.04" stop-color="#fce536"/><stop offset="0.12" stop-color="#fdd423"/><stop offset="0.2" stop-color="#fdca18"/><stop offset="0.28" stop-color="#fdc714"/><stop offset="0.67" stop-color="#f29040"/><stop offset="0.89" stop-color="#ed693c"/><stop offset="1" stop-color="#e74039"/></radialGradient><radialGradient id="radial-gradient-2" cx="16.63" cy="61.96" r="17.19" xlink:href="#radial-gradient"/><radialGradient id="radial-gradient-3" cx="25.83" cy="45.93" r="30.05" xlink:href="#radial-gradient"/><radialGradient id="radial-gradient-4" cx="45.8" cy="34.45" r="29.9" xlink:href="#radial-gradient"/></defs><g id="Layer_2" data-name="Layer 2"><g id="Layer_1-2" data-name="Layer 1"><polygon class="cls-1" points="19.79 28.31 50.67 46.06 50.67 31.27 19.79 13.9 19.79 28.31"/><polygon class="cls-2" points="1 60.35 32.27 77.97 32.27 63.56 1 45.94 1 60.35"/><polygon class="cls-3" points="13.74 31.64 13.74 13.9 1 21.1 1 38.86 1.03 38.88 38.06 59.83 38.06 59.86 38.31 77.97 50.67 70.9 50.67 53.17 50.67 53.14 13.74 31.65 13.74 31.64"/><polygon class="cls-4" points="35.23 1.16 23.26 8.11 56.97 28.05 56.97 28.07 56.97 67.17 69.32 60.09 69.32 21.29 69.32 21.23 35.23 1.16"/><polygon class="cls-5" points="19.79 13.9 19.79 28.31 50.67 46.06 50.67 31.27 19.79 13.9"/><polygon class="cls-5" points="1 45.94 1 60.35 32.27 77.97 32.27 63.56 1 45.94"/><polygon class="cls-6" points="13.74 13.9 1 21.1 1 38.86 1.03 38.88 13.74 31.64 13.74 13.9"/><polygon class="cls-6" points="38.06 59.86 38.31 77.97 50.67 70.9 50.67 53.17 38.06 59.86"/><polygon class="cls-5" points="50.67 53.14 13.74 31.65 13.74 31.64 1.03 38.88 38.06 59.83 38.06 59.86 50.67 53.17 50.67 53.14"/><polygon class="cls-5" points="69.32 21.23 35.23 1.16 23.26 8.11 56.97 28.05 56.97 28.07 69.32 21.29 69.32 21.23"/><polygon class="cls-6" points="56.97 28.07 56.97 67.17 69.32 60.09 69.32 21.29 56.97 28.07"/></g></g></svg>