<svg xmlns="http://www.w3.org/2000/svg" version="1.1" xmlns:xlink="http://www.w3.org/1999/xlink" xmlns:svgjs="http://svgjs.com/svgjs" width="222.36" height="250"><svg xmlns="http://www.w3.org/2000/svg" viewBox="0 0 222.36 250"><defs><style>.cls-1{fill:#d12f92;}.cls-2{fill:#a32278;}</style></defs><g id="SvgjsG1001" data-name="Layer 2"><g id="SvgjsG1000" data-name="Layer 1"><polygon class="cls-1" points="61.14 41.46 61.14 88.36 161.64 146.15 161.64 97.99 61.14 41.46"></polygon><polygon class="cls-1" points="0 145.73 0 192.63 101.76 250 101.76 203.1 0 145.73"></polygon><polygon class="cls-2" points="41.46 41.46 0 64.91 0 122.7 0.1 122.75 41.46 99.21 41.46 41.46"></polygon><polygon class="cls-2" points="120.6 191.06 121.44 250 161.64 226.97 161.64 169.28 120.6 191.06"></polygon><polygon class="cls-1" points="161.64 169.18 41.46 99.25 41.46 99.21 0.1 122.75 120.6 190.96 120.6 191.06 161.64 169.28 161.64 169.18"></polygon><polygon class="cls-1" points="222.36 65.33 111.39 0 72.45 22.61 182.16 87.52 182.16 87.58 222.36 65.52 222.36 65.33"></polygon><polygon class="cls-2" points="182.16 87.58 182.16 214.82 222.36 191.79 222.36 65.52 182.16 87.58"></polygon></g></g></svg><style>@media (prefers-color-scheme: light) { :root { filter: none; } }
</style></svg>